<svg width="688" height="104" viewBox="0 0 688 104" fill="none" xmlns="http://www.w3.org/2000/svg">
<g filter="url(#filter0_d_61_8150)">
<g style="mix-blend-mode:multiply">
<path d="M19.9058 45.9515C19.8042 38.742 22.4443 32.5733 27.826 27.4455C33.2078 22.2668 39.6303 19.7537 47.0936 19.906C52.12 19.906 56.6386 21.0991 60.6495 23.4853C62.4859 24.5547 64.1414 25.8262 65.616 27.3C67.362 29.045 68.8543 31.0736 70.0929 33.3857L60.1164 40.1636C59.1767 38.5778 58.1435 37.2213 57.0169 36.0941C54.2481 33.3239 50.9149 31.9387 47.0175 31.9387C43.0066 31.9387 39.7065 33.2334 37.1171 35.8227C34.5786 38.412 33.3093 41.8137 33.3093 46.0277C33.3093 50.1401 34.5786 53.5164 37.1171 56.1565C39.7572 58.695 43.0573 59.9643 47.0175 59.9643C52.5007 59.9643 56.8671 57.2227 60.1164 51.7394L70.0929 58.5173C67.8082 62.7821 64.6604 66.1076 60.6495 68.4938C56.6386 70.8293 52.0946 71.997 47.0175 71.997C39.6049 72.0986 33.1824 69.5854 27.7499 64.4575C22.3682 59.3297 19.7534 53.161 19.9058 45.9515Z" fill="#292929"/>
<path d="M122.005 71.0832H107.383L96.0361 55.4711H90.629V71.0832H77.5301V20.8199H97.2546C102.89 20.8199 107.536 22.4191 111.191 25.6177C114.847 28.7655 116.675 32.9287 116.675 38.1074C116.675 44.403 114.034 49.1755 108.754 52.4248L122.005 71.0832ZM90.629 32.2433V44.0476H97.3307C99.1585 44.0476 100.605 43.5145 101.672 42.4483C102.789 41.3313 103.347 39.8844 103.347 38.1074C103.347 36.3304 102.789 34.9088 101.672 33.8426C100.605 32.7764 99.1585 32.2433 97.3307 32.2433H90.629Z" fill="#292929"/>
<path d="M127.21 71.0832V20.8199H162.09V32.6241H140.309V39.5544H155.845V50.5209H140.309V59.2789H163.004V71.0832H127.21Z" fill="#292929"/>
<path d="M202.083 71.0832L200.256 66.8946H182.207L180.379 71.0832H166.29L189.137 19.906H193.325L216.172 71.0832H202.083ZM195.61 56.385L191.269 44.733L186.852 56.385H195.61Z" fill="#292929"/>
<path d="M226.452 71.0832V32.6241H211.373V20.8199H254.63V32.6241H239.551V71.0832H226.452Z" fill="#292929"/>
<path d="M260.41 71.0832V20.8199H295.289V32.6241H273.509V39.5544H289.045V50.5209H273.509V59.2789H296.203V71.0832H260.41Z" fill="#292929"/>
<path d="M352.835 71.0832L351.007 66.8946H332.958L331.13 71.0832H317.041L339.888 19.906H344.077L366.924 71.0832H352.835ZM346.361 56.385L342.02 44.733L337.603 56.385H346.361Z" fill="#292929"/>
<path d="M389.668 71.0832V20.8199H409.392C415.028 20.8199 419.673 22.4191 423.329 25.6177C426.984 28.7655 428.812 32.9287 428.812 38.1074C428.812 43.1845 426.959 47.3477 423.253 50.5971C419.546 53.8464 414.926 55.4711 409.392 55.4711H402.767V71.0832H389.668ZM402.767 44.0476H409.468C411.296 44.0476 412.743 43.5145 413.809 42.4483C414.926 41.3313 415.485 39.8844 415.485 38.1074C415.485 36.3304 414.926 34.9088 413.809 33.8426C412.743 32.7764 411.296 32.2433 409.468 32.2433H402.767V44.0476Z" fill="#292929"/>
<path d="M435.622 49.7593V20.8199H448.721V50.7494C448.721 53.5925 449.559 55.8519 451.234 57.5273C452.91 59.152 455.118 59.9643 457.86 59.9643C460.601 59.9643 462.81 59.152 464.485 57.5273C466.161 55.8519 466.999 53.5925 466.999 50.7494V20.8199H480.098V49.7593C480.098 56.3088 477.991 61.6651 473.777 65.8284C469.563 69.9408 464.257 71.997 457.86 71.997C451.361 71.997 446.03 69.9662 441.867 65.9045C437.704 61.7921 435.622 56.4103 435.622 49.7593Z" fill="#292929"/>
<path d="M505.611 59.2789H527.772V71.0832H485.734V67.6561L507.743 32.6241H489.008V20.8199H527.696V24.2469L505.611 59.2789Z" fill="#292929"/>
<path d="M550.308 59.2789H572.469V71.0832H530.431V67.6561L552.44 32.6241H533.706V20.8199H572.393V24.2469L550.308 59.2789Z" fill="#292929"/>
<path d="M579.241 71.0832V20.8199H592.34V59.2789H613.13V71.0832H579.241Z" fill="#292929"/>
<path d="M619.996 71.0832V20.8199H654.876V32.6241H633.095V39.5544H648.631V50.5209H633.095V59.2789H655.79V71.0832H619.996Z" fill="#292929"/>
<path d="M15.9266 15.546C10.5448 20.6738 7.90475 26.8425 8.00629 34.052L19.9058 45.9515C19.8042 38.742 22.4443 32.5733 27.826 27.4455L15.9266 15.546Z" fill="#292929"/>
<path d="M35.1942 8.00653C27.7308 7.85422 21.3083 10.3673 15.9266 15.546L27.826 27.4455C33.2078 22.2668 39.6303 19.7537 47.0936 19.906L35.1942 8.00653Z" fill="#292929"/>
<path d="M48.75 11.5859C44.7391 9.19966 40.2205 8.00653 35.1942 8.00653L47.0936 19.906C52.12 19.906 56.6386 21.0991 60.6495 23.4853L48.75 11.5859Z" fill="#292929"/>
<path d="M25.2177 23.9232C27.807 21.3339 31.1071 20.0392 35.118 20.0392L47.0175 31.9387C43.0066 31.9387 39.7065 33.2334 37.1171 35.8227L25.2177 23.9232Z" fill="#292929"/>
<path d="M21.4099 34.1282C21.4099 29.9142 22.6791 26.5125 25.2177 23.9232L37.1171 35.8227C34.5786 38.412 33.3093 41.8137 33.3093 46.0277L21.4099 34.1282Z" fill="#292929"/>
<path d="M15.8504 52.558C10.4687 47.4302 7.85398 41.2615 8.00629 34.052L19.9058 45.9515C19.7636 52.6804 22.0318 58.5025 26.7104 63.418L27.7499 64.4575C27.3911 64.1157 27.0446 63.7691 26.7104 63.418L15.8504 52.558Z" fill="#292929"/>
<path d="M35.118 20.0392C39.0155 20.0392 42.3486 21.4243 45.1174 24.1946L57.0107 36.0879C54.2431 33.3217 50.912 31.9387 47.0175 31.9387L35.118 20.0392Z" fill="#292929"/>
<path d="M25.2177 44.2571C22.6791 41.617 21.4099 38.2406 21.4099 34.1282L33.3093 46.0277C33.3093 50.1401 34.5786 53.5164 37.1171 56.1565L25.2177 44.2571Z" fill="#292929"/>
<path d="M53.7166 15.4006C52.242 13.9268 50.5865 12.6552 48.75 11.5859L60.6495 23.4853C62.4859 24.5547 64.1414 25.8262 65.616 27.3L53.7166 15.4006Z" fill="#292929"/>
<path d="M45.1174 24.1946C46.244 25.3218 47.2772 26.6784 48.2169 28.2642L60.1164 40.1636C59.1767 38.5778 58.1435 37.2213 57.0169 36.0941L45.1174 24.1946Z" fill="#292929"/>
<path d="M58.1935 21.4862C56.957 19.1782 55.4677 17.1526 53.7257 15.4096L65.616 27.3C67.362 29.045 68.8543 31.0736 70.0929 33.3857L58.1935 21.4862Z" fill="#292929"/>
<path d="M35.118 48.0648C31.1579 48.0648 27.8578 46.7956 25.2177 44.2571L37.1171 56.1565C39.7572 58.695 43.0573 59.9643 47.0175 59.9643L35.118 48.0648Z" fill="#292929"/>
<path d="M48.2169 28.2642L58.1935 21.4862L70.0929 33.3857L60.1164 40.1636L48.2169 28.2642Z" fill="#292929"/>
<path d="M15.8504 52.558C21.2829 57.6859 27.7055 60.1991 35.118 60.0975L47.0175 71.997C39.6049 72.0986 33.1824 69.5854 27.7499 64.4575L15.8504 52.558Z" fill="#292929"/>
<path d="M85.3551 8.92035H65.6306L77.5301 20.8199H97.2546L85.3551 8.92035Z" fill="#292929"/>
<path d="M48.2169 39.8399C44.9676 45.3232 40.6013 48.0648 35.118 48.0648L47.0175 59.9643C52.5007 59.9643 56.8671 57.2227 60.1164 51.7394L48.2169 39.8399Z" fill="#292929"/>
<path d="M58.1934 46.6178L48.2169 39.8399L60.1164 51.7394L70.0929 58.5173L58.1934 46.6178Z" fill="#292929"/>
<path d="M65.6306 8.92035V59.1836L77.5301 71.0832V20.8199L65.6306 8.92035Z" fill="#292929"/>
<path d="M35.118 60.0975C40.1951 60.0975 44.7391 58.9299 48.75 56.5944L60.6495 68.4938C56.6386 70.8293 52.0946 71.997 47.0175 71.997L35.118 60.0975Z" fill="#292929"/>
<path d="M78.7295 20.3439H85.4313L97.3307 32.2433H90.629L78.7295 20.3439Z" fill="#292929"/>
<path d="M99.2918 13.7182C95.6363 10.5196 90.9907 8.92035 85.3551 8.92035L97.2546 20.8199C102.89 20.8199 107.536 22.4191 111.191 25.6177L99.2918 13.7182Z" fill="#292929"/>
<path d="M78.7295 32.1482V20.3439L90.629 32.2433V44.0476L78.7295 32.1482Z" fill="#292929"/>
<path d="M48.75 56.5944C52.7609 54.2082 55.9087 50.8826 58.1934 46.6178L70.0929 58.5173C67.8082 62.7821 64.6604 66.1076 60.6495 68.4938L48.75 56.5944Z" fill="#292929"/>
<path d="M85.4313 20.3439C87.259 20.3439 88.706 20.877 89.7722 21.9432L101.672 33.8426C100.605 32.7764 99.1585 32.2433 97.3307 32.2433L85.4313 20.3439Z" fill="#292929"/>
<path d="M85.4313 32.1481L78.7295 32.1482L90.629 44.0476H97.3307L85.4313 32.1481Z" fill="#292929"/>
<path d="M91.4477 26.208C91.4477 24.5297 90.9495 23.1685 89.9532 22.1242L89.7722 21.9432C89.8343 22.0025 89.8946 22.0628 89.9532 22.1242L101.672 33.8426C102.789 34.9088 103.347 36.3304 103.347 38.1074L91.4477 26.208Z" fill="#292929"/>
<path d="M89.7722 30.5488C88.706 31.615 87.259 32.1481 85.4313 32.1481L97.3307 44.0476C99.1585 44.0476 100.605 43.5145 101.672 42.4483L89.7722 30.5488Z" fill="#292929"/>
<path d="M91.4477 26.208C91.4477 27.985 90.8892 29.4319 89.7722 30.5488L101.672 42.4483C102.789 41.3313 103.347 39.8844 103.347 38.1074L91.4477 26.208Z" fill="#292929"/>
<path d="M99.2918 13.7182C99.9446 14.2803 100.539 14.8749 101.075 15.5018L111.191 25.6177C114.847 28.7655 116.675 32.9287 116.675 38.1074L104.775 26.208C104.775 21.9541 103.542 18.3854 101.075 15.5018L99.2918 13.7182Z" fill="#292929"/>
<path d="M78.7295 43.5716H84.1366L96.0361 55.4711H90.629L78.7295 43.5716Z" fill="#292929"/>
<path d="M78.7295 59.1836V43.5716L90.629 55.4711V71.0832L78.7295 59.1836Z" fill="#292929"/>
<path d="M65.6306 59.1836L78.7295 59.1836L90.629 71.0832H77.5301L65.6306 59.1836Z" fill="#292929"/>
<path d="M96.8548 40.5254C102.135 37.276 104.775 32.5036 104.775 26.208L116.675 38.1074C116.675 44.403 114.034 49.1755 108.754 52.4248L96.8548 40.5254Z" fill="#292929"/>
<path d="M84.1366 43.5716L95.4839 59.1836L107.383 71.0832L96.0361 55.4711L84.1366 43.5716Z" fill="#292929"/>
<path d="M150.191 8.92035H115.311L127.21 20.8199H162.09L150.191 8.92035Z" fill="#292929"/>
<path d="M115.311 8.92035V59.1836L127.21 71.0832V20.8199L115.311 8.92035Z" fill="#292929"/>
<path d="M128.41 27.6549V20.7247L140.309 32.6241V39.5544L128.41 27.6549Z" fill="#292929"/>
<path d="M110.106 59.1837L96.8548 40.5254L108.754 52.4248L122.005 71.0832L110.106 59.1837Z" fill="#292929"/>
<path d="M128.41 20.7247H150.19L162.09 32.6241H140.309L128.41 20.7247Z" fill="#292929"/>
<path d="M95.4839 59.1836L110.106 59.1837L122.005 71.0832H107.383L95.4839 59.1836Z" fill="#292929"/>
<path d="M143.946 27.6549L128.41 27.6549L140.309 39.5544H155.845L143.946 27.6549Z" fill="#292929"/>
<path d="M150.19 20.7247L150.191 8.92035L162.09 20.8199V32.6241L150.19 20.7247Z" fill="#292929"/>
<path d="M128.41 47.3795V38.6215L140.309 50.5209V59.2789L128.41 47.3795Z" fill="#292929"/>
<path d="M128.41 38.6215H143.946L155.845 50.5209H140.309L128.41 38.6215Z" fill="#292929"/>
<path d="M143.946 38.6215V27.6549L155.845 39.5544V50.5209L143.946 38.6215Z" fill="#292929"/>
<path d="M151.104 47.3795L128.41 47.3795L140.309 59.2789H163.004L151.104 47.3795Z" fill="#292929"/>
<path d="M181.426 8.00654H177.237L189.137 19.906H193.325L181.426 8.00654Z" fill="#292929"/>
<path d="M115.311 59.1836L151.104 59.1838L163.004 71.0832H127.21L115.311 59.1836Z" fill="#292929"/>
<path d="M177.237 8.00654L154.39 59.1837L166.29 71.0832L189.137 19.906L177.237 8.00654Z" fill="#292929"/>
<path d="M151.104 59.1838L151.104 47.3795L163.004 59.2789V71.0832L151.104 59.1838Z" fill="#292929"/>
<path d="M199.474 8.92035V20.7246L211.373 32.6241V20.8199L199.474 8.92035Z" fill="#292929"/>
<path d="M174.953 44.4855L179.37 32.8336L191.269 44.733L186.852 56.385L174.953 44.4855Z" fill="#292929"/>
<path d="M179.37 32.8336L183.711 44.4855L195.61 56.385L191.269 44.733L179.37 32.8336Z" fill="#292929"/>
<path d="M154.39 59.1837L168.479 59.1838L180.379 71.0832H166.29L154.39 59.1837Z" fill="#292929"/>
<path d="M183.711 44.4855H174.953L186.852 56.385H195.61L183.711 44.4855Z" fill="#292929"/>
<path d="M204.273 59.1837L181.426 8.00654L193.325 19.906L216.172 71.0832L204.273 59.1837Z" fill="#292929"/>
<path d="M168.479 59.1838L170.307 54.9951L182.207 66.8946L180.379 71.0832L168.479 59.1838Z" fill="#292929"/>
<path d="M199.474 20.7246L214.553 20.7247L226.452 32.6241H211.373L199.474 20.7246Z" fill="#292929"/>
<path d="M242.731 8.92035H199.474L211.373 20.8199H254.63L242.731 8.92035Z" fill="#292929"/>
<path d="M170.307 54.9951H188.356L200.256 66.8946H182.207L170.307 54.9951Z" fill="#292929"/>
<path d="M188.356 54.9951L190.184 59.1838L202.083 71.0832L200.256 66.8946L188.356 54.9951Z" fill="#292929"/>
<path d="M214.553 20.7247V59.1837L226.452 71.0832V32.6241L214.553 20.7247Z" fill="#292929"/>
<path d="M227.652 20.7247H242.731L254.63 32.6241H239.551L227.652 20.7247Z" fill="#292929"/>
<path d="M190.184 59.1838L204.273 59.1837L216.172 71.0832H202.083L190.184 59.1838Z" fill="#292929"/>
<path d="M242.731 20.7247V8.92035L254.63 20.8199V32.6241L242.731 20.7247Z" fill="#292929"/>
<path d="M227.652 59.1837V20.7247L239.551 32.6241V71.0832L227.652 59.1837Z" fill="#292929"/>
<path d="M283.39 8.92035H248.51L260.41 20.8199H295.289L283.39 8.92035Z" fill="#292929"/>
<path d="M214.553 59.1837H227.652L239.551 71.0832H226.452L214.553 59.1837Z" fill="#292929"/>
<path d="M248.51 8.92035V59.1836L260.41 71.0832V20.8199L248.51 8.92035Z" fill="#292929"/>
<path d="M261.609 27.6549V20.7247L273.509 32.6241V39.5544L261.609 27.6549Z" fill="#292929"/>
<path d="M261.609 20.7247H283.39L295.289 32.6241H273.509L261.609 20.7247Z" fill="#292929"/>
<path d="M277.145 27.6549L261.609 27.6549L273.509 39.5544H289.045L277.145 27.6549Z" fill="#292929"/>
<path d="M283.39 20.7247V8.92035L295.289 20.8199V32.6241L283.39 20.7247Z" fill="#292929"/>
<path d="M261.609 47.3795V38.6215L273.509 50.5209V59.2789L261.609 47.3795Z" fill="#292929"/>
<path d="M261.609 38.6215H277.145L289.045 50.5209H273.509L261.609 38.6215Z" fill="#292929"/>
<path d="M277.145 38.6215V27.6549L289.045 39.5544V50.5209L277.145 38.6215Z" fill="#292929"/>
<path d="M284.304 47.3795L261.609 47.3795L273.509 59.2789H296.203L284.304 47.3795Z" fill="#292929"/>
<path d="M248.51 59.1836L284.304 59.1838L296.203 71.0832H260.41L248.51 59.1836Z" fill="#292929"/>
<path d="M284.304 59.1838V47.3795L296.203 59.2789V71.0832L284.304 59.1838Z" fill="#292929"/>
<path d="M332.177 8.00654H327.989L339.888 19.906H344.077L332.177 8.00654Z" fill="#292929"/>
<path d="M327.989 8.00654L305.142 59.1837L317.041 71.0832L339.888 19.906L327.989 8.00654Z" fill="#292929"/>
<path d="M325.704 44.4855L330.121 32.8336L342.02 44.733L337.603 56.385L325.704 44.4855Z" fill="#292929"/>
<path d="M330.121 32.8336L334.462 44.4855L346.361 56.385L342.02 44.733L330.121 32.8336Z" fill="#292929"/>
<path d="M305.142 59.1837L319.231 59.1838L331.13 71.0832H317.041L305.142 59.1837Z" fill="#292929"/>
<path d="M334.462 44.4855H325.704L337.603 56.385H346.361L334.462 44.4855Z" fill="#292929"/>
<path d="M355.024 59.1837L332.177 8.00654L344.077 19.906L366.924 71.0832L355.024 59.1837Z" fill="#292929"/>
<path d="M319.231 59.1838L321.058 54.9951L332.958 66.8946L331.13 71.0832L319.231 59.1838Z" fill="#292929"/>
<path d="M321.058 54.9951H339.107L351.007 66.8946H332.958L321.058 54.9951Z" fill="#292929"/>
<path d="M397.493 8.92035H377.768L389.668 20.8199H409.392L397.493 8.92035Z" fill="#292929"/>
<path d="M339.107 54.9951L340.935 59.1838L352.835 71.0832L351.007 66.8946L339.107 54.9951Z" fill="#292929"/>
<path d="M340.935 59.1838L355.024 59.1837L366.924 71.0832H352.835L340.935 59.1838Z" fill="#292929"/>
<path d="M377.768 8.92035V59.1836L389.668 71.0832V20.8199L377.768 8.92035Z" fill="#292929"/>
<path d="M390.867 20.3439H397.569L409.468 32.2433H402.767L390.867 20.3439Z" fill="#292929"/>
<path d="M411.429 13.7182C407.774 10.5196 403.128 8.92035 397.493 8.92035L409.392 20.8199C415.028 20.8199 419.673 22.4191 423.329 25.6177L411.429 13.7182Z" fill="#292929"/>
<path d="M390.867 32.1482V20.3439L402.767 32.2433V44.0476L390.867 32.1482Z" fill="#292929"/>
<path d="M397.569 20.3439C399.397 20.3439 400.844 20.877 401.91 21.9432L413.809 33.8426C412.743 32.7764 411.296 32.2433 409.468 32.2433L397.569 20.3439Z" fill="#292929"/>
<path d="M397.569 32.1481L390.867 32.1482L402.767 44.0476H409.468L397.569 32.1481Z" fill="#292929"/>
<path d="M403.585 26.208C403.585 24.5297 403.087 23.1685 402.091 22.1242L401.91 21.9432C401.972 22.0025 402.032 22.0628 402.091 22.1242L413.809 33.8426C414.926 34.9088 415.485 36.3304 415.485 38.1074L403.585 26.208Z" fill="#292929"/>
<path d="M401.91 30.5488C400.844 31.615 399.397 32.1481 397.569 32.1481L409.468 44.0476C411.296 44.0476 412.743 43.5145 413.809 42.4483L401.91 30.5488Z" fill="#292929"/>
<path d="M403.585 26.208C403.585 27.985 403.027 29.4319 401.91 30.5488L413.809 42.4483C414.926 41.3313 415.485 39.8844 415.485 38.1074L403.585 26.208Z" fill="#292929"/>
<path d="M411.429 13.7182C412.082 14.2803 412.677 14.8749 413.213 15.5018L423.329 25.6177C426.984 28.7655 428.812 32.9287 428.812 38.1074L416.913 26.208C416.913 21.9541 415.679 18.3854 413.213 15.5018L411.429 13.7182Z" fill="#292929"/>
<path d="M390.867 43.5716H397.493L409.392 55.4711H402.767L390.867 43.5716Z" fill="#292929"/>
<path d="M436.822 8.92035H423.723L435.622 20.8199H448.721L436.822 8.92035Z" fill="#292929"/>
<path d="M390.867 59.1836V43.5716L402.767 55.4711V71.0832L390.867 59.1836Z" fill="#292929"/>
<path d="M377.768 59.1836L390.867 59.1836L402.767 71.0832H389.668L377.768 59.1836Z" fill="#292929"/>
<path d="M397.493 43.5716C403.027 43.5716 407.647 41.9469 411.353 38.6976L423.253 50.5971C419.546 53.8464 414.926 55.4711 409.392 55.4711L397.493 43.5716Z" fill="#292929"/>
<path d="M411.353 38.6976C415.059 35.4483 416.913 31.2851 416.913 26.208L428.812 38.1074C428.812 43.1845 426.959 47.3477 423.253 50.5971L411.353 38.6976Z" fill="#292929"/>
<path d="M423.723 8.92035V37.8598L435.622 49.7593V20.8199L423.723 8.92035Z" fill="#292929"/>
<path d="M436.822 38.8499V8.92035L448.721 20.8199V50.7494L436.822 38.8499Z" fill="#292929"/>
<path d="M468.198 8.92035H455.099L466.999 20.8199H480.098L468.198 8.92035Z" fill="#292929"/>
<path d="M429.967 54.0051C425.804 49.8926 423.723 44.5108 423.723 37.8598L435.622 49.7593C435.622 56.3096 437.641 61.6287 441.679 65.7167L441.867 65.9045C441.804 65.8422 441.741 65.7796 441.679 65.7167L429.967 54.0051Z" fill="#292929"/>
<path d="M455.099 8.92035V38.8499L466.999 50.7494V20.8199L455.099 8.92035Z" fill="#292929"/>
<path d="M439.335 45.6279C437.659 43.9525 436.822 41.693 436.822 38.8499L448.721 50.7494C448.721 53.5925 449.559 55.8519 451.234 57.5273L439.335 45.6279Z" fill="#292929"/>
<path d="M445.96 48.0648C443.219 48.0648 441.01 47.2526 439.335 45.6279L451.234 57.5273C452.91 59.152 455.118 59.9643 457.86 59.9643L445.96 48.0648Z" fill="#292929"/>
<path d="M468.198 37.8598V8.92035L480.098 20.8199V49.7593L468.198 37.8598Z" fill="#292929"/>
<path d="M477.109 8.92035V20.7246L489.008 32.6241V20.8199L477.109 8.92035Z" fill="#292929"/>
<path d="M429.967 54.0051C434.131 58.0668 439.462 60.0976 445.96 60.0976L457.86 71.997C451.361 71.997 446.03 69.9662 441.867 65.9045L429.967 54.0051Z" fill="#292929"/>
<path d="M455.099 38.8499C455.099 41.693 454.261 43.9525 452.586 45.6279L464.485 57.5273C466.161 55.8519 466.999 53.5925 466.999 50.7494L455.099 38.8499Z" fill="#292929"/>
<path d="M452.586 45.6279C450.911 47.2526 448.702 48.0648 445.96 48.0648L457.86 59.9643C460.601 59.9643 462.81 59.152 464.485 57.5273L452.586 45.6279Z" fill="#292929"/>
<path d="M515.796 8.92035H477.109L489.008 20.8199H527.696L515.796 8.92035Z" fill="#292929"/>
<path d="M477.109 20.7246L495.843 20.7247L507.743 32.6241H489.008L477.109 20.7246Z" fill="#292929"/>
<path d="M445.96 60.0976C452.358 60.0976 457.663 58.0414 461.877 53.929L473.777 65.8284C469.563 69.9408 464.257 71.997 457.86 71.997L445.96 60.0976Z" fill="#292929"/>
<path d="M461.877 53.929C466.091 49.7657 468.198 44.4093 468.198 37.8598L480.098 49.7593C480.098 56.3088 477.991 61.6651 473.777 65.8284L461.877 53.929Z" fill="#292929"/>
<path d="M495.843 20.7247L473.834 55.7567L485.734 67.6561L507.743 32.6241L495.843 20.7247Z" fill="#292929"/>
<path d="M515.796 12.3474V8.92035L527.696 20.8199V24.2469L515.796 12.3474Z" fill="#292929"/>
<path d="M473.834 55.7567V59.1838L485.734 71.0832V67.6561L473.834 55.7567Z" fill="#292929"/>
<path d="M493.711 47.3794L515.796 12.3474L527.696 24.2469L505.611 59.2789L493.711 47.3794Z" fill="#292929"/>
<path d="M521.806 8.92035V20.7246L533.706 32.6241V20.8199L521.806 8.92035Z" fill="#292929"/>
<path d="M560.494 8.92035H521.806L533.706 20.8199H572.393L560.494 8.92035Z" fill="#292929"/>
<path d="M521.806 20.7246L540.541 20.7247L552.44 32.6241H533.706L521.806 20.7246Z" fill="#292929"/>
<path d="M515.873 47.3795L493.711 47.3794L505.611 59.2789H527.772L515.873 47.3795Z" fill="#292929"/>
<path d="M473.834 59.1838L515.873 59.1838L527.772 71.0832H485.734L473.834 59.1838Z" fill="#292929"/>
<path d="M540.541 20.7247L518.532 55.7567L530.431 67.6561L552.44 32.6241L540.541 20.7247Z" fill="#292929"/>
<path d="M515.873 59.1838V47.3795L527.772 59.2789V71.0832L515.873 59.1838Z" fill="#292929"/>
<path d="M560.494 12.3474V8.92035L572.393 20.8199V24.2469L560.494 12.3474Z" fill="#292929"/>
<path d="M518.532 55.7567V59.1838L530.431 71.0832V67.6561L518.532 55.7567Z" fill="#292929"/>
<path d="M538.408 47.3794L560.494 12.3474L572.393 24.2469L550.308 59.2789L538.408 47.3794Z" fill="#292929"/>
<path d="M580.44 8.92035H567.341L579.241 20.8199H592.34L580.44 8.92035Z" fill="#292929"/>
<path d="M560.57 47.3795L538.408 47.3794L550.308 59.2789H572.469L560.57 47.3795Z" fill="#292929"/>
<path d="M518.532 59.1838L560.57 59.1838L572.469 71.0832H530.431L518.532 59.1838Z" fill="#292929"/>
<path d="M567.341 8.92035V59.1836L579.241 71.0832V20.8199L567.341 8.92035Z" fill="#292929"/>
<path d="M580.44 47.3794V8.92035L592.34 20.8199V59.2789L580.44 47.3794Z" fill="#292929"/>
<path d="M560.57 59.1838V47.3795L572.469 59.2789V71.0832L560.57 59.1838Z" fill="#292929"/>
<path d="M642.977 8.92035H608.097L619.996 20.8199H654.876L642.977 8.92035Z" fill="#292929"/>
<path d="M601.231 47.3795L580.44 47.3794L592.34 59.2789H613.13L601.231 47.3795Z" fill="#292929"/>
<path d="M608.097 8.92035V59.1836L619.996 71.0832V20.8199L608.097 8.92035Z" fill="#292929"/>
<path d="M567.341 59.1836L601.231 59.1838L613.13 71.0832H579.241L567.341 59.1836Z" fill="#292929"/>
<path d="M621.196 27.6549V20.7247L633.095 32.6241V39.5544L621.196 27.6549Z" fill="#292929"/>
<path d="M621.196 20.7247H642.977L654.876 32.6241H633.095L621.196 20.7247Z" fill="#292929"/>
<path d="M601.231 59.1838V47.3795L613.13 59.2789V71.0832L601.231 59.1838Z" fill="#292929"/>
<path d="M636.732 27.6549L621.196 27.6549L633.095 39.5544H648.631L636.732 27.6549Z" fill="#292929"/>
<path d="M642.977 20.7247V8.92035L654.876 20.8199V32.6241L642.977 20.7247Z" fill="#292929"/>
<path d="M621.196 47.3795V38.6215L633.095 50.5209V59.2789L621.196 47.3795Z" fill="#292929"/>
<path d="M621.196 38.6215H636.732L648.631 50.5209H633.095L621.196 38.6215Z" fill="#292929"/>
<path d="M636.732 38.6215V27.6549L648.631 39.5544V50.5209L636.732 38.6215Z" fill="#292929"/>
<path d="M643.891 47.3795L621.196 47.3795L633.095 59.2789H655.79L643.891 47.3795Z" fill="#292929"/>
<path d="M608.097 59.1836L643.891 59.1838L655.79 71.0832H619.996L608.097 59.1836Z" fill="#292929"/>
<path d="M643.891 59.1838V47.3795L655.79 59.2789V71.0832L643.891 59.1838Z" fill="#292929"/>
</g>
<path d="M8.00629 34.0521C7.90475 26.8426 10.5448 20.6739 15.9266 15.546C21.3083 10.3674 27.7308 7.85422 35.1942 8.00653C40.2205 8.00653 44.7391 9.19965 48.75 11.5859C52.7609 13.9214 55.9087 17.2215 58.1934 21.4862L48.2169 28.2642C44.9676 22.7809 40.6013 20.0393 35.118 20.0393C31.1071 20.0393 27.807 21.3339 25.2177 23.9232C22.6791 26.5126 21.4098 29.9142 21.4098 34.1282C21.4098 38.2407 22.6791 41.6169 25.2177 44.257C27.8577 46.7956 31.1579 48.0649 35.118 48.0649C40.6013 48.0649 44.9676 45.3232 48.2169 39.84L58.1934 46.6179C55.9087 50.8826 52.7609 54.2081 48.75 56.5944C44.7391 58.9299 40.1951 60.0976 35.118 60.0976C27.7054 60.1991 21.2829 57.686 15.8504 52.5581C10.4687 47.4302 7.85398 41.2615 8.00629 34.0521Z" fill="url(#paint0_linear_61_8150)"/>
<path d="M110.106 59.1837H95.4839L84.1366 43.5716H78.7295V59.1837H65.6306V8.92041H85.3551C90.9907 8.92041 95.6362 10.5197 99.2918 13.7183C102.947 16.8661 104.775 21.0293 104.775 26.2079C104.775 32.5035 102.135 37.276 96.8548 40.5254L110.106 59.1837ZM78.7295 20.3439V32.1481H85.4313C87.259 32.1481 88.706 31.615 89.7722 30.5489C90.8892 29.4319 91.4476 27.9849 91.4476 26.2079C91.4476 24.431 90.8892 23.0094 89.7722 21.9432C88.706 20.877 87.259 20.3439 85.4313 20.3439H78.7295Z" fill="url(#paint1_linear_61_8150)"/>
<path d="M115.311 59.1837V8.92041H150.19V20.7247H128.41V27.6549H143.946V38.6214H128.41V47.3794H151.104V59.1837H115.311Z" fill="url(#paint2_linear_61_8150)"/>
<path d="M190.184 59.1837L188.356 54.9951H170.307L168.479 59.1837H154.39L177.237 8.00653H181.426L204.273 59.1837H190.184ZM183.711 44.4855L179.37 32.8336L174.953 44.4855H183.711Z" fill="url(#paint3_linear_61_8150)"/>
<path d="M214.553 59.1837V20.7247H199.474V8.92041H242.731V20.7247H227.652V59.1837H214.553Z" fill="url(#paint4_linear_61_8150)"/>
<path d="M248.51 59.1837V8.92041H283.39V20.7247H261.609V27.6549H277.145V38.6214H261.609V47.3794H284.304V59.1837H248.51Z" fill="url(#paint5_linear_61_8150)"/>
<path d="M340.935 59.1837L339.107 54.9951H321.058L319.231 59.1837H305.142L327.989 8.00653H332.177L355.024 59.1837H340.935ZM334.462 44.4855L330.121 32.8336L325.704 44.4855H334.462Z" fill="url(#paint6_linear_61_8150)"/>
<path d="M377.768 59.1837V8.92041H397.493C403.128 8.92041 407.774 10.5197 411.429 13.7183C415.085 16.8661 416.913 21.0293 416.913 26.2079C416.913 31.285 415.059 35.4483 411.353 38.6976C407.647 41.9469 403.027 43.5716 397.493 43.5716H390.867V59.1837H377.768ZM390.867 32.1481H397.569C399.397 32.1481 400.844 31.615 401.91 30.5489C403.027 29.4319 403.585 27.9849 403.585 26.2079C403.585 24.431 403.027 23.0094 401.91 21.9432C400.844 20.877 399.397 20.3439 397.569 20.3439H390.867V32.1481Z" fill="url(#paint7_linear_61_8150)"/>
<path d="M423.723 37.8599V8.92041H436.822V38.8499C436.822 41.6931 437.659 43.9524 439.335 45.6278C441.01 47.2525 443.219 48.0649 445.96 48.0649C448.702 48.0649 450.91 47.2525 452.586 45.6278C454.261 43.9524 455.099 41.6931 455.099 38.8499V8.92041H468.198V37.8599C468.198 44.4093 466.091 49.7657 461.877 53.9289C457.663 58.0414 452.357 60.0976 445.96 60.0976C439.462 60.0976 434.131 58.0667 429.967 54.0051C425.804 49.8926 423.723 44.5109 423.723 37.8599Z" fill="url(#paint8_linear_61_8150)"/>
<path d="M493.711 47.3794H515.873V59.1837H473.834V55.7567L495.843 20.7247H477.109V8.92041H515.796V12.3475L493.711 47.3794Z" fill="url(#paint9_linear_61_8150)"/>
<path d="M538.408 47.3794H560.57V59.1837H518.531V55.7567L540.541 20.7247H521.806V8.92041H560.494V12.3475L538.408 47.3794Z" fill="url(#paint10_linear_61_8150)"/>
<path d="M567.341 59.1837V8.92041H580.44V47.3794H601.231V59.1837H567.341Z" fill="url(#paint11_linear_61_8150)"/>
<path d="M608.097 59.1837V8.92041H642.977V20.7247H621.196V27.6549H636.732V38.6214H621.196V47.3794H643.891V59.1837H608.097Z" fill="url(#paint12_linear_61_8150)"/>
</g>
<defs>
<filter id="filter0_d_61_8150" x="0" y="0" width="687.79" height="104" filterUnits="userSpaceOnUse" color-interpolation-filters="sRGB">
<feFlood flood-opacity="0" result="BackgroundImageFix"/>
<feColorMatrix in="SourceAlpha" type="matrix" values="0 0 0 0 0 0 0 0 0 0 0 0 0 0 0 0 0 0 127 0" result="hardAlpha"/>
<feOffset dx="12" dy="12"/>
<feGaussianBlur stdDeviation="10"/>
<feComposite in2="hardAlpha" operator="out"/>
<feColorMatrix type="matrix" values="0 0 0 0 0 0 0 0 0 0 0 0 0 0 0 0 0 0 0.65 0"/>
<feBlend mode="normal" in2="BackgroundImageFix" result="effect1_dropShadow_61_8150"/>
<feBlend mode="normal" in="SourceGraphic" in2="effect1_dropShadow_61_8150" result="shape"/>
</filter>
<linearGradient id="paint0_linear_61_8150" x1="643.891" y1="-22.4738" x2="12.3876" y2="107.051" gradientUnits="userSpaceOnUse">
<stop stop-color="#A0A0A0"/>
<stop offset="0.52723" stop-color="#ECECEC"/>
<stop offset="1" stop-color="#A0A0A0"/>
</linearGradient>
<linearGradient id="paint1_linear_61_8150" x1="643.891" y1="-22.4738" x2="12.3876" y2="107.051" gradientUnits="userSpaceOnUse">
<stop stop-color="#A0A0A0"/>
<stop offset="0.52723" stop-color="#ECECEC"/>
<stop offset="1" stop-color="#A0A0A0"/>
</linearGradient>
<linearGradient id="paint2_linear_61_8150" x1="643.891" y1="-22.4738" x2="12.3876" y2="107.051" gradientUnits="userSpaceOnUse">
<stop stop-color="#A0A0A0"/>
<stop offset="0.52723" stop-color="#ECECEC"/>
<stop offset="1" stop-color="#A0A0A0"/>
</linearGradient>
<linearGradient id="paint3_linear_61_8150" x1="643.891" y1="-22.4738" x2="12.3876" y2="107.051" gradientUnits="userSpaceOnUse">
<stop stop-color="#A0A0A0"/>
<stop offset="0.52723" stop-color="#ECECEC"/>
<stop offset="1" stop-color="#A0A0A0"/>
</linearGradient>
<linearGradient id="paint4_linear_61_8150" x1="643.891" y1="-22.4738" x2="12.3876" y2="107.051" gradientUnits="userSpaceOnUse">
<stop stop-color="#A0A0A0"/>
<stop offset="0.52723" stop-color="#ECECEC"/>
<stop offset="1" stop-color="#A0A0A0"/>
</linearGradient>
<linearGradient id="paint5_linear_61_8150" x1="643.891" y1="-22.4738" x2="12.3876" y2="107.051" gradientUnits="userSpaceOnUse">
<stop stop-color="#A0A0A0"/>
<stop offset="0.52723" stop-color="#ECECEC"/>
<stop offset="1" stop-color="#A0A0A0"/>
</linearGradient>
<linearGradient id="paint6_linear_61_8150" x1="643.891" y1="-22.4738" x2="12.3876" y2="107.051" gradientUnits="userSpaceOnUse">
<stop stop-color="#A0A0A0"/>
<stop offset="0.52723" stop-color="#ECECEC"/>
<stop offset="1" stop-color="#A0A0A0"/>
</linearGradient>
<linearGradient id="paint7_linear_61_8150" x1="643.891" y1="-22.4738" x2="12.3876" y2="107.051" gradientUnits="userSpaceOnUse">
<stop stop-color="#A0A0A0"/>
<stop offset="0.52723" stop-color="#ECECEC"/>
<stop offset="1" stop-color="#A0A0A0"/>
</linearGradient>
<linearGradient id="paint8_linear_61_8150" x1="643.891" y1="-22.4738" x2="12.3876" y2="107.051" gradientUnits="userSpaceOnUse">
<stop stop-color="#A0A0A0"/>
<stop offset="0.52723" stop-color="#ECECEC"/>
<stop offset="1" stop-color="#A0A0A0"/>
</linearGradient>
<linearGradient id="paint9_linear_61_8150" x1="643.891" y1="-22.4738" x2="12.3876" y2="107.051" gradientUnits="userSpaceOnUse">
<stop stop-color="#A0A0A0"/>
<stop offset="0.52723" stop-color="#ECECEC"/>
<stop offset="1" stop-color="#A0A0A0"/>
</linearGradient>
<linearGradient id="paint10_linear_61_8150" x1="643.891" y1="-22.4738" x2="12.3876" y2="107.051" gradientUnits="userSpaceOnUse">
<stop stop-color="#A0A0A0"/>
<stop offset="0.52723" stop-color="#ECECEC"/>
<stop offset="1" stop-color="#A0A0A0"/>
</linearGradient>
<linearGradient id="paint11_linear_61_8150" x1="643.891" y1="-22.4738" x2="12.3876" y2="107.051" gradientUnits="userSpaceOnUse">
<stop stop-color="#A0A0A0"/>
<stop offset="0.52723" stop-color="#ECECEC"/>
<stop offset="1" stop-color="#A0A0A0"/>
</linearGradient>
<linearGradient id="paint12_linear_61_8150" x1="643.891" y1="-22.4738" x2="12.3876" y2="107.051" gradientUnits="userSpaceOnUse">
<stop stop-color="#A0A0A0"/>
<stop offset="0.52723" stop-color="#ECECEC"/>
<stop offset="1" stop-color="#A0A0A0"/>
</linearGradient>
</defs>
</svg>
