<svg width="880" height="104" viewBox="0 0 880 104" fill="none" xmlns="http://www.w3.org/2000/svg">
<g style="mix-blend-mode:multiply" filter="url(#filter0_d_65_10558)">
<path d="M19.8995 71.0832V20.8199H37.4155C45.2342 20.7183 51.7836 23.003 57.0638 27.6739C62.344 32.3449 64.9333 38.3866 64.8318 45.7992C64.9333 53.161 62.3186 59.2535 56.9877 64.0768C51.7075 68.8492 45.1834 71.1847 37.4155 71.0832H19.8995ZM32.9984 59.2789H37.3393C41.5025 59.2789 44.8788 58.0604 47.4681 55.6234C50.1082 53.1864 51.4283 49.9116 51.4283 45.7992C51.4283 41.636 50.1336 38.412 47.5443 36.1273C45.0057 33.8426 41.6041 32.7003 37.3393 32.7003H32.9984V59.2789Z" fill="#292929"/>
<path d="M69.7421 45.9515C69.5898 38.7928 72.2045 32.6241 77.5862 27.4455C83.0187 22.2668 89.4159 19.7537 96.7777 19.906C104.139 19.7537 110.537 22.2668 115.969 27.4455C121.452 32.6241 124.118 38.7928 123.966 45.9515C124.118 53.161 121.452 59.3297 115.969 64.4575C110.537 69.5854 104.139 72.0986 96.7777 71.997C89.3651 72.0986 82.968 69.5854 77.5862 64.4575C72.2045 59.3297 69.5898 53.161 69.7421 45.9515ZM110.562 45.9515C110.562 41.8391 109.242 38.4882 106.602 35.8989C104.013 33.2588 100.763 31.9387 96.8538 31.9387C92.7921 31.9387 89.492 33.2334 86.9535 35.8227C84.4149 38.412 83.1457 41.7883 83.1457 45.9515C83.1457 50.1147 84.4149 53.5164 86.9535 56.1565C89.492 58.695 92.7921 59.9643 96.8538 59.9643C100.814 59.9643 104.089 58.6697 106.678 56.0803C109.267 53.491 110.562 50.1147 110.562 45.9515Z" fill="#292929"/>
<path d="M186.706 20.8199H201.328L180.613 71.997H176.425L163.631 45.723L150.76 71.997H146.572L125.857 20.8199H140.479L149.922 44.9615L161.498 19.906H165.687L177.263 44.9615L186.706 20.8199Z" fill="#292929"/>
<path d="M238.694 20.8199H251.793V71.997H247.604C247.604 71.997 245.922 70.3664 243.393 67.9152C238.271 62.9499 229.674 54.6178 224.552 49.6526C222.023 47.2014 220.34 45.5707 220.34 45.5707V71.0832H207.241V19.906H211.43C211.43 19.906 211.936 20.3897 212.811 21.2253C214.272 22.6205 216.759 24.9966 219.631 27.74C223.068 31.0237 227.056 34.8337 230.494 38.1175C233.365 40.8609 235.853 43.237 237.313 44.6322C238.188 45.4678 238.694 45.9515 238.694 45.9515V20.8199Z" fill="#292929"/>
<path d="M261.83 71.0832V20.8199H274.929V59.2789H295.72V71.0832H261.83Z" fill="#292929"/>
<path d="M298.881 45.9515C298.729 38.7928 301.343 32.6241 306.725 27.4455C312.158 22.2668 318.555 19.7537 325.917 19.906C333.278 19.7537 339.675 22.2668 345.108 27.4455C350.591 32.6241 353.257 38.7928 353.104 45.9515C353.257 53.161 350.591 59.3297 345.108 64.4575C339.675 69.5854 333.278 72.0986 325.917 71.997C318.504 72.0986 312.107 69.5854 306.725 64.4575C301.343 59.3297 298.729 53.161 298.881 45.9515ZM339.701 45.9515C339.701 41.8391 338.381 38.4882 335.741 35.8989C333.151 33.2588 329.902 31.9387 325.993 31.9387C321.931 31.9387 318.631 33.2334 316.092 35.8227C313.554 38.412 312.285 41.7883 312.285 45.9515C312.285 50.1147 313.554 53.5164 316.092 56.1565C318.631 58.695 321.931 59.9643 325.993 59.9643C329.953 59.9643 333.228 58.6697 335.817 56.0803C338.406 53.491 339.701 50.1147 339.701 45.9515Z" fill="#292929"/>
<path d="M390.4 71.0832L388.572 66.8946H370.523L368.695 71.0832H354.606L377.453 19.906H381.642L404.489 71.0832H390.4ZM383.926 56.385L379.585 44.733L375.168 56.385H383.926Z" fill="#292929"/>
<path d="M409.681 71.0832V20.8199H427.197C435.016 20.7183 441.565 23.003 446.845 27.6739C452.126 32.3449 454.715 38.3866 454.613 45.7992C454.715 53.161 452.1 59.2535 446.769 64.0768C441.489 68.8492 434.965 71.1847 427.197 71.0832H409.681ZM422.78 59.2789H427.121C431.284 59.2789 434.66 58.0604 437.25 55.6234C439.89 53.1864 441.21 49.9116 441.21 45.7992C441.21 41.636 439.915 38.412 437.326 36.1273C434.787 33.8426 431.386 32.7003 427.121 32.7003H422.78V59.2789Z" fill="#292929"/>
<path d="M480.868 45.9515C480.716 38.7928 483.331 32.6241 488.712 27.4455C494.145 22.2668 500.542 19.7537 507.904 19.906C515.266 19.7537 521.663 22.2668 527.095 27.4455C532.579 32.6241 535.244 38.7928 535.092 45.9515C535.244 53.161 532.579 59.3297 527.095 64.4575C521.663 69.5854 515.266 72.0986 507.904 71.997C500.491 72.0986 494.094 69.5854 488.712 64.4575C483.331 59.3297 480.716 53.161 480.868 45.9515ZM521.688 45.9515C521.688 41.8391 520.368 38.4882 517.728 35.8989C515.139 33.2588 511.889 31.9387 507.98 31.9387C503.918 31.9387 500.618 33.2334 498.08 35.8227C495.541 38.412 494.272 41.7883 494.272 45.9515C494.272 50.1147 495.541 53.5164 498.08 56.1565C500.618 58.695 503.918 59.9643 507.98 59.9643C511.94 59.9643 515.215 58.6697 517.804 56.0803C520.393 53.491 521.688 50.1147 521.688 45.9515Z" fill="#292929"/>
<path d="M542.278 49.7593V20.8199H555.377V50.7494C555.377 53.5925 556.215 55.8519 557.89 57.5273C559.566 59.152 561.774 59.9643 564.516 59.9643C567.258 59.9643 569.466 59.152 571.142 57.5273C572.817 55.8519 573.655 53.5925 573.655 50.7494V20.8199H586.754V49.7593C586.754 56.3088 584.647 61.6651 580.433 65.8284C576.219 69.9408 570.913 71.997 564.516 71.997C558.017 71.997 552.686 69.9662 548.523 65.9045C544.36 61.7921 542.278 56.4103 542.278 49.7593Z" fill="#292929"/>
<path d="M640.978 71.0832H626.356L615.008 55.4711H609.601V71.0832H596.502V20.8199H616.227C621.862 20.8199 626.508 22.4191 630.164 25.6177C633.819 28.7655 635.647 32.9287 635.647 38.1074C635.647 44.403 633.007 49.1755 627.727 52.4248L640.978 71.0832ZM609.601 32.2433V44.0476H616.303C618.131 44.0476 619.578 43.5145 620.644 42.4483C621.761 41.3313 622.32 39.8844 622.32 38.1074C622.32 36.3304 621.761 34.9088 620.644 33.8426C619.578 32.7764 618.131 32.2433 616.303 32.2433H609.601Z" fill="#292929"/>
<path d="M667.527 71.0832V20.8199H685.043C692.862 20.7183 699.411 23.003 704.692 27.6739C709.972 32.3449 712.561 38.3866 712.46 45.7992C712.561 53.161 709.946 59.2535 704.616 64.0768C699.335 68.8492 692.811 71.1847 685.043 71.0832H667.527ZM680.626 59.2789H684.967C689.13 59.2789 692.507 58.0604 695.096 55.6234C697.736 53.1864 699.056 49.9116 699.056 45.7992C699.056 41.636 697.761 38.412 695.172 36.1273C692.634 33.8426 689.232 32.7003 684.967 32.7003H680.626V59.2789Z" fill="#292929"/>
<path d="M749.763 71.0832L747.935 66.8946H729.886L728.059 71.0832H713.97L736.817 19.906H741.005L763.852 71.0832H749.763ZM743.29 56.385L738.949 44.733L734.532 56.385H743.29Z" fill="#292929"/>
<path d="M774.132 71.0832V32.6241H759.053V20.8199H802.31V32.6241H787.231V71.0832H774.132Z" fill="#292929"/>
<path d="M833.283 71.0832L831.455 66.8946H813.406L811.578 71.0832H797.489L820.336 19.906H824.525L847.371 71.0832H833.283ZM826.809 56.385L822.468 44.733L818.051 56.385H826.809Z" fill="#292929"/>
<path d="M25.516 8.92035H8L19.8995 20.8199H37.4155L25.516 8.92035Z" fill="#292929"/>
<path d="M8 8.92035V59.1836L19.8995 71.0832V20.8199L8 8.92035Z" fill="#292929"/>
<path d="M21.0989 20.8006H25.4398L37.3393 32.7003H32.9984L21.0989 20.8006Z" fill="#292929"/>
<path d="M45.1644 15.7748C39.8842 11.1038 33.3347 8.81881 25.516 8.92035L37.4155 20.8199C45.2342 20.7183 51.7836 23.003 57.0638 27.6739L45.1644 15.7748Z" fill="#292929"/>
<path d="M25.4398 20.8006C29.7046 20.8006 33.1063 21.943 35.6448 24.2277L47.5443 36.1273C45.0057 33.8426 41.6041 32.7003 37.3393 32.7003L25.4398 20.8006Z" fill="#292929"/>
<path d="M21.0989 47.3793V20.8006L32.9984 32.7003V59.2789L21.0989 47.3793Z" fill="#292929"/>
<path d="M39.5288 33.9C39.5288 30.3045 38.5631 27.4095 36.6319 25.2152L35.6448 24.2277C35.9979 24.5392 36.3269 24.8687 36.6319 25.2152L47.5443 36.1273C50.1336 38.412 51.4283 41.636 51.4283 45.7992L39.5288 33.9Z" fill="#292929"/>
<path d="M25.4398 47.3792L21.0989 47.3793L32.9984 59.2789H37.3393L25.4398 47.3792Z" fill="#292929"/>
<path d="M45.1644 15.7748C45.9564 16.4754 46.6879 17.2069 47.3588 17.9692L57.0638 27.6739C62.344 32.3449 64.9333 38.3866 64.8318 45.7992L52.9323 33.9C53.0186 27.5993 51.1608 22.289 47.3588 17.9692L45.1644 15.7748Z" fill="#292929"/>
<path d="M8 59.1836L25.516 59.1839L37.4155 71.0832H19.8995L8 59.1836Z" fill="#292929"/>
<path d="M35.5687 43.7239C32.9793 46.1609 29.6031 47.3792 25.4398 47.3792L37.3393 59.2789C41.5025 59.2789 44.8788 58.0604 47.4681 55.6234L35.5687 43.7239Z" fill="#292929"/>
<path d="M39.5288 33.9C39.5288 38.0124 38.2088 41.2869 35.5687 43.7239L47.4681 55.6234C50.1082 53.1864 51.4283 49.9116 51.4283 45.7992L39.5288 33.9Z" fill="#292929"/>
<path d="M65.6868 15.5458C60.3051 20.7245 57.6903 26.8931 57.8427 34.0518L69.7421 45.9515C69.5898 38.7928 72.2045 32.6241 77.5862 27.4455L65.6868 15.5458Z" fill="#292929"/>
<path d="M84.8782 8.00653C77.5164 7.85422 71.1193 10.3672 65.6868 15.5458L77.5862 27.4455C83.0187 22.2668 89.4159 19.7537 96.7777 19.906L84.8782 8.00653Z" fill="#292929"/>
<path d="M25.516 59.1839C33.284 59.2855 39.808 56.9498 45.0882 52.1773L56.9877 64.0768C51.7075 68.8492 45.1834 71.1847 37.4155 71.0832L25.516 59.1839Z" fill="#292929"/>
<path d="M45.0882 52.1773C50.4192 47.3541 53.0339 41.2618 52.9323 33.9L64.8318 45.7992C64.9333 53.161 62.3186 59.2535 56.9877 64.0768L45.0882 52.1773Z" fill="#292929"/>
<path d="M75.054 23.9235C77.5926 21.3341 80.8927 20.0395 84.9544 20.0395L96.8538 31.9387C92.7921 31.9387 89.492 33.2334 86.9535 35.8227L75.054 23.9235Z" fill="#292929"/>
<path d="M71.2462 34.0519C71.2462 29.8887 72.5155 26.5128 75.054 23.9235L86.9535 35.8227C84.4149 38.412 83.1457 41.7883 83.1457 45.9515L71.2462 34.0519Z" fill="#292929"/>
<path d="M65.6868 52.5582C60.3051 47.4303 57.6903 41.2613 57.8427 34.0518L69.7421 45.9515C69.5999 52.6804 71.8682 58.5026 76.5468 63.4182L77.5862 64.4575C77.2274 64.1157 76.881 63.7693 76.5468 63.4182L65.6868 52.5582Z" fill="#292929"/>
<path d="M104.07 15.546C98.6372 10.3674 92.24 7.85422 84.8782 8.00653L96.7777 19.906C104.139 19.7537 110.537 22.2668 115.969 27.4455L104.07 15.546Z" fill="#292929"/>
<path d="M84.9544 20.0395C88.8637 20.0395 92.1131 21.3595 94.7024 23.9996L106.401 35.6986C106.469 35.7646 106.535 35.8312 106.602 35.8989L106.401 35.6986C103.845 33.1922 100.663 31.9387 96.8538 31.9387L84.9544 20.0395Z" fill="#292929"/>
<path d="M75.054 44.2571C72.5155 41.617 71.2462 38.2151 71.2462 34.0519L83.1457 45.9515C83.1457 50.1147 84.4149 53.5164 86.9535 56.1565L75.054 44.2571Z" fill="#292929"/>
<path d="M98.6625 34.0518C98.6625 30.0397 97.4061 26.7524 94.8932 24.19L94.7024 23.9996C94.7668 24.0628 94.8304 24.1259 94.8932 24.19L106.602 35.8989C109.242 38.4882 110.562 41.8391 110.562 45.9515L98.6625 34.0518Z" fill="#292929"/>
<path d="M84.9544 48.0651C80.8927 48.0651 77.5926 46.7957 75.054 44.2571L86.9535 56.1565C89.492 58.695 92.7921 59.9643 96.8538 59.9643L84.9544 48.0651Z" fill="#292929"/>
<path d="M128.58 8.92035H113.958L125.857 20.8199H140.479L128.58 8.92035Z" fill="#292929"/>
<path d="M65.6868 52.5582C71.0685 57.686 77.4656 60.1989 84.8782 60.0974L96.7777 71.997C89.3651 72.0986 82.968 69.5854 77.5862 64.4575L65.6868 52.5582Z" fill="#292929"/>
<path d="M104.07 15.546C104.508 15.9603 104.929 16.3807 105.332 16.8077L115.969 27.4455C121.452 32.6241 124.118 38.7928 123.966 45.9515L112.066 34.0518C112.206 27.4658 109.961 21.7178 105.332 16.8077L104.07 15.546Z" fill="#292929"/>
<path d="M98.6625 34.0518C98.6625 38.2151 97.3679 41.5916 94.7786 44.181L106.678 56.0803C109.267 53.491 110.562 50.1147 110.562 45.9515L98.6625 34.0518Z" fill="#292929"/>
<path d="M94.7786 44.181C92.1892 46.7703 88.9145 48.0651 84.9544 48.0651L96.8538 59.9643C100.814 59.9643 104.089 58.6697 106.678 56.0803L94.7786 44.181Z" fill="#292929"/>
<path d="M84.8782 60.0974C92.24 60.1989 98.6372 57.6858 104.07 52.5579L115.969 64.4575C110.537 69.5854 104.139 72.0986 96.7777 71.997L84.8782 60.0974Z" fill="#292929"/>
<path d="M104.07 52.5579C109.553 47.43 112.218 41.2613 112.066 34.0518L123.966 45.9515C124.118 53.161 121.452 59.3297 115.969 64.4575L104.07 52.5579Z" fill="#292929"/>
<path d="M138.023 33.062L128.58 8.92035L140.479 20.8199L149.922 44.9615L138.023 33.062Z" fill="#292929"/>
<path d="M113.958 8.92035L134.672 60.0975L146.572 71.997L125.857 20.8199L113.958 8.92035Z" fill="#292929"/>
<path d="M153.787 8.00639H149.599L161.498 19.906H165.687L153.787 8.00639Z" fill="#292929"/>
<path d="M149.599 8.00639L138.023 33.062L149.922 44.9615L161.498 19.906L149.599 8.00639Z" fill="#292929"/>
<path d="M165.363 33.0619L153.787 8.00639L165.687 19.906L177.263 44.9615L165.363 33.0619Z" fill="#292929"/>
<path d="M189.429 8.92035H174.807L186.706 20.8199H201.328L189.429 8.92035Z" fill="#292929"/>
<path d="M174.807 8.92035L165.363 33.0619L177.263 44.9615L186.706 20.8199L174.807 8.92035Z" fill="#292929"/>
<path d="M138.861 60.0978L151.731 33.8238L163.631 45.723L150.76 71.997L138.861 60.0978Z" fill="#292929"/>
<path d="M134.672 60.0975L138.861 60.0978L150.76 71.997H146.572L134.672 60.0975Z" fill="#292929"/>
<path d="M151.731 33.8238L164.525 60.0978L176.425 71.997L163.631 45.723L151.731 33.8238Z" fill="#292929"/>
<path d="M199.531 8.00639H195.342L207.241 19.906H211.43L199.531 8.00639Z" fill="#292929"/>
<path d="M200.912 9.32573L199.531 8.00639L211.43 19.906L212.811 21.2253L200.912 9.32573Z" fill="#292929"/>
<path d="M168.714 60.0975L189.429 8.92035L201.328 20.8199L180.613 71.997L168.714 60.0975Z" fill="#292929"/>
<path d="M207.731 15.8405L200.912 9.32573L212.811 21.2253L219.631 27.74L207.731 15.8405Z" fill="#292929"/>
<path d="M164.525 60.0978L168.714 60.0975L180.613 71.997H176.425L164.525 60.0978Z" fill="#292929"/>
<path d="M195.342 8.00639V59.1836L207.241 71.0832V19.906L195.342 8.00639Z" fill="#292929"/>
<path d="M218.594 26.218L207.731 15.8405L219.631 27.74L230.494 38.1175L218.594 26.218Z" fill="#292929"/>
<path d="M239.894 8.92035H226.795L238.694 20.8199H251.793L239.894 8.92035Z" fill="#292929"/>
<path d="M208.441 33.6716L212.652 37.7534L224.552 49.6526L220.34 45.5707L208.441 33.6716Z" fill="#292929"/>
<path d="M226.795 8.92035V34.052L238.694 45.9515V20.8199L226.795 8.92035Z" fill="#292929"/>
<path d="M225.414 32.7328L218.594 26.218L230.494 38.1175L237.313 44.6322L225.414 32.7328Z" fill="#292929"/>
<path d="M208.441 59.184V33.6716L220.34 45.5707V71.0832L208.441 59.184Z" fill="#292929"/>
<path d="M226.795 34.052L225.414 32.7328L237.313 44.6322L238.694 45.9515L226.795 34.052Z" fill="#292929"/>
<path d="M195.342 59.1836L208.441 59.184L220.34 71.0832H207.241L195.342 59.1836Z" fill="#292929"/>
<path d="M263.03 8.92035H249.931L261.83 20.8199H274.929L263.03 8.92035Z" fill="#292929"/>
<path d="M212.652 37.7534L231.494 56.0159L243.393 67.9152L224.552 49.6526L212.652 37.7534Z" fill="#292929"/>
<path d="M239.894 60.0975V8.92035L251.793 20.8199V71.997L239.894 60.0975Z" fill="#292929"/>
<path d="M249.931 8.92035V59.1836L261.83 71.0832V20.8199L249.931 8.92035Z" fill="#292929"/>
<path d="M263.03 47.3794V8.92035L274.929 20.8199V59.2789L263.03 47.3794Z" fill="#292929"/>
<path d="M231.494 56.0159L235.705 60.0974L247.604 71.997L243.393 67.9152L231.494 56.0159Z" fill="#292929"/>
<path d="M235.705 60.0974L239.894 60.0975L251.793 71.997H247.604L235.705 60.0974Z" fill="#292929"/>
<path d="M294.826 15.5458C289.444 20.7245 286.829 26.8931 286.982 34.0518L298.881 45.9515C298.729 38.7928 301.343 32.6241 306.725 27.4455L294.826 15.5458Z" fill="#292929"/>
<path d="M314.017 8.00653C306.655 7.85422 300.258 10.3672 294.826 15.5458L306.725 27.4455C312.158 22.2668 318.555 19.7537 325.917 19.906L314.017 8.00653Z" fill="#292929"/>
<path d="M283.82 47.3792L263.03 47.3794L274.929 59.2789H295.72L283.82 47.3792Z" fill="#292929"/>
<path d="M249.931 59.1836L283.82 59.1839L295.72 71.0832H261.83L249.931 59.1836Z" fill="#292929"/>
<path d="M304.193 23.9235C306.731 21.3341 310.032 20.0395 314.093 20.0395L325.993 31.9387C321.931 31.9387 318.631 33.2334 316.092 35.8227L304.193 23.9235Z" fill="#292929"/>
<path d="M300.385 34.0519C300.385 29.8887 301.654 26.5128 304.193 23.9235L316.092 35.8227C313.554 38.412 312.285 41.7883 312.285 45.9515L300.385 34.0519Z" fill="#292929"/>
<path d="M294.826 52.5582C289.444 47.4303 286.829 41.2613 286.982 34.0518L298.881 45.9515C298.739 52.6804 301.007 58.5026 305.686 63.4182L306.725 64.4575C306.366 64.1157 306.02 63.7693 305.686 63.4182L294.826 52.5582Z" fill="#292929"/>
<path d="M333.209 15.546C327.776 10.3674 321.379 7.85422 314.017 8.00653L325.917 19.906C333.278 19.7537 339.675 22.2668 345.108 27.4455L333.209 15.546Z" fill="#292929"/>
<path d="M283.82 59.1839V47.3792L295.72 59.2789V71.0832L283.82 59.1839Z" fill="#292929"/>
<path d="M314.093 20.0395C318.003 20.0395 321.252 21.3595 323.841 23.9996L335.54 35.6986C335.607 35.7646 335.674 35.8312 335.741 35.8989L335.54 35.6986C332.984 33.1922 329.802 31.9387 325.993 31.9387L314.093 20.0395Z" fill="#292929"/>
<path d="M304.193 44.2571C301.654 41.617 300.385 38.2151 300.385 34.0519L312.285 45.9515C312.285 50.1147 313.554 53.5164 316.092 56.1565L304.193 44.2571Z" fill="#292929"/>
<path d="M327.801 34.0518C327.801 30.0397 326.545 26.7524 324.032 24.19L323.841 23.9996C323.906 24.0628 323.969 24.1259 324.032 24.19L335.741 35.8989C338.381 38.4882 339.701 41.8391 339.701 45.9515L327.801 34.0518Z" fill="#292929"/>
<path d="M314.093 48.0651C310.032 48.0651 306.731 46.7957 304.193 44.2571L316.092 56.1565C318.631 58.695 321.931 59.9643 325.993 59.9643L314.093 48.0651Z" fill="#292929"/>
<path d="M294.826 52.5582C300.207 57.686 306.605 60.1989 314.017 60.0974L325.917 71.997C318.504 72.0986 312.107 69.5854 306.725 64.4575L294.826 52.5582Z" fill="#292929"/>
<path d="M333.209 15.546C333.647 15.9603 334.068 16.3807 334.47 16.8077L345.108 27.4455C350.591 32.6241 353.257 38.7928 353.104 45.9515L341.205 34.0518C341.345 27.4658 339.1 21.7178 334.47 16.8077L333.209 15.546Z" fill="#292929"/>
<path d="M327.801 34.0518C327.801 38.2151 326.507 41.5916 323.917 44.181L335.817 56.0803C338.406 53.491 339.701 50.1147 339.701 45.9515L327.801 34.0518Z" fill="#292929"/>
<path d="M323.917 44.181C321.328 46.7703 318.053 48.0651 314.093 48.0651L325.993 59.9643C329.953 59.9643 333.228 58.6697 335.817 56.0803L323.917 44.181Z" fill="#292929"/>
<path d="M369.742 8.00639H365.554L377.453 19.906H381.642L369.742 8.00639Z" fill="#292929"/>
<path d="M314.017 60.0974C321.379 60.1989 327.776 57.6858 333.209 52.5579L345.108 64.4575C339.675 69.5854 333.278 72.0986 325.917 71.997L314.017 60.0974Z" fill="#292929"/>
<path d="M333.209 52.5579C338.692 47.43 341.357 41.2613 341.205 34.0518L353.104 45.9515C353.257 53.161 350.591 59.3297 345.108 64.4575L333.209 52.5579Z" fill="#292929"/>
<path d="M365.554 8.00639L342.707 59.1836L354.606 71.0832L377.453 19.906L365.554 8.00639Z" fill="#292929"/>
<path d="M363.269 44.4857L367.686 32.8337L379.585 44.733L375.168 56.385L363.269 44.4857Z" fill="#292929"/>
<path d="M367.686 32.8337L372.027 44.4857L383.926 56.385L379.585 44.733L367.686 32.8337Z" fill="#292929"/>
<path d="M342.707 59.1836L356.796 59.1839L368.695 71.0832H354.606L342.707 59.1836Z" fill="#292929"/>
<path d="M372.027 44.4857H363.269L375.168 56.385H383.926L372.027 44.4857Z" fill="#292929"/>
<path d="M392.589 59.1836L369.742 8.00639L381.642 19.906L404.489 71.0832L392.589 59.1836Z" fill="#292929"/>
<path d="M356.796 59.1839L358.623 54.9953L370.523 66.8946L368.695 71.0832L356.796 59.1839Z" fill="#292929"/>
<path d="M415.298 8.92035H397.782L409.681 20.8199H427.197L415.298 8.92035Z" fill="#292929"/>
<path d="M358.623 54.9953H376.672L388.572 66.8946H370.523L358.623 54.9953Z" fill="#292929"/>
<path d="M397.782 8.92035V59.1836L409.681 71.0832V20.8199L397.782 8.92035Z" fill="#292929"/>
<path d="M410.88 20.8006H415.221L427.121 32.7003H422.78L410.88 20.8006Z" fill="#292929"/>
<path d="M376.672 54.9953L378.5 59.1839L390.4 71.0832L388.572 66.8946L376.672 54.9953Z" fill="#292929"/>
<path d="M434.946 15.7748C429.666 11.1038 423.116 8.81881 415.298 8.92035L427.197 20.8199C435.016 20.7183 441.565 23.003 446.845 27.6739L434.946 15.7748Z" fill="#292929"/>
<path d="M415.221 20.8006C419.486 20.8006 422.888 21.943 425.426 24.2277L437.326 36.1273C434.787 33.8426 431.386 32.7003 427.121 32.7003L415.221 20.8006Z" fill="#292929"/>
<path d="M378.5 59.1839L392.589 59.1836L404.489 71.0832H390.4L378.5 59.1839Z" fill="#292929"/>
<path d="M410.88 47.3793V20.8006L422.78 32.7003V59.2789L410.88 47.3793Z" fill="#292929"/>
<path d="M429.31 33.9C429.31 30.3045 428.345 27.4095 426.413 25.2152L425.426 24.2277C425.779 24.5392 426.108 24.8687 426.413 25.2152L437.326 36.1273C439.915 38.412 441.21 41.636 441.21 45.7992L429.31 33.9Z" fill="#292929"/>
<path d="M415.221 47.3792L410.88 47.3793L422.78 59.2789H427.121L415.221 47.3792Z" fill="#292929"/>
<path d="M434.946 15.7748C435.738 16.4754 436.469 17.2069 437.14 17.9692L446.845 27.6739C452.126 32.3449 454.715 38.3866 454.613 45.7992L442.714 33.9C442.8 27.5993 440.942 22.289 437.14 17.9692L434.946 15.7748Z" fill="#292929"/>
<path d="M397.782 59.1836L415.298 59.1839L427.197 71.0832H409.681L397.782 59.1836Z" fill="#292929"/>
<path d="M425.35 43.7239C422.761 46.1609 419.385 47.3792 415.221 47.3792L427.121 59.2789C431.284 59.2789 434.66 58.0604 437.25 55.6234L425.35 43.7239Z" fill="#292929"/>
<path d="M429.31 33.9C429.31 38.0124 427.99 41.2869 425.35 43.7239L437.25 55.6234C439.89 53.1864 441.21 49.9116 441.21 45.7992L429.31 33.9Z" fill="#292929"/>
<path d="M415.298 59.1839C423.065 59.2855 429.59 56.9498 434.87 52.1773L446.769 64.0768C441.489 68.8492 434.965 71.1847 427.197 71.0832L415.298 59.1839Z" fill="#292929"/>
<path d="M434.87 52.1773C440.201 47.3541 442.815 41.2618 442.714 33.9L454.613 45.7992C454.715 53.161 452.1 59.2535 446.769 64.0768L434.87 52.1773Z" fill="#292929"/>
<path d="M476.813 15.5458C471.431 20.7245 468.816 26.8931 468.969 34.0518L480.868 45.9515C480.716 38.7928 483.331 32.6241 488.712 27.4455L476.813 15.5458Z" fill="#292929"/>
<path d="M496.004 8.00653C488.643 7.85422 482.245 10.3672 476.813 15.5458L488.712 27.4455C494.145 22.2668 500.542 19.7537 507.904 19.906L496.004 8.00653Z" fill="#292929"/>
<path d="M486.18 23.9235C488.719 21.3341 492.019 20.0395 496.081 20.0395L507.98 31.9387C503.918 31.9387 500.618 33.2334 498.08 35.8227L486.18 23.9235Z" fill="#292929"/>
<path d="M482.372 34.0519C482.372 29.8887 483.642 26.5128 486.18 23.9235L498.08 35.8227C495.541 38.412 494.272 41.7883 494.272 45.9515L482.372 34.0519Z" fill="#292929"/>
<path d="M476.813 52.5582C471.431 47.4303 468.816 41.2613 468.969 34.0518L480.868 45.9515C480.726 52.6804 482.994 58.5026 487.673 63.4182L488.712 64.4575C488.354 64.1157 488.007 63.7693 487.673 63.4182L476.813 52.5582Z" fill="#292929"/>
<path d="M515.196 15.546C509.763 10.3674 503.366 7.85422 496.004 8.00653L507.904 19.906C515.266 19.7537 521.663 22.2668 527.095 27.4455L515.196 15.546Z" fill="#292929"/>
<path d="M496.081 20.0395C499.99 20.0395 503.239 21.3595 505.829 23.9996L517.527 35.6986C517.595 35.7646 517.662 35.8312 517.728 35.8989L517.527 35.6986C514.972 33.1922 511.789 31.9387 507.98 31.9387L496.081 20.0395Z" fill="#292929"/>
<path d="M486.18 44.2571C483.642 41.617 482.372 38.2151 482.372 34.0519L494.272 45.9515C494.272 50.1147 495.541 53.5164 498.08 56.1565L486.18 44.2571Z" fill="#292929"/>
<path d="M509.789 34.0518C509.789 30.0397 508.532 26.7524 506.019 24.19L505.829 23.9996C505.893 24.0628 505.957 24.1259 506.019 24.19L517.728 35.8989C520.368 38.4882 521.688 41.8391 521.688 45.9515L509.789 34.0518Z" fill="#292929"/>
<path d="M496.081 48.0651C492.019 48.0651 488.719 46.7957 486.18 44.2571L498.08 56.1565C500.618 58.695 503.918 59.9643 507.98 59.9643L496.081 48.0651Z" fill="#292929"/>
<path d="M476.813 52.5582C482.195 57.686 488.592 60.1989 496.004 60.0974L507.904 71.997C500.491 72.0986 494.094 69.5854 488.712 64.4575L476.813 52.5582Z" fill="#292929"/>
<path d="M515.196 15.546C515.634 15.9603 516.055 16.3807 516.458 16.8077L527.095 27.4455C532.579 32.6241 535.244 38.7928 535.092 45.9515L523.192 34.0518C523.332 27.4658 521.088 21.7178 516.458 16.8077L515.196 15.546Z" fill="#292929"/>
<path d="M543.478 8.92035H530.379L542.278 20.8199H555.377L543.478 8.92035Z" fill="#292929"/>
<path d="M509.789 34.0518C509.789 38.2151 508.494 41.5916 505.905 44.181L517.804 56.0803C520.393 53.491 521.688 50.1147 521.688 45.9515L509.789 34.0518Z" fill="#292929"/>
<path d="M505.905 44.181C503.315 46.7703 500.041 48.0651 496.081 48.0651L507.98 59.9643C511.94 59.9643 515.215 58.6697 517.804 56.0803L505.905 44.181Z" fill="#292929"/>
<path d="M530.379 8.92035V37.8598L542.278 49.7593V20.8199L530.379 8.92035Z" fill="#292929"/>
<path d="M496.004 60.0974C503.366 60.1989 509.763 57.6858 515.196 52.5579L527.095 64.4575C521.663 69.5854 515.266 72.0986 507.904 71.997L496.004 60.0974Z" fill="#292929"/>
<path d="M515.196 52.5579C520.679 47.43 523.345 41.2613 523.192 34.0518L535.092 45.9515C535.244 53.161 532.579 59.3297 527.095 64.4575L515.196 52.5579Z" fill="#292929"/>
<path d="M543.478 38.8499V8.92035L555.377 20.8199V50.7494L543.478 38.8499Z" fill="#292929"/>
<path d="M574.854 8.92035H561.755L573.655 20.8199H586.754L574.854 8.92035Z" fill="#292929"/>
<path d="M536.624 54.0048C532.461 49.8923 530.379 44.5108 530.379 37.8598L542.278 49.7593C542.278 56.3096 544.297 61.6284 548.335 65.7164L548.523 65.9045C548.46 65.8422 548.398 65.7793 548.335 65.7164L536.624 54.0048Z" fill="#292929"/>
<path d="M561.755 8.92035V38.8499L573.655 50.7494V20.8199L561.755 8.92035Z" fill="#292929"/>
<path d="M545.991 45.6276C544.316 43.9522 543.478 41.693 543.478 38.8499L555.377 50.7494C555.377 53.5925 556.215 55.8519 557.89 57.5273L545.991 45.6276Z" fill="#292929"/>
<path d="M552.617 48.065C549.875 48.065 547.666 47.2523 545.991 45.6276L557.89 57.5273C559.566 59.152 561.774 59.9643 564.516 59.9643L552.617 48.065Z" fill="#292929"/>
<path d="M574.854 37.8598V8.92035L586.754 20.8199V49.7593L574.854 37.8598Z" fill="#292929"/>
<path d="M536.624 54.0048C540.787 58.0665 546.118 60.0977 552.617 60.0977L564.516 71.997C558.017 71.997 552.686 69.9662 548.523 65.9045L536.624 54.0048Z" fill="#292929"/>
<path d="M561.755 38.8499C561.755 41.693 560.918 43.9522 559.242 45.6276L571.142 57.5273C572.817 55.8519 573.655 53.5925 573.655 50.7494L561.755 38.8499Z" fill="#292929"/>
<path d="M559.242 45.6276C557.567 47.2523 555.358 48.065 552.617 48.065L564.516 59.9643C567.258 59.9643 569.466 59.152 571.142 57.5273L559.242 45.6276Z" fill="#292929"/>
<path d="M604.327 8.92035H584.603L596.502 20.8199H616.227L604.327 8.92035Z" fill="#292929"/>
<path d="M568.533 53.9286C572.747 49.7654 574.854 44.4093 574.854 37.8598L586.754 49.7593C586.754 56.3088 584.647 61.6651 580.433 65.8284L568.533 53.9286Z" fill="#292929"/>
<path d="M552.617 60.0977C559.014 60.0977 564.319 58.0411 568.533 53.9286L580.433 65.8284C576.219 69.9408 570.913 71.997 564.516 71.997L552.617 60.0977Z" fill="#292929"/>
<path d="M584.603 8.92035V59.1836L596.502 71.0832V20.8199L584.603 8.92035Z" fill="#292929"/>
<path d="M597.702 20.3439H604.404L616.303 32.2433H609.601L597.702 20.3439Z" fill="#292929"/>
<path d="M618.264 13.7182C614.609 10.5196 609.963 8.92035 604.327 8.92035L616.227 20.8199C621.862 20.8199 626.508 22.4191 630.164 25.6177L618.264 13.7182Z" fill="#292929"/>
<path d="M597.702 32.1482V20.3439L609.601 32.2433V44.0476L597.702 32.1482Z" fill="#292929"/>
<path d="M604.404 20.3439C606.231 20.3439 607.678 20.877 608.745 21.9432L620.644 33.8426C619.578 32.7764 618.131 32.2433 616.303 32.2433L604.404 20.3439Z" fill="#292929"/>
<path d="M604.404 32.1481L597.702 32.1482L609.601 44.0476H616.303L604.404 32.1481Z" fill="#292929"/>
<path d="M610.42 26.2077C610.42 24.5294 609.922 23.1682 608.926 22.1239L608.745 21.9432C608.807 22.0025 608.867 22.0625 608.926 22.1239L620.644 33.8426C621.761 34.9088 622.32 36.3304 622.32 38.1074L610.42 26.2077Z" fill="#292929"/>
<path d="M608.745 30.5491C607.678 31.6153 606.231 32.1481 604.404 32.1481L616.303 44.0476C618.131 44.0476 619.578 43.5145 620.644 42.4483L608.745 30.5491Z" fill="#292929"/>
<path d="M610.42 26.2077C610.42 27.9847 609.862 29.4322 608.745 30.5491L620.644 42.4483C621.761 41.3313 622.32 39.8844 622.32 38.1074L610.42 26.2077Z" fill="#292929"/>
<path d="M618.264 13.7182C618.917 14.2803 619.511 14.8751 620.048 15.5019L630.164 25.6177C633.819 28.7655 635.647 32.9287 635.647 38.1074L623.747 26.2081C623.747 21.9543 622.514 18.3855 620.048 15.5019L618.264 13.7182Z" fill="#292929"/>
<path d="M597.702 43.5717H603.109L615.008 55.4711H609.601L597.702 43.5717Z" fill="#292929"/>
<path d="M597.702 59.1838V43.5717L609.601 55.4711V71.0832L597.702 59.1838Z" fill="#292929"/>
<path d="M584.603 59.1836L597.702 59.1838L609.601 71.0832H596.502L584.603 59.1836Z" fill="#292929"/>
<path d="M615.827 40.5251C621.107 37.2758 623.747 32.5037 623.747 26.2081L635.647 38.1074C635.647 44.403 633.007 49.1755 627.727 52.4248L615.827 40.5251Z" fill="#292929"/>
<path d="M603.109 43.5717L614.456 59.1838L626.356 71.0832L615.008 55.4711L603.109 43.5717Z" fill="#292929"/>
<path d="M629.078 59.1837L615.827 40.5251L627.727 52.4248L640.978 71.0832L629.078 59.1837Z" fill="#292929"/>
<path d="M673.144 8.92035H655.628L667.527 20.8199H685.043L673.144 8.92035Z" fill="#292929"/>
<path d="M614.456 59.1838L629.078 59.1837L640.978 71.0832H626.356L614.456 59.1838Z" fill="#292929"/>
<path d="M655.628 8.92035V59.1836L667.527 71.0832V20.8199L655.628 8.92035Z" fill="#292929"/>
<path d="M668.727 20.8006H673.068L684.967 32.7003H680.626L668.727 20.8006Z" fill="#292929"/>
<path d="M692.792 15.7748C687.512 11.1038 680.963 8.81881 673.144 8.92035L685.043 20.8199C692.862 20.7183 699.411 23.003 704.692 27.6739L692.792 15.7748Z" fill="#292929"/>
<path d="M673.068 20.8006C677.332 20.8006 680.734 21.943 683.273 24.2277L695.172 36.1273C692.634 33.8426 689.232 32.7003 684.967 32.7003L673.068 20.8006Z" fill="#292929"/>
<path d="M668.727 47.3793V20.8006L680.626 32.7003V59.2789L668.727 47.3793Z" fill="#292929"/>
<path d="M687.157 33.9C687.157 30.3045 686.191 27.4095 684.26 25.2151L683.273 24.2277C683.626 24.5392 683.955 24.8687 684.26 25.2151L695.172 36.1273C697.761 38.412 699.056 41.636 699.056 45.7992L687.157 33.9Z" fill="#292929"/>
<path d="M673.068 47.3792L668.727 47.3793L680.626 59.2789H684.967L673.068 47.3792Z" fill="#292929"/>
<path d="M692.792 15.7748C693.584 16.4754 694.316 17.2069 694.987 17.9692L704.692 27.6739C709.972 32.3449 712.561 38.3866 712.46 45.7992L700.56 33.9C700.646 27.5993 698.789 22.289 694.987 17.9692L692.792 15.7748Z" fill="#292929"/>
<path d="M655.628 59.1836L673.144 59.1839L685.043 71.0832H667.527L655.628 59.1836Z" fill="#292929"/>
<path d="M683.197 43.7239C680.607 46.1609 677.231 47.3792 673.068 47.3792L684.967 59.2789C689.13 59.2789 692.507 58.0604 695.096 55.6234L683.197 43.7239Z" fill="#292929"/>
<path d="M687.157 33.9C687.157 38.0124 685.837 41.2869 683.197 43.7239L695.096 55.6234C697.736 53.1864 699.056 49.9116 699.056 45.7992L687.157 33.9Z" fill="#292929"/>
<path d="M729.106 8.00639H724.917L736.817 19.906H741.005L729.106 8.00639Z" fill="#292929"/>
<path d="M673.144 59.1839C680.912 59.2855 687.436 56.9498 692.716 52.1773L704.616 64.0768C699.335 68.8492 692.811 71.1847 685.043 71.0832L673.144 59.1839Z" fill="#292929"/>
<path d="M692.716 52.1773C698.047 47.3541 700.662 41.2618 700.56 33.9L712.46 45.7992C712.561 53.161 709.946 59.2535 704.616 64.0768L692.716 52.1773Z" fill="#292929"/>
<path d="M724.917 8.00639L702.07 59.1836L713.97 71.0832L736.817 19.906L724.917 8.00639Z" fill="#292929"/>
<path d="M747.154 8.92035V20.7246L759.053 32.6241V20.8199L747.154 8.92035Z" fill="#292929"/>
<path d="M722.633 44.4857L727.049 32.8337L738.949 44.733L734.532 56.385L722.633 44.4857Z" fill="#292929"/>
<path d="M727.049 32.8337L731.39 44.4857L743.29 56.385L738.949 44.733L727.049 32.8337Z" fill="#292929"/>
<path d="M702.07 59.1836L716.159 59.1839L728.059 71.0832H713.97L702.07 59.1836Z" fill="#292929"/>
<path d="M731.39 44.4857H722.633L734.532 56.385H743.29L731.39 44.4857Z" fill="#292929"/>
<path d="M751.953 59.1836L729.106 8.00639L741.005 19.906L763.852 71.0832L751.953 59.1836Z" fill="#292929"/>
<path d="M716.159 59.1839L717.987 54.9953L729.886 66.8946L728.059 71.0832L716.159 59.1839Z" fill="#292929"/>
<path d="M747.154 20.7246L762.233 20.7245L774.132 32.6241H759.053L747.154 20.7246Z" fill="#292929"/>
<path d="M790.411 8.92035H747.154L759.053 20.8199H802.31L790.411 8.92035Z" fill="#292929"/>
<path d="M717.987 54.9953H736.036L747.935 66.8946H729.886L717.987 54.9953Z" fill="#292929"/>
<path d="M736.036 54.9953L737.864 59.1839L749.763 71.0832L747.935 66.8946L736.036 54.9953Z" fill="#292929"/>
<path d="M762.233 20.7245V59.1836L774.132 71.0832V32.6241L762.233 20.7245Z" fill="#292929"/>
<path d="M775.332 20.7245H790.411L802.31 32.6241H787.231L775.332 20.7245Z" fill="#292929"/>
<path d="M737.864 59.1839L751.953 59.1836L763.852 71.0832H749.763L737.864 59.1839Z" fill="#292929"/>
<path d="M790.411 20.7245V8.92035L802.31 20.8199V32.6241L790.411 20.7245Z" fill="#292929"/>
<path d="M775.332 59.1836V20.7245L787.231 32.6241V71.0832L775.332 59.1836Z" fill="#292929"/>
<path d="M812.625 8.00639H808.436L820.336 19.906H824.525L812.625 8.00639Z" fill="#292929"/>
<path d="M762.233 59.1836H775.332L787.231 71.0832H774.132L762.233 59.1836Z" fill="#292929"/>
<path d="M808.436 8.00639L785.589 59.1836L797.489 71.0832L820.336 19.906L808.436 8.00639Z" fill="#292929"/>
<path d="M806.152 44.4857L810.569 32.8337L822.468 44.733L818.051 56.385L806.152 44.4857Z" fill="#292929"/>
<path d="M810.569 32.8337L814.91 44.4857L826.809 56.385L822.468 44.733L810.569 32.8337Z" fill="#292929"/>
<path d="M785.589 59.1836L799.678 59.1839L811.578 71.0832H797.489L785.589 59.1836Z" fill="#292929"/>
<path d="M814.91 44.4857H806.152L818.051 56.385H826.809L814.91 44.4857Z" fill="#292929"/>
<path d="M835.472 59.1836L812.625 8.00639L824.525 19.906L847.371 71.0832L835.472 59.1836Z" fill="#292929"/>
<path d="M799.678 59.1839L801.506 54.9953L813.406 66.8946L811.578 71.0832L799.678 59.1839Z" fill="#292929"/>
<path d="M801.506 54.9953H819.555L831.455 66.8946H813.406L801.506 54.9953Z" fill="#292929"/>
<path d="M819.555 54.9953L821.383 59.1839L833.283 71.0832L831.455 66.8946L819.555 54.9953Z" fill="#292929"/>
<path d="M821.383 59.1839L835.472 59.1836L847.371 71.0832H833.283L821.383 59.1839Z" fill="#292929"/>
</g>
<path d="M8 59.1837V8.92041H25.516C33.3347 8.81886 39.8842 11.1036 45.1644 15.7745C50.4446 20.4454 53.0339 26.4872 52.9323 33.8997C53.0339 41.2615 50.4192 47.3541 45.0882 52.1773C39.808 56.9498 33.284 59.2852 25.516 59.1837H8ZM21.0989 47.3794H25.4398C29.6031 47.3794 32.9793 46.1609 35.5687 43.7239C38.2088 41.2869 39.5288 38.0122 39.5288 33.8997C39.5288 29.7365 38.2341 26.5126 35.6448 24.2279C33.1063 21.9432 29.7046 20.8008 25.4398 20.8008H21.0989V47.3794Z" fill="url(#paint0_linear_65_10558)"/>
<path d="M57.8427 34.0521C57.6903 26.8933 60.305 20.7247 65.6868 15.546C71.1193 10.3674 77.5164 7.85422 84.8782 8.00653C92.24 7.85422 98.6372 10.3674 104.07 15.546C109.553 20.7247 112.218 26.8933 112.066 34.0521C112.218 41.2615 109.553 47.4302 104.07 52.5581C98.6372 57.686 92.24 60.1991 84.8782 60.0976C77.4656 60.1991 71.0685 57.686 65.6868 52.5581C60.305 47.4302 57.6903 41.2615 57.8427 34.0521ZM98.6625 34.0521C98.6625 29.9396 97.3425 26.5887 94.7024 23.9994C92.1131 21.3593 88.8637 20.0393 84.9544 20.0393C80.8927 20.0393 77.5926 21.3339 75.054 23.9232C72.5155 26.5126 71.2462 29.8888 71.2462 34.0521C71.2462 38.2153 72.5155 41.6169 75.054 44.257C77.5926 46.7956 80.8927 48.0649 84.9544 48.0649C88.9145 48.0649 92.1892 46.7702 94.7786 44.1809C97.3679 41.5916 98.6625 38.2153 98.6625 34.0521Z" fill="url(#paint1_linear_65_10558)"/>
<path d="M174.807 8.92041H189.429L168.714 60.0976H164.525L151.731 33.8236L138.861 60.0976H134.672L113.958 8.92041H128.58L138.023 33.062L149.599 8.00653H153.787L165.363 33.062L174.807 8.92041Z" fill="url(#paint2_linear_65_10558)"/>
<path d="M226.795 8.92041H239.894V60.0976H235.705L208.441 33.6713V59.1837H195.342V8.00653H199.531L226.795 34.0521V8.92041Z" fill="url(#paint3_linear_65_10558)"/>
<path d="M249.931 59.1837V8.92041H263.03V47.3794H283.82V59.1837H249.931Z" fill="url(#paint4_linear_65_10558)"/>
<path d="M286.982 34.0521C286.829 26.8933 289.444 20.7247 294.826 15.546C300.258 10.3674 306.655 7.85422 314.017 8.00653C321.379 7.85422 327.776 10.3674 333.209 15.546C338.692 20.7247 341.357 26.8933 341.205 34.0521C341.357 41.2615 338.692 47.4302 333.209 52.5581C327.776 57.686 321.379 60.1991 314.017 60.0976C306.605 60.1991 300.207 57.686 294.826 52.5581C289.444 47.4302 286.829 41.2615 286.982 34.0521ZM327.801 34.0521C327.801 29.9396 326.481 26.5887 323.841 23.9994C321.252 21.3593 318.003 20.0393 314.093 20.0393C310.032 20.0393 306.731 21.3339 304.193 23.9232C301.654 26.5126 300.385 29.8888 300.385 34.0521C300.385 38.2153 301.654 41.6169 304.193 44.257C306.731 46.7956 310.032 48.0649 314.093 48.0649C318.053 48.0649 321.328 46.7702 323.917 44.1809C326.507 41.5916 327.801 38.2153 327.801 34.0521Z" fill="url(#paint5_linear_65_10558)"/>
<path d="M378.5 59.1837L376.672 54.9951H358.623L356.796 59.1837H342.707L365.554 8.00653H369.742L392.589 59.1837H378.5ZM372.027 44.4855L367.686 32.8336L363.269 44.4855H372.027Z" fill="url(#paint6_linear_65_10558)"/>
<path d="M397.782 59.1837V8.92041H415.298C423.116 8.81886 429.666 11.1036 434.946 15.7745C440.226 20.4454 442.815 26.4872 442.714 33.8997C442.815 41.2615 440.201 47.3541 434.87 52.1773C429.59 56.9498 423.065 59.2852 415.298 59.1837H397.782ZM410.88 47.3794H415.221C419.385 47.3794 422.761 46.1609 425.35 43.7239C427.99 41.2869 429.31 38.0122 429.31 33.8997C429.31 29.7365 428.016 26.5126 425.426 24.2279C422.888 21.9432 419.486 20.8008 415.221 20.8008H410.88V47.3794Z" fill="url(#paint7_linear_65_10558)"/>
<path d="M468.969 34.0521C468.816 26.8933 471.431 20.7247 476.813 15.546C482.245 10.3674 488.643 7.85422 496.004 8.00653C503.366 7.85422 509.763 10.3674 515.196 15.546C520.679 20.7247 523.345 26.8933 523.192 34.0521C523.345 41.2615 520.679 47.4302 515.196 52.5581C509.763 57.686 503.366 60.1991 496.004 60.0976C488.592 60.1991 482.195 57.686 476.813 52.5581C471.431 47.4302 468.816 41.2615 468.969 34.0521ZM509.789 34.0521C509.789 29.9396 508.469 26.5887 505.829 23.9994C503.239 21.3593 499.99 20.0393 496.081 20.0393C492.019 20.0393 488.719 21.3339 486.18 23.9232C483.642 26.5126 482.372 29.8888 482.372 34.0521C482.372 38.2153 483.642 41.6169 486.18 44.257C488.719 46.7956 492.019 48.0649 496.081 48.0649C500.041 48.0649 503.315 46.7702 505.905 44.1809C508.494 41.5916 509.789 38.2153 509.789 34.0521Z" fill="url(#paint8_linear_65_10558)"/>
<path d="M530.379 37.8599V8.92041H543.478V38.8499C543.478 41.6931 544.316 43.9524 545.991 45.6278C547.666 47.2525 549.875 48.0649 552.617 48.0649C555.358 48.0649 557.567 47.2525 559.242 45.6278C560.918 43.9524 561.755 41.6931 561.755 38.8499V8.92041H574.854V37.8599C574.854 44.4093 572.747 49.7657 568.533 53.9289C564.319 58.0414 559.014 60.0976 552.617 60.0976C546.118 60.0976 540.787 58.0667 536.624 54.0051C532.461 49.8926 530.379 44.5109 530.379 37.8599Z" fill="url(#paint9_linear_65_10558)"/>
<path d="M629.078 59.1837H614.456L603.109 43.5716H597.702V59.1837H584.603V8.92041H604.327C609.963 8.92041 614.609 10.5197 618.264 13.7183C621.92 16.8661 623.747 21.0293 623.747 26.2079C623.747 32.5035 621.107 37.276 615.827 40.5254L629.078 59.1837ZM597.702 20.3439V32.1481H604.404C606.231 32.1481 607.678 31.615 608.745 30.5489C609.862 29.4319 610.42 27.9849 610.42 26.2079C610.42 24.431 609.862 23.0094 608.745 21.9432C607.678 20.877 606.231 20.3439 604.404 20.3439H597.702Z" fill="url(#paint10_linear_65_10558)"/>
<path d="M655.628 59.1837V8.92041H673.144C680.963 8.81886 687.512 11.1036 692.792 15.7745C698.072 20.4454 700.662 26.4872 700.56 33.8997C700.662 41.2615 698.047 47.3541 692.716 52.1773C687.436 56.9498 680.912 59.2852 673.144 59.1837H655.628ZM668.727 47.3794H673.068C677.231 47.3794 680.607 46.1609 683.197 43.7239C685.837 41.2869 687.157 38.0122 687.157 33.8997C687.157 29.7365 685.862 26.5126 683.273 24.2279C680.734 21.9432 677.332 20.8008 673.068 20.8008H668.727V47.3794Z" fill="url(#paint11_linear_65_10558)"/>
<path d="M737.864 59.1837L736.036 54.9951H717.987L716.159 59.1837H702.07L724.917 8.00653H729.106L751.953 59.1837H737.864ZM731.39 44.4855L727.049 32.8336L722.633 44.4855H731.39Z" fill="url(#paint12_linear_65_10558)"/>
<path d="M762.233 59.1837V20.7247H747.154V8.92041H790.411V20.7247H775.332V59.1837H762.233Z" fill="url(#paint13_linear_65_10558)"/>
<path d="M821.383 59.1837L819.555 54.9951H801.506L799.678 59.1837H785.589L808.436 8.00653H812.625L835.472 59.1837H821.383ZM814.91 44.4855L810.569 32.8336L806.152 44.4855H814.91Z" fill="url(#paint14_linear_65_10558)"/>
<defs>
<filter id="filter0_d_65_10558" x="0" y="0" width="879.371" height="104" filterUnits="userSpaceOnUse" color-interpolation-filters="sRGB">
<feFlood flood-opacity="0" result="BackgroundImageFix"/>
<feColorMatrix in="SourceAlpha" type="matrix" values="0 0 0 0 0 0 0 0 0 0 0 0 0 0 0 0 0 0 127 0" result="hardAlpha"/>
<feOffset dx="12" dy="12"/>
<feGaussianBlur stdDeviation="10"/>
<feComposite in2="hardAlpha" operator="out"/>
<feColorMatrix type="matrix" values="0 0 0 0 0 0 0 0 0 0 0 0 0 0 0 0 0 0 0.65 0"/>
<feBlend mode="normal" in2="BackgroundImageFix" result="effect1_dropShadow_65_10558"/>
<feBlend mode="normal" in="SourceGraphic" in2="effect1_dropShadow_65_10558" result="shape"/>
</filter>
<linearGradient id="paint0_linear_65_10558" x1="835.472" y1="-22.4738" x2="36.0843" y2="190.883" gradientUnits="userSpaceOnUse">
<stop stop-color="#A0A0A0"/>
<stop offset="0.52723" stop-color="#ECECEC"/>
<stop offset="1" stop-color="#A0A0A0"/>
</linearGradient>
<linearGradient id="paint1_linear_65_10558" x1="835.472" y1="-22.4738" x2="36.0843" y2="190.883" gradientUnits="userSpaceOnUse">
<stop stop-color="#A0A0A0"/>
<stop offset="0.52723" stop-color="#ECECEC"/>
<stop offset="1" stop-color="#A0A0A0"/>
</linearGradient>
<linearGradient id="paint2_linear_65_10558" x1="835.472" y1="-22.4738" x2="36.0843" y2="190.883" gradientUnits="userSpaceOnUse">
<stop stop-color="#A0A0A0"/>
<stop offset="0.52723" stop-color="#ECECEC"/>
<stop offset="1" stop-color="#A0A0A0"/>
</linearGradient>
<linearGradient id="paint3_linear_65_10558" x1="835.472" y1="-22.4738" x2="36.0843" y2="190.883" gradientUnits="userSpaceOnUse">
<stop stop-color="#A0A0A0"/>
<stop offset="0.52723" stop-color="#ECECEC"/>
<stop offset="1" stop-color="#A0A0A0"/>
</linearGradient>
<linearGradient id="paint4_linear_65_10558" x1="835.472" y1="-22.4738" x2="36.0843" y2="190.883" gradientUnits="userSpaceOnUse">
<stop stop-color="#A0A0A0"/>
<stop offset="0.52723" stop-color="#ECECEC"/>
<stop offset="1" stop-color="#A0A0A0"/>
</linearGradient>
<linearGradient id="paint5_linear_65_10558" x1="835.472" y1="-22.4738" x2="36.0843" y2="190.883" gradientUnits="userSpaceOnUse">
<stop stop-color="#A0A0A0"/>
<stop offset="0.52723" stop-color="#ECECEC"/>
<stop offset="1" stop-color="#A0A0A0"/>
</linearGradient>
<linearGradient id="paint6_linear_65_10558" x1="835.472" y1="-22.4738" x2="36.0843" y2="190.883" gradientUnits="userSpaceOnUse">
<stop stop-color="#A0A0A0"/>
<stop offset="0.52723" stop-color="#ECECEC"/>
<stop offset="1" stop-color="#A0A0A0"/>
</linearGradient>
<linearGradient id="paint7_linear_65_10558" x1="835.472" y1="-22.4738" x2="36.0843" y2="190.883" gradientUnits="userSpaceOnUse">
<stop stop-color="#A0A0A0"/>
<stop offset="0.52723" stop-color="#ECECEC"/>
<stop offset="1" stop-color="#A0A0A0"/>
</linearGradient>
<linearGradient id="paint8_linear_65_10558" x1="835.472" y1="-22.4738" x2="36.0843" y2="190.883" gradientUnits="userSpaceOnUse">
<stop stop-color="#A0A0A0"/>
<stop offset="0.52723" stop-color="#ECECEC"/>
<stop offset="1" stop-color="#A0A0A0"/>
</linearGradient>
<linearGradient id="paint9_linear_65_10558" x1="835.472" y1="-22.4738" x2="36.0843" y2="190.883" gradientUnits="userSpaceOnUse">
<stop stop-color="#A0A0A0"/>
<stop offset="0.52723" stop-color="#ECECEC"/>
<stop offset="1" stop-color="#A0A0A0"/>
</linearGradient>
<linearGradient id="paint10_linear_65_10558" x1="835.472" y1="-22.4738" x2="36.0843" y2="190.883" gradientUnits="userSpaceOnUse">
<stop stop-color="#A0A0A0"/>
<stop offset="0.52723" stop-color="#ECECEC"/>
<stop offset="1" stop-color="#A0A0A0"/>
</linearGradient>
<linearGradient id="paint11_linear_65_10558" x1="835.472" y1="-22.4738" x2="36.0843" y2="190.883" gradientUnits="userSpaceOnUse">
<stop stop-color="#A0A0A0"/>
<stop offset="0.52723" stop-color="#ECECEC"/>
<stop offset="1" stop-color="#A0A0A0"/>
</linearGradient>
<linearGradient id="paint12_linear_65_10558" x1="835.472" y1="-22.4738" x2="36.0843" y2="190.883" gradientUnits="userSpaceOnUse">
<stop stop-color="#A0A0A0"/>
<stop offset="0.52723" stop-color="#ECECEC"/>
<stop offset="1" stop-color="#A0A0A0"/>
</linearGradient>
<linearGradient id="paint13_linear_65_10558" x1="835.472" y1="-22.4738" x2="36.0843" y2="190.883" gradientUnits="userSpaceOnUse">
<stop stop-color="#A0A0A0"/>
<stop offset="0.52723" stop-color="#ECECEC"/>
<stop offset="1" stop-color="#A0A0A0"/>
</linearGradient>
<linearGradient id="paint14_linear_65_10558" x1="835.472" y1="-22.4738" x2="36.0843" y2="190.883" gradientUnits="userSpaceOnUse">
<stop stop-color="#A0A0A0"/>
<stop offset="0.52723" stop-color="#ECECEC"/>
<stop offset="1" stop-color="#A0A0A0"/>
</linearGradient>
</defs>
</svg>
