<svg width="584" height="104" viewBox="0 0 584 104" fill="none" xmlns="http://www.w3.org/2000/svg">
<g style="mix-blend-mode:multiply" filter="url(#filter0_d_63_10125)">
<path d="M19.8995 71.0832V20.8199H32.9984V59.2789H53.7891V71.0832H19.8995Z" fill="#292929"/>
<path d="M60.6551 71.0832V20.8199H95.5348V32.6241H73.754V39.5544H89.2899V50.5209H73.754V59.2789H96.4486V71.0832H60.6551Z" fill="#292929"/>
<path d="M135.528 71.0832L133.7 66.8946H115.651L113.824 71.0832H99.7347L122.582 19.906H126.77L149.617 71.0832H135.528ZM129.055 56.385L124.714 44.733L120.297 56.385H129.055Z" fill="#292929"/>
<path d="M154.81 71.0832V20.8199H172.326C180.144 20.7183 186.694 23.003 191.974 27.6739C197.254 32.3449 199.843 38.3866 199.742 45.7992C199.843 53.161 197.229 59.2535 191.898 64.0768C186.618 68.8492 180.093 71.1847 172.326 71.0832H154.81ZM167.908 59.2789H172.249C176.413 59.2789 179.789 58.0604 182.378 55.6234C185.018 53.1864 186.338 49.9116 186.338 45.7992C186.338 41.636 185.044 38.412 182.454 36.1273C179.916 33.8426 176.514 32.7003 172.249 32.7003H167.908V59.2789Z" fill="#292929"/>
<path d="M207.241 71.0832V20.8199H242.121V32.6241H220.34V39.5544H235.876V50.5209H220.34V59.2789H243.035V71.0832H207.241Z" fill="#292929"/>
<path d="M295.67 71.0832H281.048L269.701 55.4711H264.294V71.0832H251.195V20.8199H270.92C276.555 20.8199 281.201 22.4191 284.856 25.6177C288.512 28.7655 290.34 32.9287 290.34 38.1074C290.34 44.403 287.699 49.1755 282.419 52.4248L295.67 71.0832ZM264.294 32.2433V44.0476H270.996C272.824 44.0476 274.27 43.5145 275.337 42.4483C276.454 41.3313 277.012 39.8844 277.012 38.1074C277.012 36.3304 276.454 34.9088 275.337 33.8426C274.27 32.7764 272.824 32.2433 270.996 32.2433H264.294Z" fill="#292929"/>
<path d="M337.937 47.3155C340.188 49.5664 341.314 52.5134 341.314 56.1565C341.314 60.472 339.69 64.0514 336.44 66.8946C333.242 69.687 329.206 71.0832 324.332 71.0832H300.875V20.8199H319.001C323.875 20.8199 327.911 22.2161 331.109 25.0085C331.447 25.2933 331.767 25.5868 332.069 25.8892C334.679 28.4972 335.983 31.7576 335.983 35.6704C335.983 39.072 334.968 41.8898 332.937 44.1238C334.976 44.9577 336.642 46.0216 337.937 47.3155ZM318.163 31.8626H313.441V40.6967H318.163C319.737 40.6967 320.955 40.2905 321.818 39.4782C322.732 38.6659 323.189 37.5997 323.189 36.2796C323.189 34.9596 322.732 33.8934 321.818 33.0811C320.955 32.2687 319.737 31.8626 318.163 31.8626ZM323.494 60.0405C326.845 60.0405 328.52 58.5681 328.52 55.6234C328.52 54.2463 328.154 53.1912 327.421 52.4581C326.587 51.6236 325.278 51.2063 323.494 51.2063H313.441V60.0405H323.494Z" fill="#292929"/>
<path d="M345.809 45.9515C345.657 38.7928 348.272 32.6241 353.654 27.4455C359.086 22.2668 365.483 19.7537 372.845 19.906C380.207 19.7537 386.604 22.2668 392.036 27.4455C397.52 32.6241 400.185 38.7928 400.033 45.9515C400.185 53.161 397.52 59.3297 392.036 64.4575C386.604 69.5854 380.207 72.0986 372.845 71.997C365.432 72.0986 359.035 69.5854 353.654 64.4575C348.272 59.3297 345.657 53.161 345.809 45.9515ZM386.629 45.9515C386.629 41.8391 385.309 38.4882 382.669 35.8989C380.08 33.2588 376.831 31.9387 372.921 31.9387C368.859 31.9387 365.559 33.2334 363.021 35.8227C360.482 38.412 359.213 41.7883 359.213 45.9515C359.213 50.1147 360.482 53.5164 363.021 56.1565C365.559 58.695 368.859 59.9643 372.921 59.9643C376.881 59.9643 380.156 58.6697 382.745 56.0803C385.335 53.491 386.629 50.1147 386.629 45.9515Z" fill="#292929"/>
<path d="M437.328 71.0832L435.5 66.8946H417.451L415.624 71.0832H401.535L424.382 19.906H428.57L451.417 71.0832H437.328ZM430.855 56.385L426.514 44.733L422.097 56.385H430.855Z" fill="#292929"/>
<path d="M501.085 71.0832H486.463L475.115 55.4711H469.708V71.0832H456.609V20.8199H476.334C481.969 20.8199 486.615 22.4191 490.271 25.6177C493.926 28.7655 495.754 32.9287 495.754 38.1074C495.754 44.403 493.114 49.1755 487.834 52.4248L501.085 71.0832ZM469.708 32.2433V44.0476H476.41C478.238 44.0476 479.685 43.5145 480.751 42.4483C481.868 41.3313 482.426 39.8844 482.426 38.1074C482.426 36.3304 481.868 34.9088 480.751 33.8426C479.685 32.7764 478.238 32.2433 476.41 32.2433H469.708Z" fill="#292929"/>
<path d="M506.29 71.0832V20.8199H523.806C531.624 20.7183 538.174 23.003 543.454 27.6739C548.734 32.3449 551.323 38.3866 551.222 45.7992C551.323 53.161 548.709 59.2535 543.378 64.0768C538.098 68.8492 531.574 71.1847 523.806 71.0832H506.29ZM519.389 59.2789H523.729C527.893 59.2789 531.269 58.0604 533.858 55.6234C536.498 53.1864 537.818 49.9116 537.818 45.7992C537.818 41.636 536.524 38.412 533.934 36.1273C531.396 33.8426 527.994 32.7003 523.729 32.7003H519.389V59.2789Z" fill="#292929"/>
<path d="M21.0989 8.92035H8L19.8995 20.8199H32.9984L21.0989 8.92035Z" fill="#292929"/>
<path d="M8 8.92035V59.1836L19.8995 71.0832V20.8199L8 8.92035Z" fill="#292929"/>
<path d="M21.0989 47.3794L21.0989 8.92035L32.9984 20.8199V59.2789L21.0989 47.3794Z" fill="#292929"/>
<path d="M83.6353 8.92035H48.7556L60.6551 20.8199H95.5348L83.6353 8.92035Z" fill="#292929"/>
<path d="M41.8896 47.3795L21.0989 47.3794L32.9984 59.2789H53.7891L41.8896 47.3795Z" fill="#292929"/>
<path d="M48.7556 8.92035V59.1836L60.6551 71.0832V20.8199L48.7556 8.92035Z" fill="#292929"/>
<path d="M8 59.1836L41.8896 59.1836L53.7891 71.0832H19.8995L8 59.1836Z" fill="#292929"/>
<path d="M61.8545 27.655V20.7248L73.754 32.6241V39.5544L61.8545 27.655Z" fill="#292929"/>
<path d="M61.8545 20.7248H83.6353L95.5348 32.6241H73.754L61.8545 20.7248Z" fill="#292929"/>
<path d="M41.8896 59.1836L41.8896 47.3795L53.7891 59.2789V71.0832L41.8896 59.1836Z" fill="#292929"/>
<path d="M77.3905 27.655L61.8545 27.655L73.754 39.5544H89.2899L77.3905 27.655Z" fill="#292929"/>
<path d="M83.6353 20.7248V8.92035L95.5348 20.8199V32.6241L83.6353 20.7248Z" fill="#292929"/>
<path d="M61.8545 47.3793V38.6213L73.754 50.5209V59.2789L61.8545 47.3793Z" fill="#292929"/>
<path d="M61.8545 38.6213H77.3905L89.2899 50.5209H73.754L61.8545 38.6213Z" fill="#292929"/>
<path d="M77.3905 38.6213V27.655L89.2899 39.5544V50.5209L77.3905 38.6213Z" fill="#292929"/>
<path d="M84.5492 47.3795L61.8545 47.3793L73.754 59.2789H96.4486L84.5492 47.3795Z" fill="#292929"/>
<path d="M114.871 8.00639H110.682L122.582 19.906H126.77L114.871 8.00639Z" fill="#292929"/>
<path d="M48.7556 59.1836L84.5492 59.1836L96.4486 71.0832H60.6551L48.7556 59.1836Z" fill="#292929"/>
<path d="M110.682 8.00639L87.8352 59.1836L99.7347 71.0832L122.582 19.906L110.682 8.00639Z" fill="#292929"/>
<path d="M84.5492 59.1836V47.3795L96.4486 59.2789V71.0832L84.5492 59.1836Z" fill="#292929"/>
<path d="M108.397 44.4854L112.815 32.8334L124.714 44.733L120.297 56.385L108.397 44.4854Z" fill="#292929"/>
<path d="M112.815 32.8334L117.155 44.4854L129.055 56.385L124.714 44.733L112.815 32.8334Z" fill="#292929"/>
<path d="M87.8352 59.1836L101.924 59.1836L113.824 71.0832H99.7347L87.8352 59.1836Z" fill="#292929"/>
<path d="M117.155 44.4854H108.397L120.297 56.385H129.055L117.155 44.4854Z" fill="#292929"/>
<path d="M137.718 59.1836L114.871 8.00639L126.77 19.906L149.617 71.0832L137.718 59.1836Z" fill="#292929"/>
<path d="M101.924 59.1836L103.752 54.995L115.651 66.8946L113.824 71.0832L101.924 59.1836Z" fill="#292929"/>
<path d="M160.426 8.92035H142.91L154.81 20.8199H172.326L160.426 8.92035Z" fill="#292929"/>
<path d="M103.752 54.995H121.801L133.7 66.8946H115.651L103.752 54.995Z" fill="#292929"/>
<path d="M142.91 8.92035V59.1836L154.81 71.0832V20.8199L142.91 8.92035Z" fill="#292929"/>
<path d="M156.009 20.8009H160.35L172.249 32.7003H167.908L156.009 20.8009Z" fill="#292929"/>
<path d="M121.801 54.995L123.629 59.1836L135.528 71.0832L133.7 66.8946L121.801 54.995Z" fill="#292929"/>
<path d="M180.074 15.7745C174.794 11.1035 168.245 8.8188 160.426 8.92035L172.326 20.8199C180.144 20.7183 186.694 23.003 191.974 27.6739L180.074 15.7745Z" fill="#292929"/>
<path d="M160.35 20.8009C164.615 20.8009 168.016 21.9433 170.555 24.228L182.454 36.1273C179.916 33.8426 176.514 32.7003 172.249 32.7003L160.35 20.8009Z" fill="#292929"/>
<path d="M123.629 59.1836L137.718 59.1836L149.617 71.0832H135.528L123.629 59.1836Z" fill="#292929"/>
<path d="M156.009 47.3795V20.8009L167.908 32.7003V59.2789L156.009 47.3795Z" fill="#292929"/>
<path d="M174.439 33.8997C174.439 30.3042 173.473 27.4093 171.542 25.2149L170.555 24.228C170.908 24.5395 171.237 24.8684 171.542 25.2149L182.454 36.1273C185.044 38.412 186.338 41.636 186.338 45.7992L174.439 33.8997Z" fill="#292929"/>
<path d="M160.35 47.3795L156.009 47.3795L167.908 59.2789H172.249L160.35 47.3795Z" fill="#292929"/>
<path d="M180.074 15.7745C180.866 16.4751 181.598 17.2066 182.269 17.9689L191.974 27.6739C197.254 32.3449 199.843 38.3866 199.742 45.7992L187.842 33.8997C187.929 27.599 186.071 22.2887 182.269 17.9689L180.074 15.7745Z" fill="#292929"/>
<path d="M142.91 59.1836L160.426 59.1836L172.326 71.0832H154.81L142.91 59.1836Z" fill="#292929"/>
<path d="M170.479 43.7239C167.889 46.1609 164.513 47.3795 160.35 47.3795L172.249 59.2789C176.413 59.2789 179.789 58.0604 182.378 55.6234L170.479 43.7239Z" fill="#292929"/>
<path d="M174.439 33.8997C174.439 38.0122 173.119 41.2869 170.479 43.7239L182.378 55.6234C185.018 53.1864 186.338 49.9116 186.338 45.7992L174.439 33.8997Z" fill="#292929"/>
<path d="M230.222 8.92035H195.342L207.241 20.8199H242.121L230.222 8.92035Z" fill="#292929"/>
<path d="M160.426 59.1836C168.194 59.2852 174.718 56.9498 179.998 52.1773L191.898 64.0768C186.618 68.8492 180.093 71.1847 172.326 71.0832L160.426 59.1836Z" fill="#292929"/>
<path d="M179.998 52.1773C185.329 47.3541 187.944 41.2615 187.842 33.8997L199.742 45.7992C199.843 53.161 197.229 59.2535 191.898 64.0768L179.998 52.1773Z" fill="#292929"/>
<path d="M195.342 8.92035V59.1836L207.241 71.0832V20.8199L195.342 8.92035Z" fill="#292929"/>
<path d="M208.441 27.655V20.7248L220.34 32.6241V39.5544L208.441 27.655Z" fill="#292929"/>
<path d="M208.441 20.7248H230.222L242.121 32.6241H220.34L208.441 20.7248Z" fill="#292929"/>
<path d="M223.977 27.655L208.441 27.655L220.34 39.5544H235.876L223.977 27.655Z" fill="#292929"/>
<path d="M230.222 20.7248V8.92035L242.121 20.8199V32.6241L230.222 20.7248Z" fill="#292929"/>
<path d="M208.441 47.3793V38.6213L220.34 50.5209V59.2789L208.441 47.3793Z" fill="#292929"/>
<path d="M208.441 38.6213H223.977L235.876 50.5209H220.34L208.441 38.6213Z" fill="#292929"/>
<path d="M223.977 38.6213V27.655L235.876 39.5544V50.5209L223.977 38.6213Z" fill="#292929"/>
<path d="M259.02 8.92035H239.296L251.195 20.8199H270.92L259.02 8.92035Z" fill="#292929"/>
<path d="M231.136 47.3795L208.441 47.3793L220.34 59.2789H243.035L231.136 47.3795Z" fill="#292929"/>
<path d="M195.342 59.1836L231.136 59.1836L243.035 71.0832H207.241L195.342 59.1836Z" fill="#292929"/>
<path d="M239.296 8.92035V59.1836L251.195 71.0832V20.8199L239.296 8.92035Z" fill="#292929"/>
<path d="M252.395 20.3439H259.096L270.996 32.2433H264.294L252.395 20.3439Z" fill="#292929"/>
<path d="M272.957 13.7182C269.301 10.5196 264.656 8.92035 259.02 8.92035L270.92 20.8199C276.555 20.8199 281.201 22.4191 284.856 25.6177L272.957 13.7182Z" fill="#292929"/>
<path d="M252.395 32.1482V20.3439L264.294 32.2433V44.0476L252.395 32.1482Z" fill="#292929"/>
<path d="M259.096 20.3439C260.924 20.3439 262.371 20.877 263.437 21.9432L275.337 33.8426C274.27 32.7764 272.824 32.2433 270.996 32.2433L259.096 20.3439Z" fill="#292929"/>
<path d="M231.136 59.1836V47.3795L243.035 59.2789V71.0832L231.136 59.1836Z" fill="#292929"/>
<path d="M259.096 32.1481L252.395 32.1482L264.294 44.0476H270.996L259.096 32.1481Z" fill="#292929"/>
<path d="M265.113 26.208C265.113 24.5297 264.614 23.1685 263.618 22.1242L263.437 21.9432C263.499 22.0025 263.56 22.0628 263.618 22.1242L275.337 33.8426C276.454 34.9088 277.012 36.3304 277.012 38.1074L265.113 26.208Z" fill="#292929"/>
<path d="M263.437 30.5488C262.371 31.615 260.924 32.1481 259.096 32.1481L270.996 44.0476C272.824 44.0476 274.27 43.5145 275.337 42.4483L263.437 30.5488Z" fill="#292929"/>
<path d="M265.113 26.208C265.113 27.985 264.554 29.4319 263.437 30.5488L275.337 42.4483C276.454 41.3313 277.012 39.8844 277.012 38.1074L265.113 26.208Z" fill="#292929"/>
<path d="M272.957 13.7182C273.61 14.2803 274.204 14.8748 274.74 15.5017L284.856 25.6177C288.512 28.7655 290.34 32.9287 290.34 38.1074L278.44 26.2079C278.44 21.954 277.207 18.3852 274.74 15.5017L272.957 13.7182Z" fill="#292929"/>
<path d="M252.395 43.5717H257.802L269.701 55.4711H264.294L252.395 43.5717Z" fill="#292929"/>
<path d="M252.395 59.1838V43.5717L264.294 55.4711V71.0832L252.395 59.1838Z" fill="#292929"/>
<path d="M239.296 59.1836L252.395 59.1838L264.294 71.0832H251.195L239.296 59.1836Z" fill="#292929"/>
<path d="M307.101 8.92035H288.976L300.875 20.8199H319.001L307.101 8.92035Z" fill="#292929"/>
<path d="M270.52 40.5254C275.8 37.276 278.44 32.5035 278.44 26.2079L290.34 38.1074C290.34 44.403 287.699 49.1755 282.419 52.4248L270.52 40.5254Z" fill="#292929"/>
<path d="M257.802 43.5717L269.149 59.1838L281.048 71.0832L269.701 55.4711L257.802 43.5717Z" fill="#292929"/>
<path d="M288.976 8.92035V59.1836L300.875 71.0832V20.8199L288.976 8.92035Z" fill="#292929"/>
<path d="M301.542 19.9631H306.263L318.163 31.8626H313.441L301.542 19.9631Z" fill="#292929"/>
<path d="M319.21 13.109C316.011 10.3166 311.975 8.92035 307.101 8.92035L319.001 20.8199C323.875 20.8199 327.911 22.2161 331.109 25.0085L319.21 13.109Z" fill="#292929"/>
<path d="M301.542 28.7972V19.9631L313.441 31.8626V40.6967L301.542 28.7972Z" fill="#292929"/>
<path d="M283.771 59.1837L270.52 40.5254L282.419 52.4248L295.67 71.0832L283.771 59.1837Z" fill="#292929"/>
<path d="M306.263 19.9631C307.837 19.9631 309.056 20.3692 309.919 21.1816L321.818 33.0811C320.955 32.2687 319.737 31.8626 318.163 31.8626L306.263 19.9631Z" fill="#292929"/>
<path d="M306.263 28.7973L301.542 28.7972L313.441 40.6967H318.163L306.263 28.7973Z" fill="#292929"/>
<path d="M320.17 13.9897C319.867 13.6873 319.547 13.3938 319.21 13.109L331.109 25.0085C331.447 25.2933 331.767 25.5868 332.069 25.8892L320.17 13.9897Z" fill="#292929"/>
<path d="M311.29 24.3801C311.29 23.2486 310.954 22.3036 310.283 21.5452L309.919 21.1816C310.049 21.2976 310.171 21.4188 310.283 21.5452L321.818 33.0811C322.732 33.8934 323.189 34.9596 323.189 36.2796L311.29 24.3801Z" fill="#292929"/>
<path d="M269.149 59.1838L283.771 59.1837L295.67 71.0832H281.048L269.149 59.1838Z" fill="#292929"/>
<path d="M309.919 27.5786C309.056 28.3909 307.837 28.7973 306.263 28.7973L318.163 40.6967C319.737 40.6967 320.955 40.2905 321.818 39.4782L309.919 27.5786Z" fill="#292929"/>
<path d="M311.29 24.3801C311.29 25.7001 310.833 26.7663 309.919 27.5786L321.818 39.4782C322.732 38.6659 323.189 37.5997 323.189 36.2796L311.29 24.3801Z" fill="#292929"/>
<path d="M324.084 23.771C324.084 19.8608 322.781 16.6021 320.175 13.9949L332.069 25.8892C334.679 28.4972 335.983 31.7576 335.983 35.6704L324.084 23.771Z" fill="#292929"/>
<path d="M301.542 48.1411V39.307L313.441 51.2063V60.0405L301.542 48.1411Z" fill="#292929"/>
<path d="M301.542 39.307H311.594L323.494 51.2063H313.441L301.542 39.307Z" fill="#292929"/>
<path d="M321.038 32.2242C323.069 29.9903 324.084 27.1727 324.084 23.771L335.983 35.6704C335.983 39.072 334.968 41.8898 332.937 44.1238L321.038 32.2242Z" fill="#292929"/>
<path d="M311.594 39.307C313.378 39.307 314.687 39.7242 315.521 40.5588L327.421 52.4581C326.587 51.6236 325.278 51.2063 323.494 51.2063L311.594 39.307Z" fill="#292929"/>
<path d="M311.594 48.1409L301.542 48.1411L313.441 60.0405H323.494L311.594 48.1409Z" fill="#292929"/>
<path d="M326.037 35.4159C324.743 34.1221 323.076 33.0581 321.038 32.2242L332.937 44.1238C334.976 44.9577 336.642 46.0216 337.937 47.3155L326.037 35.4159Z" fill="#292929"/>
<path d="M315.521 40.5588C316.254 41.2918 316.621 42.347 316.621 43.7241L328.52 55.6234C328.52 54.2463 328.154 53.1912 327.421 52.4581L315.521 40.5588Z" fill="#292929"/>
<path d="M288.976 59.1836L312.432 59.1836L324.332 71.0832H300.875L288.976 59.1836Z" fill="#292929"/>
<path d="M316.621 43.7241C316.621 46.6688 314.945 48.1409 311.594 48.1409L323.494 60.0405C326.845 60.0405 328.52 58.5681 328.52 55.6234L316.621 43.7241Z" fill="#292929"/>
<path d="M341.754 15.5461C336.372 20.7247 333.758 26.8934 333.91 34.0521L345.809 45.9515C345.657 38.7928 348.272 32.6241 353.654 27.4455L341.754 15.5461Z" fill="#292929"/>
<path d="M360.946 8.00653C353.584 7.85422 347.187 10.3675 341.754 15.5461L353.654 27.4455C359.086 22.2668 365.483 19.7537 372.845 19.906L360.946 8.00653Z" fill="#292929"/>
<path d="M329.415 44.2571C329.415 40.616 328.29 37.6701 326.041 35.4196L337.937 47.3155C340.188 49.5664 341.314 52.5134 341.314 56.1565L329.415 44.2571Z" fill="#292929"/>
<path d="M312.432 59.1836C317.306 59.1836 321.342 57.7874 324.541 54.995L336.44 66.8946C333.242 69.687 329.206 71.0832 324.332 71.0832L312.432 59.1836Z" fill="#292929"/>
<path d="M324.541 54.995C327.79 52.1518 329.415 48.5726 329.415 44.2571L341.314 56.1565C341.314 60.472 339.69 64.0514 336.44 66.8946L324.541 54.995Z" fill="#292929"/>
<path d="M351.121 23.9232C353.66 21.3339 356.96 20.0392 361.022 20.0392L372.921 31.9387C368.859 31.9387 365.559 33.2334 363.021 35.8227L351.121 23.9232Z" fill="#292929"/>
<path d="M347.314 34.0522C347.314 29.889 348.583 26.5125 351.121 23.9232L363.021 35.8227C360.482 38.412 359.213 41.7883 359.213 45.9515L347.314 34.0522Z" fill="#292929"/>
<path d="M341.754 52.5582C336.372 47.4303 333.758 41.2616 333.91 34.0521L345.809 45.9515C345.667 52.6804 347.935 58.5026 352.614 63.4182L353.654 64.4575C353.295 64.1157 352.948 63.7693 352.614 63.4182L341.754 52.5582Z" fill="#292929"/>
<path d="M380.137 15.546C374.704 10.3674 368.307 7.85422 360.946 8.00653L372.845 19.906C380.207 19.7537 386.604 22.2668 392.036 27.4455L380.137 15.546Z" fill="#292929"/>
<path d="M361.022 20.0392C364.931 20.0392 368.18 21.3592 370.77 23.9993L382.469 35.6983C382.536 35.7643 382.603 35.8312 382.669 35.8989L382.469 35.6983C379.913 33.1919 376.73 31.9387 372.921 31.9387L361.022 20.0392Z" fill="#292929"/>
<path d="M351.121 44.2571C348.583 41.617 347.314 38.2154 347.314 34.0522L359.213 45.9515C359.213 50.1147 360.482 53.5164 363.021 56.1565L351.121 44.2571Z" fill="#292929"/>
<path d="M374.73 34.0521C374.73 30.04 373.473 26.7527 370.961 24.1903L370.77 23.9993C370.834 24.0625 370.898 24.1262 370.961 24.1903L382.669 35.8989C385.309 38.4882 386.629 41.8391 386.629 45.9515L374.73 34.0521Z" fill="#292929"/>
<path d="M361.022 48.0648C356.96 48.0648 353.66 46.7957 351.121 44.2571L363.021 56.1565C365.559 58.695 368.859 59.9643 372.921 59.9643L361.022 48.0648Z" fill="#292929"/>
<path d="M341.754 52.5582C347.136 57.686 353.533 60.1992 360.946 60.0977L372.845 71.997C365.432 72.0986 359.035 69.5854 353.654 64.4575L341.754 52.5582Z" fill="#292929"/>
<path d="M380.137 15.546C380.576 15.9603 380.996 16.381 381.399 16.808L392.036 27.4455C397.52 32.6241 400.185 38.7928 400.033 45.9515L388.133 34.0521C388.274 27.4661 386.029 21.7181 381.399 16.808L380.137 15.546Z" fill="#292929"/>
<path d="M374.73 34.0521C374.73 38.2154 373.435 41.5916 370.846 44.181L382.745 56.0803C385.335 53.491 386.629 50.1147 386.629 45.9515L374.73 34.0521Z" fill="#292929"/>
<path d="M370.846 44.181C368.257 46.7703 364.982 48.0648 361.022 48.0648L372.921 59.9643C376.881 59.9643 380.156 58.6697 382.745 56.0803L370.846 44.181Z" fill="#292929"/>
<path d="M416.671 8.00639H412.482L424.382 19.906H428.57L416.671 8.00639Z" fill="#292929"/>
<path d="M360.946 60.0977C368.307 60.1992 374.704 57.686 380.137 52.5582L392.036 64.4575C386.604 69.5854 380.207 72.0986 372.845 71.997L360.946 60.0977Z" fill="#292929"/>
<path d="M380.137 52.5582C385.62 47.4303 388.286 41.2616 388.133 34.0521L400.033 45.9515C400.185 53.161 397.52 59.3297 392.036 64.4575L380.137 52.5582Z" fill="#292929"/>
<path d="M412.482 8.00639L389.635 59.1836L401.535 71.0832L424.382 19.906L412.482 8.00639Z" fill="#292929"/>
<path d="M410.197 44.4854L414.614 32.8334L426.514 44.733L422.097 56.385L410.197 44.4854Z" fill="#292929"/>
<path d="M414.614 32.8334L418.955 44.4854L430.855 56.385L426.514 44.733L414.614 32.8334Z" fill="#292929"/>
<path d="M389.635 59.1836L403.724 59.1836L415.624 71.0832H401.535L389.635 59.1836Z" fill="#292929"/>
<path d="M418.955 44.4854H410.197L422.097 56.385H430.855L418.955 44.4854Z" fill="#292929"/>
<path d="M439.518 59.1836L416.671 8.00639L428.57 19.906L451.417 71.0832L439.518 59.1836Z" fill="#292929"/>
<path d="M403.724 59.1836L405.552 54.995L417.451 66.8946L415.624 71.0832L403.724 59.1836Z" fill="#292929"/>
<path d="M464.434 8.92035H444.71L456.609 20.8199H476.334L464.434 8.92035Z" fill="#292929"/>
<path d="M405.552 54.995H423.601L435.5 66.8946H417.451L405.552 54.995Z" fill="#292929"/>
<path d="M444.71 8.92035V59.1836L456.609 71.0832V20.8199L444.71 8.92035Z" fill="#292929"/>
<path d="M457.809 20.3439H464.511L476.41 32.2433H469.708L457.809 20.3439Z" fill="#292929"/>
<path d="M423.601 54.995L425.429 59.1836L437.328 71.0832L435.5 66.8946L423.601 54.995Z" fill="#292929"/>
<path d="M478.371 13.7182C474.716 10.5196 470.07 8.92035 464.434 8.92035L476.334 20.8199C481.969 20.8199 486.615 22.4191 490.271 25.6177L478.371 13.7182Z" fill="#292929"/>
<path d="M457.809 32.1482V20.3439L469.708 32.2433V44.0476L457.809 32.1482Z" fill="#292929"/>
<path d="M464.511 20.3439C466.338 20.3439 467.785 20.877 468.852 21.9432L480.751 33.8426C479.685 32.7764 478.238 32.2433 476.41 32.2433L464.511 20.3439Z" fill="#292929"/>
<path d="M425.429 59.1836L439.518 59.1836L451.417 71.0832H437.328L425.429 59.1836Z" fill="#292929"/>
<path d="M464.511 32.1481L457.809 32.1482L469.708 44.0476H476.41L464.511 32.1481Z" fill="#292929"/>
<path d="M470.527 26.208C470.527 24.5297 470.029 23.1685 469.033 22.1242L468.852 21.9432C468.914 22.0025 468.974 22.0628 469.033 22.1242L480.751 33.8426C481.868 34.9088 482.426 36.3304 482.426 38.1074L470.527 26.208Z" fill="#292929"/>
<path d="M468.852 30.5488C467.785 31.615 466.338 32.1481 464.511 32.1481L476.41 44.0476C478.238 44.0476 479.685 43.5145 480.751 42.4483L468.852 30.5488Z" fill="#292929"/>
<path d="M470.527 26.208C470.527 27.985 469.969 29.4319 468.852 30.5488L480.751 42.4483C481.868 41.3313 482.426 39.8844 482.426 38.1074L470.527 26.208Z" fill="#292929"/>
<path d="M478.371 13.7182C479.024 14.2803 479.618 14.8748 480.155 15.5017L490.271 25.6177C493.926 28.7655 495.754 32.9287 495.754 38.1074L483.854 26.2079C483.854 21.954 482.621 18.3852 480.155 15.5017L478.371 13.7182Z" fill="#292929"/>
<path d="M457.809 43.5717H463.216L475.115 55.4711H469.708L457.809 43.5717Z" fill="#292929"/>
<path d="M457.809 59.1838V43.5717L469.708 55.4711V71.0832L457.809 59.1838Z" fill="#292929"/>
<path d="M444.71 59.1836L457.809 59.1838L469.708 71.0832H456.609L444.71 59.1836Z" fill="#292929"/>
<path d="M511.906 8.92035H494.39L506.29 20.8199H523.806L511.906 8.92035Z" fill="#292929"/>
<path d="M475.934 40.5254C481.214 37.276 483.854 32.5035 483.854 26.2079L495.754 38.1074C495.754 44.403 493.114 49.1755 487.834 52.4248L475.934 40.5254Z" fill="#292929"/>
<path d="M463.216 43.5717L474.563 59.1838L486.463 71.0832L475.115 55.4711L463.216 43.5717Z" fill="#292929"/>
<path d="M494.39 8.92035V59.1836L506.29 71.0832V20.8199L494.39 8.92035Z" fill="#292929"/>
<path d="M507.489 20.8009H511.83L523.729 32.7003H519.389L507.489 20.8009Z" fill="#292929"/>
<path d="M489.185 59.1837L475.934 40.5254L487.834 52.4248L501.085 71.0832L489.185 59.1837Z" fill="#292929"/>
<path d="M531.555 15.7745C526.274 11.1035 519.725 8.8188 511.906 8.92035L523.806 20.8199C531.624 20.7183 538.174 23.003 543.454 27.6739L531.555 15.7745Z" fill="#292929"/>
<path d="M511.83 20.8009C516.095 20.8009 519.496 21.9433 522.035 24.228L533.934 36.1273C531.396 33.8426 527.994 32.7003 523.729 32.7003L511.83 20.8009Z" fill="#292929"/>
<path d="M474.563 59.1838L489.185 59.1837L501.085 71.0832H486.463L474.563 59.1838Z" fill="#292929"/>
<path d="M507.489 47.3795V20.8009L519.389 32.7003V59.2789L507.489 47.3795Z" fill="#292929"/>
<path d="M525.919 33.8997C525.919 30.3042 524.953 27.4093 523.022 25.2149L522.035 24.228C522.388 24.5395 522.717 24.8684 523.022 25.2149L533.934 36.1273C536.524 38.412 537.818 41.636 537.818 45.7992L525.919 33.8997Z" fill="#292929"/>
<path d="M511.83 47.3795L507.489 47.3795L519.389 59.2789H523.729L511.83 47.3795Z" fill="#292929"/>
<path d="M531.555 15.7745C532.346 16.4751 533.078 17.2066 533.749 17.9689L543.454 27.6739C548.734 32.3449 551.323 38.3866 551.222 45.7992L539.323 33.8997C539.409 27.599 537.551 22.2888 533.749 17.9689L531.555 15.7745Z" fill="#292929"/>
<path d="M494.39 59.1836L511.906 59.1836L523.806 71.0832H506.29L494.39 59.1836Z" fill="#292929"/>
<path d="M521.959 43.7239C519.369 46.1609 515.993 47.3795 511.83 47.3795L523.729 59.2789C527.893 59.2789 531.269 58.0604 533.858 55.6234L521.959 43.7239Z" fill="#292929"/>
<path d="M525.919 33.8997C525.919 38.0122 524.599 41.2869 521.959 43.7239L533.858 55.6234C536.498 53.1864 537.818 49.9116 537.818 45.7992L525.919 33.8997Z" fill="#292929"/>
<path d="M511.906 59.1836C519.674 59.2852 526.198 56.9498 531.478 52.1773L543.378 64.0768C538.098 68.8492 531.574 71.1847 523.806 71.0832L511.906 59.1836Z" fill="#292929"/>
<path d="M531.478 52.1773C536.809 47.3541 539.424 41.2615 539.323 33.8997L551.222 45.7992C551.323 53.161 548.709 59.2535 543.378 64.0768L531.478 52.1773Z" fill="#292929"/>
</g>
<path d="M8 59.1837V8.92041H21.0989V47.3794H41.8896V59.1837H8Z" fill="url(#paint0_linear_63_10125)"/>
<path d="M48.7556 59.1837V8.92041H83.6353V20.7247H61.8545V27.6549H77.3905V38.6214H61.8545V47.3794H84.5492V59.1837H48.7556Z" fill="url(#paint1_linear_63_10125)"/>
<path d="M123.629 59.1837L121.801 54.9951H103.752L101.924 59.1837H87.8352L110.682 8.00653H114.871L137.718 59.1837H123.629ZM117.155 44.4855L112.815 32.8336L108.397 44.4855H117.155Z" fill="url(#paint2_linear_63_10125)"/>
<path d="M142.91 59.1837V8.92041H160.426C168.245 8.81886 174.794 11.1036 180.074 15.7745C185.355 20.4454 187.944 26.4872 187.842 33.8997C187.944 41.2615 185.329 47.3541 179.998 52.1773C174.718 56.9498 168.194 59.2852 160.426 59.1837H142.91ZM156.009 47.3794H160.35C164.513 47.3794 167.889 46.1609 170.479 43.7239C173.119 41.2869 174.439 38.0122 174.439 33.8997C174.439 29.7365 173.144 26.5126 170.555 24.2279C168.016 21.9432 164.615 20.8008 160.35 20.8008H156.009V47.3794Z" fill="url(#paint3_linear_63_10125)"/>
<path d="M195.342 59.1837V8.92041H230.222V20.7247H208.441V27.6549H223.977V38.6214H208.441V47.3794H231.136V59.1837H195.342Z" fill="url(#paint4_linear_63_10125)"/>
<path d="M283.771 59.1837H269.149L257.802 43.5716H252.395V59.1837H239.296V8.92041H259.02C264.656 8.92041 269.301 10.5197 272.957 13.7183C276.612 16.8661 278.44 21.0293 278.44 26.2079C278.44 32.5035 275.8 37.276 270.52 40.5254L283.771 59.1837ZM252.395 20.3439V32.1481H259.096C260.924 32.1481 262.371 31.615 263.437 30.5489C264.554 29.4319 265.113 27.9849 265.113 26.2079C265.113 24.431 264.554 23.0094 263.437 21.9432C262.371 20.877 260.924 20.3439 259.096 20.3439H252.395Z" fill="url(#paint5_linear_63_10125)"/>
<path d="M329.415 44.257C329.415 48.5726 327.79 52.1519 324.541 54.9951C321.342 57.7875 317.306 59.1837 312.432 59.1837H288.976V8.92041H307.101C311.975 8.92041 316.011 10.3166 319.21 13.109C322.459 15.8507 324.084 19.4046 324.084 23.7709C324.084 27.1726 323.069 29.9904 321.038 32.2243C326.623 34.509 329.415 38.5199 329.415 44.257ZM306.263 19.9631H301.542V28.7973H306.263C307.837 28.7973 309.056 28.3911 309.919 27.5788C310.833 26.7664 311.29 25.7002 311.29 24.3802C311.29 23.0601 310.833 21.9939 309.919 21.1816C309.056 20.3693 307.837 19.9631 306.263 19.9631ZM311.594 48.141C314.945 48.141 316.621 46.6687 316.621 43.7239C316.621 40.7792 314.945 39.3069 311.594 39.3069H301.542V48.141H311.594Z" fill="url(#paint6_linear_63_10125)"/>
<path d="M333.91 34.0521C333.758 26.8933 336.372 20.7247 341.754 15.546C347.187 10.3674 353.584 7.85422 360.946 8.00653C368.307 7.85422 374.704 10.3674 380.137 15.546C385.62 20.7247 388.286 26.8933 388.133 34.0521C388.286 41.2615 385.62 47.4302 380.137 52.5581C374.704 57.686 368.307 60.1991 360.946 60.0976C353.533 60.1991 347.136 57.686 341.754 52.5581C336.372 47.4302 333.758 41.2615 333.91 34.0521ZM374.73 34.0521C374.73 29.9396 373.41 26.5887 370.77 23.9994C368.18 21.3593 364.931 20.0393 361.022 20.0393C356.96 20.0393 353.66 21.3339 351.121 23.9232C348.583 26.5126 347.314 29.8888 347.314 34.0521C347.314 38.2153 348.583 41.6169 351.121 44.257C353.66 46.7956 356.96 48.0649 361.022 48.0649C364.982 48.0649 368.257 46.7702 370.846 44.1809C373.435 41.5916 374.73 38.2153 374.73 34.0521Z" fill="url(#paint7_linear_63_10125)"/>
<path d="M425.429 59.1837L423.601 54.9951H405.552L403.724 59.1837H389.635L412.482 8.00653H416.671L439.518 59.1837H425.429ZM418.955 44.4855L414.614 32.8336L410.197 44.4855H418.955Z" fill="url(#paint8_linear_63_10125)"/>
<path d="M489.185 59.1837H474.563L463.216 43.5716H457.809V59.1837H444.71V8.92041H464.434C470.07 8.92041 474.716 10.5197 478.371 13.7183C482.027 16.8661 483.854 21.0293 483.854 26.2079C483.854 32.5035 481.214 37.276 475.934 40.5254L489.185 59.1837ZM457.809 20.3439V32.1481H464.511C466.338 32.1481 467.785 31.615 468.852 30.5489C469.969 29.4319 470.527 27.9849 470.527 26.2079C470.527 24.431 469.969 23.0094 468.852 21.9432C467.785 20.877 466.338 20.3439 464.511 20.3439H457.809Z" fill="url(#paint9_linear_63_10125)"/>
<path d="M494.39 59.1837V8.92041H511.906C519.725 8.81886 526.274 11.1036 531.555 15.7745C536.835 20.4454 539.424 26.4872 539.323 33.8997C539.424 41.2615 536.809 47.3541 531.478 52.1773C526.198 56.9498 519.674 59.2852 511.906 59.1837H494.39ZM507.489 47.3794H511.83C515.993 47.3794 519.369 46.1609 521.959 43.7239C524.599 41.2869 525.919 38.0122 525.919 33.8997C525.919 29.7365 524.624 26.5126 522.035 24.2279C519.496 21.9432 516.095 20.8008 511.83 20.8008H507.489V47.3794Z" fill="url(#paint10_linear_63_10125)"/>
<defs>
<filter id="filter0_d_63_10125" x="0" y="0" width="583.225" height="104" filterUnits="userSpaceOnUse" color-interpolation-filters="sRGB">
<feFlood flood-opacity="0" result="BackgroundImageFix"/>
<feColorMatrix in="SourceAlpha" type="matrix" values="0 0 0 0 0 0 0 0 0 0 0 0 0 0 0 0 0 0 127 0" result="hardAlpha"/>
<feOffset dx="12" dy="12"/>
<feGaussianBlur stdDeviation="10"/>
<feComposite in2="hardAlpha" operator="out"/>
<feColorMatrix type="matrix" values="0 0 0 0 0 0 0 0 0 0 0 0 0 0 0 0 0 0 0.65 0"/>
<feBlend mode="normal" in2="BackgroundImageFix" result="effect1_dropShadow_63_10125"/>
<feBlend mode="normal" in="SourceGraphic" in2="effect1_dropShadow_63_10125" result="shape"/>
</filter>
<linearGradient id="paint0_linear_63_10125" x1="539.325" y1="-22.4738" x2="5.15716" y2="69.0713" gradientUnits="userSpaceOnUse">
<stop stop-color="#A0A0A0"/>
<stop offset="0.52723" stop-color="#ECECEC"/>
<stop offset="1" stop-color="#A0A0A0"/>
</linearGradient>
<linearGradient id="paint1_linear_63_10125" x1="539.325" y1="-22.4738" x2="5.15716" y2="69.0713" gradientUnits="userSpaceOnUse">
<stop stop-color="#A0A0A0"/>
<stop offset="0.52723" stop-color="#ECECEC"/>
<stop offset="1" stop-color="#A0A0A0"/>
</linearGradient>
<linearGradient id="paint2_linear_63_10125" x1="539.325" y1="-22.4738" x2="5.15716" y2="69.0713" gradientUnits="userSpaceOnUse">
<stop stop-color="#A0A0A0"/>
<stop offset="0.52723" stop-color="#ECECEC"/>
<stop offset="1" stop-color="#A0A0A0"/>
</linearGradient>
<linearGradient id="paint3_linear_63_10125" x1="539.325" y1="-22.4738" x2="5.15716" y2="69.0713" gradientUnits="userSpaceOnUse">
<stop stop-color="#A0A0A0"/>
<stop offset="0.52723" stop-color="#ECECEC"/>
<stop offset="1" stop-color="#A0A0A0"/>
</linearGradient>
<linearGradient id="paint4_linear_63_10125" x1="539.325" y1="-22.4738" x2="5.15716" y2="69.0713" gradientUnits="userSpaceOnUse">
<stop stop-color="#A0A0A0"/>
<stop offset="0.52723" stop-color="#ECECEC"/>
<stop offset="1" stop-color="#A0A0A0"/>
</linearGradient>
<linearGradient id="paint5_linear_63_10125" x1="539.325" y1="-22.4738" x2="5.15716" y2="69.0713" gradientUnits="userSpaceOnUse">
<stop stop-color="#A0A0A0"/>
<stop offset="0.52723" stop-color="#ECECEC"/>
<stop offset="1" stop-color="#A0A0A0"/>
</linearGradient>
<linearGradient id="paint6_linear_63_10125" x1="539.325" y1="-22.4738" x2="5.15716" y2="69.0713" gradientUnits="userSpaceOnUse">
<stop stop-color="#A0A0A0"/>
<stop offset="0.52723" stop-color="#ECECEC"/>
<stop offset="1" stop-color="#A0A0A0"/>
</linearGradient>
<linearGradient id="paint7_linear_63_10125" x1="539.325" y1="-22.4738" x2="5.15716" y2="69.0713" gradientUnits="userSpaceOnUse">
<stop stop-color="#A0A0A0"/>
<stop offset="0.52723" stop-color="#ECECEC"/>
<stop offset="1" stop-color="#A0A0A0"/>
</linearGradient>
<linearGradient id="paint8_linear_63_10125" x1="539.325" y1="-22.4738" x2="5.15716" y2="69.0713" gradientUnits="userSpaceOnUse">
<stop stop-color="#A0A0A0"/>
<stop offset="0.52723" stop-color="#ECECEC"/>
<stop offset="1" stop-color="#A0A0A0"/>
</linearGradient>
<linearGradient id="paint9_linear_63_10125" x1="539.325" y1="-22.4738" x2="5.15716" y2="69.0713" gradientUnits="userSpaceOnUse">
<stop stop-color="#A0A0A0"/>
<stop offset="0.52723" stop-color="#ECECEC"/>
<stop offset="1" stop-color="#A0A0A0"/>
</linearGradient>
<linearGradient id="paint10_linear_63_10125" x1="539.325" y1="-22.4738" x2="5.15716" y2="69.0713" gradientUnits="userSpaceOnUse">
<stop stop-color="#A0A0A0"/>
<stop offset="0.52723" stop-color="#ECECEC"/>
<stop offset="1" stop-color="#A0A0A0"/>
</linearGradient>
</defs>
</svg>
