<svg width="641" height="105" viewBox="0 0 641 105" fill="none" xmlns="http://www.w3.org/2000/svg">
<g style="mix-blend-mode:multiply" filter="url(#filter0_d_50_7248)">
<path d="M23.6534 66.5994C22.193 65.1284 20.9723 63.4452 19.9911 61.5497L28.8932 54.7432C29.6231 55.7087 30.3631 56.5717 31.1133 57.3322C32.0459 58.2776 32.9942 59.0647 33.9582 59.6934C35.6977 60.7763 37.7698 61.3177 40.1744 61.3177C43.6534 61.3177 45.3929 60.0801 45.3929 57.6051C45.3929 56.5222 45.0604 55.6972 44.3952 55.13C43.7301 54.5628 42.3488 53.8151 40.2511 52.8869L35.0326 50.5665C31.3896 48.9395 28.5232 47.0735 26.4335 44.9684C23.6222 42.1364 22.2166 38.8718 22.2166 35.1746C22.2166 30.6885 23.8538 27.0532 27.1281 24.2687C30.4536 21.4843 34.7257 20.092 39.9442 20.092C45.7126 20.092 50.2869 21.7947 53.6672 25.2002C55.0839 26.6274 56.2908 28.3537 57.288 30.3791L48.4626 37.1856C47.7365 36.1024 47.0103 35.1938 46.2842 34.4596C45.7313 33.9007 45.1784 33.4429 44.6255 33.0862C43.3464 32.2096 41.8372 31.7713 40.0977 31.7713C37.0791 31.7713 35.5698 32.8542 35.5698 35.0199C35.5698 35.948 35.8768 36.7215 36.4907 37.3403C37.1558 37.9075 38.307 38.5263 39.9442 39.1966L45.7766 41.6717C49.7336 43.3485 52.7421 45.2245 54.8021 47.2996C55.086 47.5855 55.3518 47.8753 55.5997 48.1688C57.6973 50.5407 58.7461 53.5057 58.7461 57.0636C58.7461 61.9107 56.9811 65.778 53.4509 68.6656C49.9719 71.5532 45.5464 72.997 40.1744 72.997C35.6722 72.997 31.6304 71.9915 28.049 69.9805C26.3995 69.0167 24.9343 67.8897 23.6534 66.5994Z" fill="#292929"/>
<path d="M63.6247 46.5445C63.4712 39.2739 66.106 33.0089 71.5292 27.7493C77.0035 22.4898 83.4499 19.9373 90.8684 20.092C98.2868 19.9373 104.733 22.4898 110.208 27.7493C115.733 33.0089 118.419 39.2739 118.266 46.5445C118.419 53.8666 115.733 60.1317 110.208 65.3397C104.733 70.5477 98.2868 73.1001 90.8684 72.997C83.3988 73.1001 76.9524 70.5477 71.5292 65.3397C66.106 60.1317 63.4712 53.8666 63.6247 46.5445ZM104.759 46.5445C104.759 42.3678 103.429 38.9646 100.768 36.3348C98.1589 33.6534 94.8846 32.3128 90.9451 32.3128C86.8522 32.3128 83.5267 33.6276 80.9686 36.2574C78.4105 38.8872 77.1314 42.3162 77.1314 46.5445C77.1314 50.7728 78.4105 54.2276 80.9686 56.9089C83.5267 59.4871 86.8522 60.7763 90.9451 60.7763C94.9357 60.7763 98.2357 59.4614 100.845 56.8316C103.454 54.2018 104.759 50.7728 104.759 46.5445Z" fill="#292929"/>
<path d="M125.815 72.0688V21.0202H139.014V60.0801H159.965V72.0688H125.815Z" fill="#292929"/>
<path d="M190.379 21.0202H205.344L182.321 72.997H178.1L155.077 21.0202H170.042L180.249 46.0804L190.379 21.0202Z" fill="#292929"/>
<path d="M210.576 72.0688V21.0202H245.724V33.0089H223.776V40.0474H239.432V51.1853H223.776V60.0801H246.645V72.0688H210.576Z" fill="#292929"/>
<path d="M303.713 72.0688L301.871 67.8148H283.683L281.841 72.0688H267.643L290.666 20.092H294.887L317.91 72.0688H303.713ZM297.189 57.141L292.815 45.307L288.364 57.141H297.189Z" fill="#292929"/>
<path d="M340.829 72.0688V21.0202H360.705C366.384 21.0202 371.066 22.6444 374.749 25.893C378.433 29.09 380.275 33.3183 380.275 38.5778C380.275 43.7343 378.407 47.9625 374.673 51.2626C370.938 54.5628 366.282 56.2128 360.705 56.2128H354.029V72.0688H340.829ZM354.029 44.6108H360.782C362.624 44.6108 364.082 44.0694 365.157 42.9866C366.282 41.8522 366.845 40.3826 366.845 38.5778C366.845 36.7731 366.282 35.3293 365.157 34.2464C364.082 33.1636 362.624 32.6221 360.782 32.6221H354.029V44.6108Z" fill="#292929"/>
<path d="M387.137 50.4118V21.0202H400.337V51.4173C400.337 54.3049 401.181 56.5995 402.87 58.3012C404.558 59.9512 406.783 60.7763 409.546 60.7763C412.309 60.7763 414.535 59.9512 416.223 58.3012C417.911 56.5995 418.755 54.3049 418.755 51.4173V21.0202H431.955V50.4118C431.955 57.0636 429.832 62.5037 425.585 66.7319C421.339 70.9086 415.993 72.997 409.546 72.997C402.997 72.997 397.625 70.9344 393.43 66.8093C389.235 62.6326 387.137 57.1668 387.137 50.4118Z" fill="#292929"/>
<path d="M457.665 60.0801H479.997V72.0688H437.635V68.5882L459.813 33.0089H440.935V21.0202H479.92V24.5008L457.665 60.0801Z" fill="#292929"/>
<path d="M502.706 60.0801H525.038V72.0688H482.676V68.5882L504.855 33.0089H485.976V21.0202H524.961V24.5008L502.706 60.0801Z" fill="#292929"/>
<path d="M531.862 72.0688V21.0202H545.061V60.0801H566.012V72.0688H531.862Z" fill="#292929"/>
<path d="M572.931 72.0688V21.0202H608.079V33.0089H586.131V40.0474H601.786V51.1853H586.131V60.0801H609V72.0688H572.931Z" fill="#292929"/>
<path d="M15.1371 12.1833C11.8627 14.9678 10.2256 18.6031 10.2256 23.0892L22.2166 35.1746C22.2166 30.6885 23.8538 27.0532 27.1281 24.2687L15.1371 12.1833Z" fill="#292929"/>
<path d="M27.9531 8.00664C22.7346 8.00664 18.4626 9.39887 15.1371 12.1833L27.1281 24.2687C30.4536 21.4843 34.7257 20.092 39.9442 20.092L27.9531 8.00664Z" fill="#292929"/>
<path d="M10.2256 23.0892C10.2256 26.7864 11.6312 30.051 14.4424 32.883L26.4271 44.9619C23.6201 42.1314 22.2166 38.869 22.2166 35.1746L10.2256 23.0892Z" fill="#292929"/>
<path d="M41.6762 13.1148C38.2959 9.70937 33.7215 8.00664 27.9531 8.00664L39.9442 20.092C45.7126 20.092 50.2869 21.7947 53.6672 25.2002L41.6762 13.1148Z" fill="#292929"/>
<path d="M23.5788 22.9345C23.5788 20.7688 25.0881 19.686 28.1066 19.686L40.0977 31.7713C37.0791 31.7713 35.5698 32.8542 35.5698 35.0199L23.5788 22.9345Z" fill="#292929"/>
<path d="M24.4997 25.2549C23.8858 24.6361 23.5788 23.8627 23.5788 22.9345L35.5698 35.0199C35.5698 35.948 35.8768 36.7215 36.4907 37.3403L24.4997 25.2549Z" fill="#292929"/>
<path d="M28.1066 19.686C29.8461 19.686 31.3554 20.1243 32.6344 21.0008L44.6255 33.0862C43.3464 32.2096 41.8372 31.7713 40.0977 31.7713L28.1066 19.686Z" fill="#292929"/>
<path d="M27.9531 27.1112C26.3159 26.4408 25.1648 25.8221 24.4997 25.2549L36.4907 37.3403C37.1558 37.9075 38.307 38.5263 39.9442 39.1966L27.9531 27.1112Z" fill="#292929"/>
<path d="M14.4424 32.883C16.5321 34.9881 19.3985 36.8541 23.0416 38.4811L35.0326 50.5665C31.3896 48.9395 28.5232 47.0735 26.4335 44.9684L14.4424 32.883Z" fill="#292929"/>
<path d="M32.6344 21.0008C33.1873 21.3575 33.7402 21.8153 34.2931 22.3743L46.2558 34.4311C45.7123 33.885 45.1689 33.4368 44.6255 33.0862L32.6344 21.0008Z" fill="#292929"/>
<path d="M16.9022 42.6578L8 49.4643L19.9911 61.5497L28.8932 54.7432L16.9022 42.6578Z" fill="#292929"/>
<path d="M34.2931 22.3743C35.0193 23.1084 35.7455 24.017 36.4716 25.1002L48.4626 37.1856C47.7365 36.1024 47.0103 35.1938 46.2842 34.4596L34.2931 22.3743Z" fill="#292929"/>
<path d="M33.7856 29.5863L27.9531 27.1112L39.9442 39.1966L45.7766 41.6717L33.7856 29.5863Z" fill="#292929"/>
<path d="M45.297 18.2937C44.3009 16.2707 43.0956 14.5461 41.6811 13.1198L53.6672 25.2002C55.0839 26.6274 56.2908 28.3537 57.288 30.3791L45.297 18.2937Z" fill="#292929"/>
<path d="M8 49.4643C8.9812 51.3598 10.202 53.043 11.6623 54.5141L23.6456 66.5916C22.1887 65.1224 20.9705 63.4418 19.9911 61.5497L8 49.4643Z" fill="#292929"/>
<path d="M19.1222 45.2468C18.3721 44.4863 17.632 43.6233 16.9022 42.6578L28.8932 54.7432C29.6231 55.7087 30.3631 56.5717 31.1133 57.3322L19.1222 45.2468Z" fill="#292929"/>
<path d="M36.4716 25.1002L45.297 18.2937L57.288 30.3791L48.4626 37.1856L36.4716 25.1002Z" fill="#292929"/>
<path d="M23.0416 38.4811L28.2601 40.8015L40.2511 52.8869L35.0326 50.5665L23.0416 38.4811Z" fill="#292929"/>
<path d="M19.2106 45.3359C19.1811 45.3064 19.1517 45.2767 19.1222 45.2468L19.2106 45.3359C20.1147 46.2418 21.0336 46.9992 21.9672 47.6081L33.9582 59.6934C32.9942 59.0647 32.0459 58.2776 31.1133 57.3322L19.2106 45.3359Z" fill="#292929"/>
<path d="M11.6623 54.5141C12.9432 55.8043 14.4085 56.9313 16.058 57.8951L28.049 69.9805C26.3995 69.0167 24.9343 67.8897 23.6534 66.5994L11.6623 54.5141Z" fill="#292929"/>
<path d="M42.811 35.2142C40.751 33.1391 37.7425 31.2631 33.7856 29.5863L45.7766 41.6717C49.7336 43.3485 52.7421 45.2245 54.8021 47.2996L42.811 35.2142Z" fill="#292929"/>
<path d="M28.2601 40.8015C30.3577 41.7297 31.7391 42.4774 32.4042 43.0446L44.3952 55.13C43.7301 54.5628 42.3488 53.8151 40.2511 52.8869L28.2601 40.8015Z" fill="#292929"/>
<path d="M28.1834 49.2323C25.7787 49.2323 23.7067 48.6909 21.9672 47.6081L33.9582 59.6934C35.6977 60.7763 37.7698 61.3177 40.1744 61.3177L28.1834 49.2323Z" fill="#292929"/>
<path d="M33.4018 45.5197C33.4018 44.6251 33.1749 43.9066 32.721 43.3639L32.4042 43.0446C32.5199 43.1432 32.6255 43.2497 32.721 43.3639L44.3952 55.13C45.0604 55.6972 45.3929 56.5222 45.3929 57.6051L33.4018 45.5197Z" fill="#292929"/>
<path d="M33.4018 45.5197C33.4018 47.9948 31.6624 49.2323 28.1834 49.2323L40.1744 61.3177C43.6534 61.3177 45.3929 60.0801 45.3929 57.6051L33.4018 45.5197Z" fill="#292929"/>
<path d="M43.6086 36.0834C43.3625 35.7919 43.0986 35.5042 42.817 35.2202L54.8021 47.2996C55.086 47.5855 55.3518 47.8753 55.5997 48.1688L43.6086 36.0834Z" fill="#292929"/>
<path d="M59.5382 15.6639C54.115 20.9235 51.4802 27.1886 51.6337 34.4591L63.6247 46.5445C63.4712 39.2739 66.106 33.0089 71.5292 27.7493L59.5382 15.6639Z" fill="#292929"/>
<path d="M78.8774 8.00663C71.4589 7.85194 65.0125 10.4044 59.5382 15.6639L71.5292 27.7493C77.0035 22.4898 83.4499 19.9373 90.8684 20.092L78.8774 8.00663Z" fill="#292929"/>
<path d="M16.058 57.8951C19.6394 59.9061 23.6811 60.9116 28.1834 60.9116L40.1744 72.997C35.6722 72.997 31.6304 71.9915 28.049 69.9805L16.058 57.8951Z" fill="#292929"/>
<path d="M46.7551 44.9782C46.7551 41.4203 45.7062 38.4553 43.6086 36.0834L55.5997 48.1688C57.6973 50.5407 58.7461 53.5057 58.7461 57.0636L46.7551 44.9782Z" fill="#292929"/>
<path d="M28.1834 60.9116C33.5554 60.9116 37.9808 59.4678 41.4598 56.5802L53.4509 68.6656C49.9719 71.5532 45.5464 72.997 40.1744 72.997L28.1834 60.9116Z" fill="#292929"/>
<path d="M41.4598 56.5802C44.99 53.6926 46.7551 49.8253 46.7551 44.9782L58.7461 57.0636C58.7461 61.9107 56.9811 65.778 53.4509 68.6656L41.4598 56.5802Z" fill="#292929"/>
<path d="M68.9775 24.172C71.5356 21.5423 74.8611 20.2274 78.954 20.2274L90.9451 32.3128C86.8522 32.3128 83.5267 33.6276 80.9686 36.2574L68.9775 24.172Z" fill="#292929"/>
<path d="M65.1404 34.4591C65.1404 30.2308 66.4194 26.8018 68.9775 24.172L80.9686 36.2574C78.4105 38.8872 77.1314 42.3162 77.1314 46.5445L65.1404 34.4591Z" fill="#292929"/>
<path d="M59.5382 53.2543C54.115 48.0463 51.4802 41.7813 51.6337 34.4591L63.6247 46.5445C63.4814 53.3785 65.7672 59.2917 70.4818 64.284L71.5292 65.3397C71.1677 64.9925 70.8185 64.6406 70.4818 64.284L59.5382 53.2543Z" fill="#292929"/>
<path d="M98.2165 15.6639C92.7422 10.4044 86.2958 7.85194 78.8774 8.00663L90.8684 20.092C98.2868 19.9373 104.733 22.4898 110.208 27.7493L98.2165 15.6639Z" fill="#292929"/>
<path d="M78.954 20.2274C82.8935 20.2274 86.1679 21.5681 88.7771 24.2494L100.566 36.1312C100.634 36.1982 100.701 36.266 100.768 36.3348L100.566 36.1312C97.9906 33.5856 94.7836 32.3128 90.9451 32.3128L78.954 20.2274Z" fill="#292929"/>
<path d="M68.9775 44.8236C66.4194 42.1422 65.1404 38.6874 65.1404 34.4591L77.1314 46.5445C77.1314 50.7728 78.4105 54.2276 80.9686 56.9089L68.9775 44.8236Z" fill="#292929"/>
<path d="M92.7678 34.4591C92.7678 30.3843 91.5017 27.0456 88.9694 24.4432L88.7771 24.2494C88.842 24.3135 88.9061 24.3781 88.9694 24.4432L100.768 36.3348C103.429 38.9646 104.759 42.3678 104.759 46.5445L92.7678 34.4591Z" fill="#292929"/>
<path d="M78.954 48.6909C74.8611 48.6909 71.5356 47.4018 68.9775 44.8236L80.9686 56.9089C83.5267 59.4871 86.8522 60.7763 90.9451 60.7763L78.954 48.6909Z" fill="#292929"/>
<path d="M59.5382 53.2543C64.9613 58.4623 71.4077 61.0148 78.8774 60.9116L90.8684 72.997C83.3988 73.1001 76.9524 70.5477 71.5292 65.3397L59.5382 53.2543Z" fill="#292929"/>
<path d="M98.2165 15.6639C98.6586 16.0847 99.0824 16.5119 99.4881 16.9455L110.208 27.7493C115.733 33.0089 118.419 39.2739 118.266 46.5445L106.274 34.4591C106.416 27.7702 104.154 21.9323 99.4881 16.9455L98.2165 15.6639Z" fill="#292929"/>
<path d="M127.023 8.9348H113.823L125.815 21.0202H139.014L127.023 8.9348Z" fill="#292929"/>
<path d="M92.7678 34.4591C92.7678 38.6874 91.4632 42.1164 88.8539 44.7462L100.845 56.8316C103.454 54.2018 104.759 50.7728 104.759 46.5445L92.7678 34.4591Z" fill="#292929"/>
<path d="M88.8539 44.7462C86.2447 47.376 82.9447 48.6909 78.954 48.6909L90.9451 60.7763C94.9357 60.7763 98.2357 59.4614 100.845 56.8316L88.8539 44.7462Z" fill="#292929"/>
<path d="M78.8774 60.9116C86.2958 61.0148 92.7422 58.4623 98.2165 53.2543L110.208 65.3397C104.733 70.5477 98.2868 73.1001 90.8684 72.997L78.8774 60.9116Z" fill="#292929"/>
<path d="M98.2165 53.2543C103.742 48.0463 106.428 41.7813 106.274 34.4591L118.266 46.5445C118.419 53.8666 115.733 60.1317 110.208 65.3397L98.2165 53.2543Z" fill="#292929"/>
<path d="M113.823 8.9348V59.9835L125.815 72.0688V21.0202L113.823 8.9348Z" fill="#292929"/>
<path d="M127.023 47.9948L127.023 8.9348L139.014 21.0202V60.0801L127.023 47.9948Z" fill="#292929"/>
<path d="M158.051 8.9348H143.086L155.077 21.0202H170.042L158.051 8.9348Z" fill="#292929"/>
<path d="M168.258 33.9951L158.051 8.9348L170.042 21.0202L180.249 46.0804L168.258 33.9951Z" fill="#292929"/>
<path d="M147.974 47.9948L127.023 47.9948L139.014 60.0801H159.965L147.974 47.9948Z" fill="#292929"/>
<path d="M143.086 8.9348L166.109 60.9116L178.1 72.997L155.077 21.0202L143.086 8.9348Z" fill="#292929"/>
<path d="M113.823 59.9835L147.974 59.9835L159.965 72.0688H125.815L113.823 59.9835Z" fill="#292929"/>
<path d="M178.388 8.9348L168.258 33.9951L180.249 46.0804L190.379 21.0202L178.388 8.9348Z" fill="#292929"/>
<path d="M193.353 8.9348H178.388L190.379 21.0202H205.344L193.353 8.9348Z" fill="#292929"/>
<path d="M147.974 59.9835L147.974 47.9948L159.965 60.0801V72.0688L147.974 59.9835Z" fill="#292929"/>
<path d="M170.33 60.9116L193.353 8.9348L205.344 21.0202L182.321 72.997L170.33 60.9116Z" fill="#292929"/>
<path d="M233.733 8.9348H198.585L210.576 21.0202H245.724L233.733 8.9348Z" fill="#292929"/>
<path d="M166.109 60.9116H170.33L182.321 72.997H178.1L166.109 60.9116Z" fill="#292929"/>
<path d="M198.585 8.9348V59.9835L210.576 72.0688V21.0202L198.585 8.9348Z" fill="#292929"/>
<path d="M211.785 27.962V20.9235L223.776 33.0089V40.0474L211.785 27.962Z" fill="#292929"/>
<path d="M211.785 20.9235H233.733L245.724 33.0089H223.776L211.785 20.9235Z" fill="#292929"/>
<path d="M227.441 27.9621L211.785 27.962L223.776 40.0474H239.432L227.441 27.9621Z" fill="#292929"/>
<path d="M233.733 20.9235V8.9348L245.724 21.0202V33.0089L233.733 20.9235Z" fill="#292929"/>
<path d="M211.785 47.9947V39.0999L223.776 51.1853V60.0801L211.785 47.9947Z" fill="#292929"/>
<path d="M211.785 39.0999H227.441L239.432 51.1853H223.776L211.785 39.0999Z" fill="#292929"/>
<path d="M227.441 39.0999V27.9621L239.432 40.0474V51.1853L227.441 39.0999Z" fill="#292929"/>
<path d="M234.654 47.9948L211.785 47.9947L223.776 60.0801H246.645L234.654 47.9948Z" fill="#292929"/>
<path d="M198.585 59.9835L234.654 59.9835L246.645 72.0688H210.576L198.585 59.9835Z" fill="#292929"/>
<path d="M234.654 59.9835V47.9948L246.645 60.0801V72.0688L234.654 59.9835Z" fill="#292929"/>
<path d="M282.896 8.00664H278.675L290.666 20.092H294.887L282.896 8.00664Z" fill="#292929"/>
<path d="M278.675 8.00664L255.652 59.9835L267.643 72.0688L290.666 20.092L278.675 8.00664Z" fill="#292929"/>
<path d="M276.373 45.0556L280.824 33.2216L292.815 45.307L288.364 57.141L276.373 45.0556Z" fill="#292929"/>
<path d="M280.824 33.2216L285.198 45.0556L297.189 57.141L292.815 45.307L280.824 33.2216Z" fill="#292929"/>
<path d="M255.652 59.9835L269.85 59.9835L281.841 72.0688H267.643L255.652 59.9835Z" fill="#292929"/>
<path d="M285.198 45.0556H276.373L288.364 57.141H297.189L285.198 45.0556Z" fill="#292929"/>
<path d="M305.919 59.9835L282.896 8.00664L294.887 20.092L317.91 72.0688L305.919 59.9835Z" fill="#292929"/>
<path d="M269.85 59.9835L271.692 55.7294L283.683 67.8148L281.841 72.0688L269.85 59.9835Z" fill="#292929"/>
<path d="M271.692 55.7294H289.88L301.871 67.8148H283.683L271.692 55.7294Z" fill="#292929"/>
<path d="M348.714 8.9348H328.838L340.829 21.0202H360.705L348.714 8.9348Z" fill="#292929"/>
<path d="M289.88 55.7294L291.722 59.9834L303.713 72.0688L301.871 67.8148L289.88 55.7294Z" fill="#292929"/>
<path d="M291.722 59.9834L305.919 59.9835L317.91 72.0688H303.713L291.722 59.9834Z" fill="#292929"/>
<path d="M328.838 8.9348V59.9835L340.829 72.0688V21.0202L328.838 8.9348Z" fill="#292929"/>
<path d="M342.038 20.5367H348.791L360.782 32.6221H354.029L342.038 20.5367Z" fill="#292929"/>
<path d="M362.758 13.8076C359.075 10.5591 354.393 8.9348 348.714 8.9348L360.705 21.0202C366.384 21.0202 371.066 22.6444 374.749 25.893L362.758 13.8076Z" fill="#292929"/>
<path d="M342.038 32.5254V20.5367L354.029 32.6221V44.6108L342.038 32.5254Z" fill="#292929"/>
<path d="M348.791 20.5367C350.633 20.5367 352.091 21.0782 353.166 22.161L365.157 34.2464C364.082 33.1636 362.624 32.6221 360.782 32.6221L348.791 20.5367Z" fill="#292929"/>
<path d="M348.791 32.5255L342.038 32.5254L354.029 44.6108H360.782L348.791 32.5255Z" fill="#292929"/>
<path d="M354.854 26.4924C354.854 24.7879 354.352 23.4054 353.348 22.3448L353.166 22.161C353.228 22.2212 353.289 22.2824 353.348 22.3448L365.157 34.2464C366.282 35.3293 366.845 36.7731 366.845 38.5778L354.854 26.4924Z" fill="#292929"/>
<path d="M353.166 30.9012C352.091 31.984 350.633 32.5255 348.791 32.5255L360.782 44.6108C362.624 44.6108 364.082 44.0694 365.157 42.9866L353.166 30.9012Z" fill="#292929"/>
<path d="M354.854 26.4924C354.854 28.2972 354.291 29.7667 353.166 30.9012L365.157 42.9866C366.282 41.8522 366.845 40.3826 366.845 38.5778L354.854 26.4924Z" fill="#292929"/>
<path d="M362.758 13.8076C363.416 14.3785 364.015 14.9823 364.555 15.6189L374.749 25.893C378.433 29.09 380.275 33.3183 380.275 38.5778L368.284 26.4924C368.284 22.1721 367.041 18.5476 364.555 15.6189L362.758 13.8076Z" fill="#292929"/>
<path d="M342.038 44.1274H348.714L360.705 56.2128H354.029L342.038 44.1274Z" fill="#292929"/>
<path d="M388.346 8.9348H375.146L387.137 21.0202H400.337L388.346 8.9348Z" fill="#292929"/>
<path d="M342.038 59.9835V44.1274L354.029 56.2128V72.0688L342.038 59.9835Z" fill="#292929"/>
<path d="M328.838 59.9835L342.038 59.9835L354.029 72.0688H340.829L328.838 59.9835Z" fill="#292929"/>
<path d="M348.714 44.1274C354.291 44.1274 358.947 42.4774 362.682 39.1773L374.673 51.2626C370.938 54.5628 366.282 56.2128 360.705 56.2128L348.714 44.1274Z" fill="#292929"/>
<path d="M362.682 39.1773C366.416 35.8771 368.284 31.6489 368.284 26.4924L380.275 38.5778C380.275 43.7343 378.407 47.9625 374.673 51.2626L362.682 39.1773Z" fill="#292929"/>
<path d="M375.146 8.9348V38.3265L387.137 50.4118V21.0202L375.146 8.9348Z" fill="#292929"/>
<path d="M388.346 39.332L388.346 8.9348L400.337 21.0202V51.4173L388.346 39.332Z" fill="#292929"/>
<path d="M419.964 8.9348H406.764L418.755 21.0202H431.955L419.964 8.9348Z" fill="#292929"/>
<path d="M381.439 54.7239C377.244 50.5472 375.146 45.0814 375.146 38.3265L387.137 50.4118C387.137 57.0644 389.172 62.4667 393.241 66.6186L393.43 66.8093C393.367 66.746 393.304 66.6824 393.241 66.6186L381.439 54.7239Z" fill="#292929"/>
<path d="M406.764 8.9348V39.332L418.755 51.4173V21.0202L406.764 8.9348Z" fill="#292929"/>
<path d="M390.879 46.2158C389.19 44.5141 388.346 42.2196 388.346 39.332L400.337 51.4173C400.337 54.3049 401.181 56.5995 402.87 58.3012L390.879 46.2158Z" fill="#292929"/>
<path d="M397.555 48.6909C394.792 48.6909 392.567 47.8658 390.879 46.2158L402.87 58.3012C404.558 59.9512 406.783 60.7763 409.546 60.7763L397.555 48.6909Z" fill="#292929"/>
<path d="M419.964 38.3265V8.9348L431.955 21.0202V50.4118L419.964 38.3265Z" fill="#292929"/>
<path d="M428.944 8.9348V20.9235L440.935 33.0089V21.0202L428.944 8.9348Z" fill="#292929"/>
<path d="M381.439 54.7239C385.634 58.8491 391.006 60.9116 397.555 60.9116L409.546 72.997C402.997 72.997 397.625 70.9344 393.43 66.8093L381.439 54.7239Z" fill="#292929"/>
<path d="M406.764 39.332C406.764 42.2196 405.92 44.5141 404.232 46.2158L416.223 58.3012C417.911 56.5995 418.755 54.3049 418.755 51.4173L406.764 39.332Z" fill="#292929"/>
<path d="M404.232 46.2158C402.543 47.8658 400.318 48.6909 397.555 48.6909L409.546 60.7763C412.309 60.7763 414.535 59.9512 416.223 58.3012L404.232 46.2158Z" fill="#292929"/>
<path d="M467.929 8.9348H428.944L440.935 21.0202H479.92L467.929 8.9348Z" fill="#292929"/>
<path d="M428.944 20.9235L447.822 20.9235L459.813 33.0089H440.935L428.944 20.9235Z" fill="#292929"/>
<path d="M397.555 60.9116C404.002 60.9116 409.348 58.8232 413.594 54.6465L425.585 66.7319C421.339 70.9086 415.993 72.997 409.546 72.997L397.555 60.9116Z" fill="#292929"/>
<path d="M413.594 54.6465C417.841 50.4183 419.964 44.9783 419.964 38.3265L431.955 50.4118C431.955 57.0636 429.832 62.5037 425.585 66.7319L413.594 54.6465Z" fill="#292929"/>
<path d="M447.822 20.9235L425.644 56.5029L437.635 68.5882L459.813 33.0089L447.822 20.9235Z" fill="#292929"/>
<path d="M467.929 12.4154L467.929 8.9348L479.92 21.0202V24.5008L467.929 12.4154Z" fill="#292929"/>
<path d="M425.644 56.5029V59.9834L437.635 72.0688V68.5882L425.644 56.5029Z" fill="#292929"/>
<path d="M445.673 47.9948L467.929 12.4154L479.92 24.5008L457.665 60.0801L445.673 47.9948Z" fill="#292929"/>
<path d="M473.985 8.9348V20.9235L485.976 33.0089V21.0202L473.985 8.9348Z" fill="#292929"/>
<path d="M512.97 8.9348H473.985L485.976 21.0202H524.961L512.97 8.9348Z" fill="#292929"/>
<path d="M473.985 20.9235L492.864 20.9235L504.855 33.0089H485.976L473.985 20.9235Z" fill="#292929"/>
<path d="M468.006 47.9948H445.673L457.665 60.0801H479.997L468.006 47.9948Z" fill="#292929"/>
<path d="M425.644 59.9834L468.006 59.9835L479.997 72.0688H437.635L425.644 59.9834Z" fill="#292929"/>
<path d="M492.864 20.9235L470.685 56.5029L482.676 68.5882L504.855 33.0089L492.864 20.9235Z" fill="#292929"/>
<path d="M468.006 59.9835L468.006 47.9948L479.997 60.0801V72.0688L468.006 59.9835Z" fill="#292929"/>
<path d="M512.97 12.4154L512.97 8.9348L524.961 21.0202V24.5008L512.97 12.4154Z" fill="#292929"/>
<path d="M470.685 56.5029V59.9834L482.676 72.0688V68.5882L470.685 56.5029Z" fill="#292929"/>
<path d="M490.715 47.9948L512.97 12.4154L524.961 24.5008L502.706 60.0801L490.715 47.9948Z" fill="#292929"/>
<path d="M533.07 8.9348H519.871L531.862 21.0202H545.061L533.07 8.9348Z" fill="#292929"/>
<path d="M513.047 47.9948H490.715L502.706 60.0801H525.038L513.047 47.9948Z" fill="#292929"/>
<path d="M470.685 59.9834L513.047 59.9835L525.038 72.0688H482.676L470.685 59.9834Z" fill="#292929"/>
<path d="M519.871 8.9348V59.9835L531.862 72.0688V21.0202L519.871 8.9348Z" fill="#292929"/>
<path d="M533.07 47.9948V8.9348L545.061 21.0202V60.0801L533.07 47.9948Z" fill="#292929"/>
<path d="M513.047 59.9835L513.047 47.9948L525.038 60.0801V72.0688L513.047 59.9835Z" fill="#292929"/>
<path d="M596.088 8.9348H560.94L572.931 21.0202H608.079L596.088 8.9348Z" fill="#292929"/>
<path d="M554.021 47.9948L533.07 47.9948L545.061 60.0801H566.012L554.021 47.9948Z" fill="#292929"/>
<path d="M560.94 8.9348V59.9835L572.931 72.0688V21.0202L560.94 8.9348Z" fill="#292929"/>
<path d="M519.871 59.9835L554.021 59.9835L566.012 72.0688H531.862L519.871 59.9835Z" fill="#292929"/>
<path d="M574.14 27.962V20.9235L586.131 33.0089V40.0474L574.14 27.962Z" fill="#292929"/>
<path d="M574.14 20.9235H596.088L608.079 33.0089H586.131L574.14 20.9235Z" fill="#292929"/>
<path d="M554.021 59.9835V47.9948L566.012 60.0801V72.0688L554.021 59.9835Z" fill="#292929"/>
<path d="M589.795 27.9621L574.14 27.962L586.131 40.0474H601.786L589.795 27.9621Z" fill="#292929"/>
<path d="M596.088 20.9235V8.9348L608.079 21.0202V33.0089L596.088 20.9235Z" fill="#292929"/>
<path d="M574.14 47.9947V39.0999L586.131 51.1853V60.0801L574.14 47.9947Z" fill="#292929"/>
<path d="M574.14 39.0999H589.795L601.786 51.1853H586.131L574.14 39.0999Z" fill="#292929"/>
<path d="M589.795 39.0999V27.9621L601.786 40.0474V51.1853L589.795 39.0999Z" fill="#292929"/>
<path d="M597.009 47.9948L574.14 47.9947L586.131 60.0801H609L597.009 47.9948Z" fill="#292929"/>
<path d="M560.94 59.9835L597.009 59.9835L609 72.0688H572.931L560.94 59.9835Z" fill="#292929"/>
<path d="M597.009 59.9835V47.9948L609 60.0801V72.0688L597.009 59.9835Z" fill="#292929"/>
</g>
<path d="M8 49.5312L16.902 42.7138C18.5392 44.883 20.2275 46.5357 21.967 47.6719C23.7064 48.7565 25.7785 49.2988 28.183 49.2988C31.662 49.2988 33.4015 48.0593 33.4015 45.5802C33.4015 44.4956 33.0689 43.6693 32.4038 43.1011C31.7387 42.533 30.3574 41.7841 28.2598 40.8545L23.0413 38.5303C14.4975 34.7084 10.2255 29.5695 10.2255 23.1135C10.2255 18.6202 11.8627 14.9791 15.137 12.1901C18.4624 9.40112 22.7344 8.00664 27.9528 8.00664C36.1386 8.00664 41.9198 11.4412 45.2964 18.3103L36.4711 25.1278C35.1921 23.2168 33.9131 21.8482 32.634 21.0218C31.355 20.1438 29.8458 19.7048 28.1063 19.7048C25.0878 19.7048 23.5785 20.7894 23.5785 22.9586C23.5785 23.8883 23.8855 24.663 24.4994 25.2827C25.1645 25.8509 26.3157 26.4706 27.9528 27.142L33.7852 29.6211C38.2873 31.5321 41.5617 33.7013 43.6081 36.1287C45.7057 38.5045 46.7545 41.4742 46.7545 45.0379C46.7545 49.8928 44.9894 53.7663 41.4593 56.6586C37.9804 59.5509 33.5549 60.997 28.183 60.997C23.6809 60.997 19.6391 59.9899 16.0579 57.9756C12.5278 55.9097 9.8418 53.0949 8 49.5312Z" fill="url(#paint0_linear_50_7248)"/>
<path d="M51.633 34.5018C51.4795 27.2195 54.1143 20.9443 59.5374 15.6763C65.0116 10.4083 71.4579 7.8517 78.8762 8.00664C86.2946 7.8517 92.7409 10.4083 98.2151 15.6763C103.741 20.9443 106.426 27.2195 106.273 34.5018C106.426 41.8358 103.741 48.1109 98.2151 53.3273C92.7409 58.5437 86.2946 61.1003 78.8762 60.997C71.4067 61.1003 64.9604 58.5437 59.5374 53.3273C54.1143 48.1109 51.4795 41.8358 51.633 34.5018ZM92.7665 34.5018C92.7665 30.3184 91.4363 26.9096 88.7759 24.2756C86.1667 21.5899 82.8924 20.2471 78.953 20.2471C74.8601 20.2471 71.5346 21.5641 68.9766 24.1981C66.4185 26.8322 65.1395 30.2667 65.1395 34.5018C65.1395 38.7369 66.4185 42.1973 68.9766 44.883C71.5346 47.4653 74.8601 48.7565 78.953 48.7565C82.9435 48.7565 86.2434 47.4395 88.8526 44.8055C91.4619 42.1715 92.7665 38.7369 92.7665 34.5018Z" fill="url(#paint1_linear_50_7248)"/>
<path d="M113.822 60.0673V8.9363H127.021V48.0593H147.972V60.0673H113.822Z" fill="url(#paint2_linear_50_7248)"/>
<path d="M178.385 8.9363H193.35L170.328 60.997H166.107L143.084 8.9363H158.049L168.256 34.037L178.385 8.9363Z" fill="url(#paint3_linear_50_7248)"/>
<path d="M198.582 60.0673V8.9363H233.73V20.9443H211.782V27.9942H227.437V39.1501H211.782V48.0593H234.651V60.0673H198.582Z" fill="url(#paint4_linear_50_7248)"/>
<path d="M291.717 60.0673L289.875 55.8064H271.688L269.846 60.0673H255.649L278.671 8.00664H282.892L305.914 60.0673H291.717ZM285.194 45.1154L280.82 33.2623L276.369 45.1154H285.194Z" fill="url(#paint5_linear_50_7248)"/>
<path d="M328.833 60.0673V8.9363H348.709C354.388 8.9363 359.069 10.5632 362.753 13.817C366.437 17.0191 368.278 21.2542 368.278 26.5223C368.278 31.687 366.411 35.9221 362.676 39.2276C358.941 42.533 354.286 44.1857 348.709 44.1857H342.033V60.0673H328.833ZM342.033 32.565H348.786C350.628 32.565 352.086 32.0227 353.16 30.9381C354.286 29.8019 354.849 28.3299 354.849 26.5223C354.849 24.7146 354.286 23.2685 353.16 22.1839C352.086 21.0993 350.628 20.557 348.786 20.557H342.033V32.565Z" fill="url(#paint6_linear_50_7248)"/>
<path d="M375.141 38.3754V8.9363H388.34V39.3825C388.34 42.2748 389.184 44.5731 390.873 46.2775C392.561 47.9302 394.787 48.7565 397.549 48.7565C400.312 48.7565 402.537 47.9302 404.226 46.2775C405.914 44.5731 406.758 42.2748 406.758 39.3825V8.9363H419.958V38.3754C419.958 45.0379 417.835 50.4867 413.588 54.7218C409.342 58.9053 403.996 60.997 397.549 60.997C391.001 60.997 385.629 58.9311 381.433 54.7993C377.238 50.6158 375.141 45.1412 375.141 38.3754Z" fill="url(#paint7_linear_50_7248)"/>
<path d="M445.667 48.0593H467.999V60.0673H425.637V56.5811L447.816 20.9443H428.937V8.9363H467.922V12.4225L445.667 48.0593Z" fill="url(#paint8_linear_50_7248)"/>
<path d="M490.708 48.0593H513.039V60.0673H470.678V56.5811L492.856 20.9443H473.978V8.9363H512.963V12.4225L490.708 48.0593Z" fill="url(#paint9_linear_50_7248)"/>
<path d="M519.863 60.0673V8.9363H533.062V48.0593H554.013V60.0673H519.863Z" fill="url(#paint10_linear_50_7248)"/>
<path d="M560.931 60.0673V8.9363H596.079V20.9443H574.131V27.9942H589.786V39.1501H574.131V48.0593H597V60.0673H560.931Z" fill="url(#paint11_linear_50_7248)"/>
<defs>
<filter id="filter0_d_50_7248" x="0" y="0" width="641" height="105" filterUnits="userSpaceOnUse" color-interpolation-filters="sRGB">
<feFlood flood-opacity="0" result="BackgroundImageFix"/>
<feColorMatrix in="SourceAlpha" type="matrix" values="0 0 0 0 0 0 0 0 0 0 0 0 0 0 0 0 0 0 127 0" result="hardAlpha"/>
<feOffset dx="12" dy="12"/>
<feGaussianBlur stdDeviation="10"/>
<feComposite in2="hardAlpha" operator="out"/>
<feColorMatrix type="matrix" values="0 0 0 0 0 0 0 0 0 0 0 0 0 0 0 0 0 0 0.65 0"/>
<feBlend mode="normal" in2="BackgroundImageFix" result="effect1_dropShadow_50_7248"/>
<feBlend mode="normal" in="SourceGraphic" in2="effect1_dropShadow_50_7248" result="shape"/>
</filter>
<linearGradient id="paint0_linear_50_7248" x1="597" y1="-22.9999" x2="8.00004" y2="87.0002" gradientUnits="userSpaceOnUse">
<stop stop-color="#A0A0A0"/>
<stop offset="0.52723" stop-color="#ECECEC"/>
<stop offset="1" stop-color="#A0A0A0"/>
</linearGradient>
<linearGradient id="paint1_linear_50_7248" x1="597" y1="-22.9999" x2="8.00004" y2="87.0002" gradientUnits="userSpaceOnUse">
<stop stop-color="#A0A0A0"/>
<stop offset="0.52723" stop-color="#ECECEC"/>
<stop offset="1" stop-color="#A0A0A0"/>
</linearGradient>
<linearGradient id="paint2_linear_50_7248" x1="597" y1="-22.9999" x2="8.00004" y2="87.0002" gradientUnits="userSpaceOnUse">
<stop stop-color="#A0A0A0"/>
<stop offset="0.52723" stop-color="#ECECEC"/>
<stop offset="1" stop-color="#A0A0A0"/>
</linearGradient>
<linearGradient id="paint3_linear_50_7248" x1="597" y1="-22.9999" x2="8.00004" y2="87.0002" gradientUnits="userSpaceOnUse">
<stop stop-color="#A0A0A0"/>
<stop offset="0.52723" stop-color="#ECECEC"/>
<stop offset="1" stop-color="#A0A0A0"/>
</linearGradient>
<linearGradient id="paint4_linear_50_7248" x1="597" y1="-22.9999" x2="8.00004" y2="87.0002" gradientUnits="userSpaceOnUse">
<stop stop-color="#A0A0A0"/>
<stop offset="0.52723" stop-color="#ECECEC"/>
<stop offset="1" stop-color="#A0A0A0"/>
</linearGradient>
<linearGradient id="paint5_linear_50_7248" x1="597" y1="-22.9999" x2="8.00004" y2="87.0002" gradientUnits="userSpaceOnUse">
<stop stop-color="#A0A0A0"/>
<stop offset="0.52723" stop-color="#ECECEC"/>
<stop offset="1" stop-color="#A0A0A0"/>
</linearGradient>
<linearGradient id="paint6_linear_50_7248" x1="597" y1="-22.9999" x2="8.00004" y2="87.0002" gradientUnits="userSpaceOnUse">
<stop stop-color="#A0A0A0"/>
<stop offset="0.52723" stop-color="#ECECEC"/>
<stop offset="1" stop-color="#A0A0A0"/>
</linearGradient>
<linearGradient id="paint7_linear_50_7248" x1="597" y1="-22.9999" x2="8.00004" y2="87.0002" gradientUnits="userSpaceOnUse">
<stop stop-color="#A0A0A0"/>
<stop offset="0.52723" stop-color="#ECECEC"/>
<stop offset="1" stop-color="#A0A0A0"/>
</linearGradient>
<linearGradient id="paint8_linear_50_7248" x1="597" y1="-22.9999" x2="8.00004" y2="87.0002" gradientUnits="userSpaceOnUse">
<stop stop-color="#A0A0A0"/>
<stop offset="0.52723" stop-color="#ECECEC"/>
<stop offset="1" stop-color="#A0A0A0"/>
</linearGradient>
<linearGradient id="paint9_linear_50_7248" x1="597" y1="-22.9999" x2="8.00004" y2="87.0002" gradientUnits="userSpaceOnUse">
<stop stop-color="#A0A0A0"/>
<stop offset="0.52723" stop-color="#ECECEC"/>
<stop offset="1" stop-color="#A0A0A0"/>
</linearGradient>
<linearGradient id="paint10_linear_50_7248" x1="597" y1="-22.9999" x2="8.00004" y2="87.0002" gradientUnits="userSpaceOnUse">
<stop stop-color="#A0A0A0"/>
<stop offset="0.52723" stop-color="#ECECEC"/>
<stop offset="1" stop-color="#A0A0A0"/>
</linearGradient>
<linearGradient id="paint11_linear_50_7248" x1="597" y1="-22.9999" x2="8.00004" y2="87.0002" gradientUnits="userSpaceOnUse">
<stop stop-color="#A0A0A0"/>
<stop offset="0.52723" stop-color="#ECECEC"/>
<stop offset="1" stop-color="#A0A0A0"/>
</linearGradient>
</defs>
</svg>
