<svg width="632" height="104" viewBox="0 0 632 104" fill="none" xmlns="http://www.w3.org/2000/svg">
<g style="mix-blend-mode:multiply" filter="url(#filter0_d_50_7248)">
<path d="M23.4126 65.6979C21.9747 64.2495 20.7727 62.5921 19.8066 60.7259L28.5718 54.0241C29.2904 54.9747 30.019 55.8244 30.7577 56.5733C31.676 57.5041 32.6097 58.2791 33.5589 58.8981C35.2716 59.9643 37.3118 60.4974 39.6794 60.4974C43.1049 60.4974 44.8176 59.2789 44.8176 56.8419C44.8176 55.7757 44.4902 54.9634 43.8353 54.4049C43.1805 53.8464 41.8203 53.1102 39.755 52.1964L34.6167 49.9117C31.0297 48.3097 28.2074 46.4724 26.1499 44.3996C23.3819 41.6112 21.9979 38.3969 21.9979 34.7565C21.9979 30.3394 23.6099 26.7601 26.8339 24.0184C30.1082 21.2768 34.3145 19.906 39.4527 19.906C45.1324 19.906 49.6363 21.5825 52.9646 24.9356C54.3595 26.3409 55.5479 28.0406 56.5298 30.0348L47.8401 36.7366C47.1251 35.6701 46.4102 34.7754 45.6952 34.0526C45.1508 33.5022 44.6064 33.0514 44.062 32.7003C42.8026 31.8372 41.3166 31.4056 39.6038 31.4056C36.6317 31.4056 35.1457 32.4718 35.1457 34.6042C35.1457 35.5181 35.4479 36.2796 36.0524 36.8889C36.7073 37.4474 37.8407 38.0566 39.4527 38.7166L45.1954 41.1537C49.0915 42.8047 52.0537 44.6518 54.0821 46.695C54.3616 46.9765 54.6233 47.2618 54.8674 47.5508C56.9327 49.8863 57.9654 52.8056 57.9654 56.3088C57.9654 61.0813 56.2275 64.8891 52.7516 67.7323C49.3262 70.5754 44.9688 71.997 39.6794 71.997C35.2464 71.997 31.2668 71.007 27.7406 69.0269C26.1164 68.078 24.6738 66.9683 23.4126 65.6979Z" fill="#292929"/>
<path d="M62.7689 45.9515C62.6178 38.7928 65.2121 32.6241 70.5518 27.4455C75.9419 22.2668 82.2891 19.7537 89.5935 19.906C96.8978 19.7537 103.245 22.2668 108.635 27.4455C114.076 32.6241 116.72 38.7928 116.569 45.9515C116.72 53.161 114.076 59.3297 108.635 64.4575C103.245 69.5854 96.8978 72.0986 89.5935 71.997C82.2388 72.0986 75.8915 69.5854 70.5518 64.4575C65.2121 59.3297 62.6178 53.161 62.7689 45.9515ZM103.27 45.9515C103.27 41.8391 101.96 38.4882 99.341 35.8989C96.7719 33.2588 93.5479 31.9387 89.669 31.9387C85.6391 31.9387 82.3647 33.2334 79.846 35.8227C77.3272 38.412 76.0679 41.7883 76.0679 45.9515C76.0679 50.1147 77.3272 53.5164 79.846 56.1565C82.3647 58.695 85.6391 59.9643 89.669 59.9643C93.5983 59.9643 96.8474 58.6697 99.4165 56.0803C101.986 53.491 103.27 50.1147 103.27 45.9515Z" fill="#292929"/>
<path d="M124.002 71.0832V20.8199H136.999V59.2789H157.627V71.0832H124.002Z" fill="#292929"/>
<path d="M187.573 20.8199H202.308L179.639 71.997H175.483L152.815 20.8199H167.549L177.599 45.4946L187.573 20.8199Z" fill="#292929"/>
<path d="M207.46 71.0832V20.8199H242.067V32.6241H220.456V39.5544H235.871V50.5209H220.456V59.2789H242.974V71.0832H207.46Z" fill="#292929"/>
<path d="M299.163 71.0832L297.35 66.8946H279.441L277.628 71.0832H263.649L286.318 19.906H290.474L313.142 71.0832H299.163ZM292.74 56.385L288.433 44.733L284.051 56.385H292.74Z" fill="#292929"/>
<path d="M335.709 71.0832V20.8199H355.279C360.871 20.8199 365.48 22.4191 369.107 25.6177C372.734 28.7655 374.548 32.9287 374.548 38.1074C374.548 43.1845 372.709 47.3477 369.032 50.5971C365.354 53.8464 360.77 55.4711 355.279 55.4711H348.705V71.0832H335.709ZM348.705 44.0476H355.355C357.168 44.0476 358.604 43.5145 359.662 42.4483C360.77 41.3313 361.324 39.8844 361.324 38.1074C361.324 36.3304 360.77 34.9088 359.662 33.8426C358.604 32.7764 357.168 32.2433 355.355 32.2433H348.705V44.0476Z" fill="#292929"/>
<path d="M381.304 49.7593V20.8199H394.301V50.7494C394.301 53.5925 395.132 55.8519 396.795 57.5273C398.457 59.152 400.648 59.9643 403.369 59.9643C406.089 59.9643 408.28 59.152 409.943 57.5273C411.605 55.8519 412.436 53.5925 412.436 50.7494V20.8199H425.433V49.7593C425.433 56.3088 423.342 61.6651 419.161 65.8284C414.98 69.9408 409.716 71.997 403.369 71.997C396.921 71.997 391.631 69.9662 387.501 65.9045C383.37 61.7921 381.304 56.4103 381.304 49.7593Z" fill="#292929"/>
<path d="M450.747 59.2789H472.735V71.0832H431.025V67.6561L452.862 32.6241H434.274V20.8199H472.66V24.2469L450.747 59.2789Z" fill="#292929"/>
<path d="M495.095 59.2789H517.084V71.0832H475.373V67.6561L497.211 32.6241H478.623V20.8199H517.008V24.2469L495.095 59.2789Z" fill="#292929"/>
<path d="M523.802 71.0832V20.8199H536.799V59.2789H557.427V71.0832H523.802Z" fill="#292929"/>
<path d="M564.24 71.0832V20.8199H598.847V32.6241H577.236V39.5544H592.651V50.5209H577.236V59.2789H599.754V71.0832H564.24Z" fill="#292929"/>
<path d="M15.0273 12.119C11.8033 14.8606 10.1913 18.44 10.1913 22.857L21.9979 34.7565C21.9979 30.3394 23.6099 26.7601 26.8339 24.0184L15.0273 12.119Z" fill="#292929"/>
<path d="M27.6461 8.00654C22.5079 8.00654 18.3017 9.37735 15.0273 12.119L26.8339 24.0184C30.1082 21.2768 34.3145 19.906 39.4527 19.906L27.6461 8.00654Z" fill="#292929"/>
<path d="M10.1913 22.857C10.1913 26.4974 11.5753 29.7118 14.3433 32.5002L26.1436 44.3933C23.3798 41.6063 21.9979 38.3941 21.9979 34.7565L10.1913 22.857Z" fill="#292929"/>
<path d="M41.1581 13.0362C37.8298 9.68308 33.3257 8.00654 27.6461 8.00654L39.4527 19.906C45.1324 19.906 49.6363 21.5825 52.9646 24.9356L41.1581 13.0362Z" fill="#292929"/>
<path d="M23.3391 22.7047C23.3391 20.5724 24.8252 19.5062 27.7973 19.5062L39.6038 31.4056C36.6317 31.4056 35.1457 32.4718 35.1457 34.6042L23.3391 22.7047Z" fill="#292929"/>
<path d="M24.2459 24.9894C23.6414 24.3802 23.3391 23.6186 23.3391 22.7047L35.1457 34.6042C35.1457 35.5181 35.4479 36.2796 36.0524 36.8889L24.2459 24.9894Z" fill="#292929"/>
<path d="M27.7973 19.5062C29.51 19.5062 30.9961 19.9377 32.2554 20.8008L44.062 32.7003C42.8026 31.8372 41.3166 31.4056 39.6038 31.4056L27.7973 19.5062Z" fill="#292929"/>
<path d="M27.6462 26.8172C26.0342 26.1571 24.9007 25.5479 24.2459 24.9894L36.0524 36.8889C36.7073 37.4474 37.8407 38.0566 39.4527 38.7166L27.6462 26.8172Z" fill="#292929"/>
<path d="M14.3433 32.5002C16.4009 34.5729 19.2231 36.4102 22.8102 38.0122L34.6167 49.9117C31.0297 48.3097 28.2074 46.4724 26.1499 44.3996L14.3433 32.5002Z" fill="#292929"/>
<path d="M32.2554 20.8008C32.7998 21.152 33.3442 21.6028 33.8886 22.1531L45.6672 34.0244C45.1322 33.4868 44.5971 33.0454 44.062 32.7003L32.2554 20.8008Z" fill="#292929"/>
<path d="M16.7652 42.1246L8 48.8264L19.8066 60.7259L28.5718 54.0241L16.7652 42.1246Z" fill="#292929"/>
<path d="M33.8886 22.1531C34.6036 22.876 35.3186 23.7706 36.0336 24.8371L47.8401 36.7366C47.1251 35.6701 46.4102 34.7754 45.6952 34.0526L33.8886 22.1531Z" fill="#292929"/>
<path d="M33.3889 29.2542L27.6462 26.8172L39.4527 38.7166L45.1954 41.1537L33.3889 29.2542Z" fill="#292929"/>
<path d="M44.7232 18.1353C43.7425 16.1435 42.5557 14.4454 41.1629 13.041L52.9646 24.9356C54.3595 26.3409 55.5479 28.0406 56.5298 30.0348L44.7232 18.1353Z" fill="#292929"/>
<path d="M8 48.8264C8.96611 50.6927 10.1681 52.3501 11.606 53.7985L23.4049 65.6902C21.9704 64.2436 20.771 62.5888 19.8066 60.7259L8 48.8264Z" fill="#292929"/>
<path d="M18.9511 44.6738C18.2125 43.925 17.4838 43.0753 16.7652 42.1246L28.5718 54.0241C29.2904 54.9747 30.019 55.8244 30.7577 56.5733L18.9511 44.6738Z" fill="#292929"/>
<path d="M36.0336 24.8371L44.7232 18.1353L56.5298 30.0348L47.8401 36.7366L36.0336 24.8371Z" fill="#292929"/>
<path d="M22.8102 38.0122L27.9484 40.2969L39.755 52.1964L34.6167 49.9117L22.8102 38.0122Z" fill="#292929"/>
<path d="M19.0381 44.7615C19.0091 44.7324 18.9801 44.7032 18.9511 44.6738L19.0381 44.7615C19.9283 45.6535 20.8331 46.3992 21.7523 46.9987L33.5589 58.8981C32.6097 58.2791 31.676 57.5041 30.7577 56.5733L19.0381 44.7615Z" fill="#292929"/>
<path d="M11.606 53.7985C12.8672 55.0689 14.3099 56.1785 15.9341 57.1275L27.7406 69.0269C26.1164 68.078 24.6738 66.9683 23.4126 65.6979L11.606 53.7985Z" fill="#292929"/>
<path d="M42.2754 34.7955C40.2471 32.7523 37.285 30.9052 33.3889 29.2542L45.1954 41.1537C49.0915 42.8047 52.0537 44.6518 54.0821 46.695L42.2754 34.7955Z" fill="#292929"/>
<path d="M27.9484 40.2969C30.0138 41.2108 31.3739 41.9469 32.0287 42.5054L43.8353 54.4049C43.1805 53.8464 41.8203 53.1102 39.755 52.1964L27.9484 40.2969Z" fill="#292929"/>
<path d="M27.8728 48.598C25.5052 48.598 23.465 48.0649 21.7523 46.9987L33.5589 58.8981C35.2716 59.9643 37.3118 60.4974 39.6794 60.4974L27.8728 48.598Z" fill="#292929"/>
<path d="M33.011 44.9424C33.011 44.0617 32.7876 43.3541 32.3407 42.8199L32.0287 42.5054C32.1426 42.6025 32.2466 42.7074 32.3407 42.8199L43.8353 54.4049C44.4902 54.9634 44.8176 55.7757 44.8176 56.8419L33.011 44.9424Z" fill="#292929"/>
<path d="M33.011 44.9424C33.011 47.3795 31.2983 48.598 27.8728 48.598L39.6794 60.4974C43.1049 60.4974 44.8176 59.2789 44.8176 56.8419L33.011 44.9424Z" fill="#292929"/>
<path d="M43.0608 35.6513C42.8185 35.3643 42.5586 35.081 42.2813 34.8014L54.0821 46.695C54.3616 46.9765 54.6233 47.2618 54.8674 47.5508L43.0608 35.6513Z" fill="#292929"/>
<path d="M58.7453 15.546C53.4056 20.7247 50.8113 26.8933 50.9624 34.0521L62.7689 45.9515C62.6178 38.7928 65.2121 32.6241 70.5518 27.4455L58.7453 15.546Z" fill="#292929"/>
<path d="M77.7869 8.00653C70.4826 7.85422 64.1354 10.3674 58.7453 15.546L70.5518 27.4455C75.9419 22.2668 82.2891 19.7537 89.5935 19.906L77.7869 8.00653Z" fill="#292929"/>
<path d="M15.9341 57.1275C19.4603 59.1076 23.4399 60.0976 27.8729 60.0976L39.6794 71.997C35.2464 71.997 31.2668 71.007 27.7406 69.0269L15.9341 57.1275Z" fill="#292929"/>
<path d="M46.1588 44.4093C46.1588 40.9061 45.1262 37.9868 43.0608 35.6513L54.8674 47.5508C56.9327 49.8863 57.9654 52.8056 57.9654 56.3088L46.1588 44.4093Z" fill="#292929"/>
<path d="M27.8729 60.0976C33.1622 60.0976 37.5196 58.6759 40.945 55.8328L52.7516 67.7323C49.3262 70.5754 44.9688 71.997 39.6794 71.997L27.8729 60.0976Z" fill="#292929"/>
<path d="M40.945 55.8328C44.4209 52.9896 46.1588 49.1818 46.1588 44.4093L57.9654 56.3088C57.9654 61.0813 56.2275 64.8891 52.7516 67.7323L40.945 55.8328Z" fill="#292929"/>
<path d="M68.0394 23.9232C70.5581 21.3339 73.8325 20.0393 77.8624 20.0393L89.669 31.9387C85.6391 31.9387 82.3647 33.2334 79.846 35.8227L68.0394 23.9232Z" fill="#292929"/>
<path d="M64.2613 34.052C64.2613 29.8888 65.5206 26.5126 68.0394 23.9232L79.846 35.8227C77.3272 38.412 76.0679 41.7883 76.0679 45.9515L64.2613 34.052Z" fill="#292929"/>
<path d="M58.7453 52.5581C53.4056 47.4302 50.8113 41.2615 50.9624 34.0521L62.7689 45.9515C62.6279 52.6804 64.8784 58.5026 69.5205 63.4181L70.5518 64.4575C70.1959 64.1157 69.8521 63.7692 69.5205 63.4181L58.7453 52.5581Z" fill="#292929"/>
<path d="M96.8286 15.546C91.4385 10.3674 85.0913 7.85422 77.7869 8.00653L89.5935 19.906C96.8978 19.7537 103.245 22.2668 108.635 27.4455L96.8286 15.546Z" fill="#292929"/>
<path d="M77.8624 20.0393C81.7413 20.0393 84.9653 21.3593 87.5344 23.9994L99.1421 35.6984C99.2088 35.7643 99.2751 35.8312 99.341 35.8989L99.1421 35.6984C96.6061 33.1919 93.4484 31.9387 89.669 31.9387L77.8624 20.0393Z" fill="#292929"/>
<path d="M68.0394 44.257C65.5207 41.6169 64.2613 38.2153 64.2613 34.052L76.0679 45.9515C76.0679 50.1147 77.3272 53.5164 79.846 56.1565L68.0394 44.257Z" fill="#292929"/>
<path d="M91.4636 34.0521C91.4636 30.0399 90.217 26.7526 87.7237 24.1902L87.5344 23.9994C87.5983 24.0626 87.6614 24.1262 87.7237 24.1902L99.341 35.8989C101.96 38.4882 103.27 41.8391 103.27 45.9515L91.4636 34.0521Z" fill="#292929"/>
<path d="M77.8624 48.0648C73.8325 48.0648 70.5582 46.7956 68.0394 44.257L79.846 56.1565C82.3647 58.695 85.6391 59.9643 89.669 59.9643L77.8624 48.0648Z" fill="#292929"/>
<path d="M58.7453 52.5581C64.085 57.686 70.4322 60.1991 77.7869 60.0976L89.5935 71.997C82.2388 72.0986 75.8915 69.5854 70.5518 64.4575L58.7453 52.5581Z" fill="#292929"/>
<path d="M96.8286 15.546C97.2638 15.9603 97.6811 16.3809 98.0806 16.8079L108.635 27.4455C114.076 32.6241 116.72 38.7928 116.569 45.9515L104.763 34.0521C104.902 27.466 102.674 21.718 98.0806 16.8079L96.8286 15.546Z" fill="#292929"/>
<path d="M125.192 8.92042H112.195L124.002 20.8199H136.999L125.192 8.92042Z" fill="#292929"/>
<path d="M91.4636 34.0521C91.4636 38.2153 90.1791 41.5916 87.61 44.1809L99.4165 56.0803C101.986 53.491 103.27 50.1147 103.27 45.9515L91.4636 34.0521Z" fill="#292929"/>
<path d="M87.61 44.1809C85.0409 46.7702 81.7917 48.0648 77.8624 48.0648L89.669 59.9643C93.5983 59.9643 96.8474 58.6697 99.4165 56.0803L87.61 44.1809Z" fill="#292929"/>
<path d="M77.7869 60.0976C85.0913 60.1991 91.4385 57.686 96.8286 52.5581L108.635 64.4575C103.245 69.5854 96.8978 72.0986 89.5935 71.997L77.7869 60.0976Z" fill="#292929"/>
<path d="M96.8286 52.5581C102.269 47.4302 104.914 41.2615 104.763 34.0521L116.569 45.9515C116.72 53.161 114.076 59.3297 108.635 64.4575L96.8286 52.5581Z" fill="#292929"/>
<path d="M112.195 8.92042V59.1837L124.002 71.0832V20.8199L112.195 8.92042Z" fill="#292929"/>
<path d="M125.192 47.3795L125.192 8.92042L136.999 20.8199V59.2789L125.192 47.3795Z" fill="#292929"/>
<path d="M155.743 8.92042H141.008L152.815 20.8199H167.549L155.743 8.92042Z" fill="#292929"/>
<path d="M165.793 33.5951L155.743 8.92042L167.549 20.8199L177.599 45.4946L165.793 33.5951Z" fill="#292929"/>
<path d="M145.821 47.3795L125.192 47.3795L136.999 59.2789H157.627L145.821 47.3795Z" fill="#292929"/>
<path d="M141.008 8.92042L163.677 60.0976L175.483 71.997L152.815 20.8199L141.008 8.92042Z" fill="#292929"/>
<path d="M112.195 59.1837L145.821 59.1837L157.627 71.0832H124.002L112.195 59.1837Z" fill="#292929"/>
<path d="M175.767 8.92042L165.793 33.5951L177.599 45.4946L187.573 20.8199L175.767 8.92042Z" fill="#292929"/>
<path d="M190.501 8.92042H175.767L187.573 20.8199H202.308L190.501 8.92042Z" fill="#292929"/>
<path d="M145.821 59.1837V47.3795L157.627 59.2789V71.0832L145.821 59.1837Z" fill="#292929"/>
<path d="M167.833 60.0976L190.501 8.92042L202.308 20.8199L179.639 71.997L167.833 60.0976Z" fill="#292929"/>
<path d="M230.261 8.92042H195.653L207.46 20.8199H242.067L230.261 8.92042Z" fill="#292929"/>
<path d="M163.677 60.0976H167.833L179.639 71.997H175.483L163.677 60.0976Z" fill="#292929"/>
<path d="M195.653 8.92042V59.1837L207.46 71.0832V20.8199L195.653 8.92042Z" fill="#292929"/>
<path d="M208.65 27.6549V20.7247L220.456 32.6241V39.5544L208.65 27.6549Z" fill="#292929"/>
<path d="M208.65 20.7247H230.261L242.067 32.6241H220.456L208.65 20.7247Z" fill="#292929"/>
<path d="M224.065 27.6549L208.65 27.6549L220.456 39.5544H235.871L224.065 27.6549Z" fill="#292929"/>
<path d="M230.261 20.7247V8.92042L242.067 20.8199V32.6241L230.261 20.7247Z" fill="#292929"/>
<path d="M208.65 47.3794V38.6214L220.456 50.5209V59.2789L208.65 47.3794Z" fill="#292929"/>
<path d="M208.65 38.6214H224.065L235.871 50.5209H220.456L208.65 38.6214Z" fill="#292929"/>
<path d="M224.065 38.6214V27.6549L235.871 39.5544V50.5209L224.065 38.6214Z" fill="#292929"/>
<path d="M231.167 47.3795L208.65 47.3794L220.456 59.2789H242.974L231.167 47.3795Z" fill="#292929"/>
<path d="M195.653 59.1837L231.167 59.1837L242.974 71.0832H207.46L195.653 59.1837Z" fill="#292929"/>
<path d="M231.167 59.1837V47.3795L242.974 59.2789V71.0832L231.167 59.1837Z" fill="#292929"/>
<path d="M278.667 8.00654H274.511L286.318 19.906H290.474L278.667 8.00654Z" fill="#292929"/>
<path d="M274.511 8.00654L251.842 59.1837L263.649 71.0832L286.318 19.906L274.511 8.00654Z" fill="#292929"/>
<path d="M272.244 44.4855L276.627 32.8336L288.433 44.733L284.051 56.385L272.244 44.4855Z" fill="#292929"/>
<path d="M276.627 32.8336L280.934 44.4855L292.74 56.385L288.433 44.733L276.627 32.8336Z" fill="#292929"/>
<path d="M251.842 59.1837L265.821 59.1837L277.628 71.0832H263.649L251.842 59.1837Z" fill="#292929"/>
<path d="M280.934 44.4855H272.244L284.051 56.385H292.74L280.934 44.4855Z" fill="#292929"/>
<path d="M301.336 59.1837L278.667 8.00654L290.474 19.906L313.142 71.0832L301.336 59.1837Z" fill="#292929"/>
<path d="M265.821 59.1837L267.635 54.9951L279.441 66.8946L277.628 71.0832L265.821 59.1837Z" fill="#292929"/>
<path d="M267.635 54.9951H285.543L297.35 66.8946H279.441L267.635 54.9951Z" fill="#292929"/>
<path d="M343.473 8.92042H323.902L335.709 20.8199H355.279L343.473 8.92042Z" fill="#292929"/>
<path d="M285.543 54.9951L287.357 59.1837L299.163 71.0832L297.35 66.8946L285.543 54.9951Z" fill="#292929"/>
<path d="M287.357 59.1837L301.336 59.1837L313.142 71.0832H299.163L287.357 59.1837Z" fill="#292929"/>
<path d="M323.902 8.92042V59.1837L335.709 71.0832V20.8199L323.902 8.92042Z" fill="#292929"/>
<path d="M336.899 20.3439H343.548L355.355 32.2433H348.705L336.899 20.3439Z" fill="#292929"/>
<path d="M357.301 13.7183C353.674 10.5197 349.064 8.92042 343.473 8.92042L355.279 20.8199C360.871 20.8199 365.48 22.4191 369.107 25.6177L357.301 13.7183Z" fill="#292929"/>
<path d="M336.899 32.1481V20.3439L348.705 32.2433V44.0476L336.899 32.1481Z" fill="#292929"/>
<path d="M343.548 20.3439C345.362 20.3439 346.797 20.877 347.855 21.9432L359.662 33.8426C358.604 32.7764 357.168 32.2433 355.355 32.2433L343.548 20.3439Z" fill="#292929"/>
<path d="M343.548 32.1482L336.899 32.1481L348.705 44.0476H355.355L343.548 32.1482Z" fill="#292929"/>
<path d="M349.518 26.2079C349.518 24.5296 349.023 23.1684 348.035 22.1241L347.855 21.9432C347.917 22.0024 347.977 22.0627 348.035 22.1241L359.662 33.8426C360.77 34.9088 361.324 36.3304 361.324 38.1074L349.518 26.2079Z" fill="#292929"/>
<path d="M347.855 30.5488C346.797 31.615 345.362 32.1482 343.548 32.1482L355.355 44.0476C357.168 44.0476 358.604 43.5145 359.662 42.4483L347.855 30.5488Z" fill="#292929"/>
<path d="M349.518 26.2079C349.518 27.9849 348.964 29.4319 347.855 30.5488L359.662 42.4483C360.77 41.3313 361.324 39.8844 361.324 38.1074L349.518 26.2079Z" fill="#292929"/>
<path d="M357.301 13.7183C357.948 14.2804 358.538 14.8749 359.07 15.5017L369.107 25.6177C372.734 28.7655 374.548 32.9287 374.548 38.1074L362.741 26.2079C362.741 21.954 361.517 18.3853 359.07 15.5017L357.301 13.7183Z" fill="#292929"/>
<path d="M336.899 43.5716H343.473L355.279 55.4711H348.705L336.899 43.5716Z" fill="#292929"/>
<path d="M382.495 8.92042H369.498L381.304 20.8199H394.301L382.495 8.92042Z" fill="#292929"/>
<path d="M336.899 59.1837V43.5716L348.705 55.4711V71.0832L336.899 59.1837Z" fill="#292929"/>
<path d="M323.902 59.1837L336.899 59.1837L348.705 71.0832H335.709L323.902 59.1837Z" fill="#292929"/>
<path d="M343.473 43.5716C348.964 43.5716 353.548 41.9469 357.225 38.6976L369.032 50.5971C365.354 53.8464 360.77 55.4711 355.279 55.4711L343.473 43.5716Z" fill="#292929"/>
<path d="M357.225 38.6976C360.902 35.4483 362.741 31.285 362.741 26.2079L374.548 38.1074C374.548 43.1845 372.709 47.3477 369.032 50.5971L357.225 38.6976Z" fill="#292929"/>
<path d="M369.498 8.92042V37.8599L381.304 49.7593V20.8199L369.498 8.92042Z" fill="#292929"/>
<path d="M382.495 38.8499L382.495 8.92042L394.301 20.8199V50.7494L382.495 38.8499Z" fill="#292929"/>
<path d="M413.626 8.92042H400.629L412.436 20.8199H425.433L413.626 8.92042Z" fill="#292929"/>
<path d="M375.694 54.0051C371.563 49.8926 369.498 44.5109 369.498 37.8599L381.304 49.7593C381.304 56.3096 383.308 61.6287 387.314 65.7167L387.501 65.9045C387.438 65.8422 387.376 65.7796 387.314 65.7167L375.694 54.0051Z" fill="#292929"/>
<path d="M400.629 8.92042V38.8499L412.436 50.7494V20.8199L400.629 8.92042Z" fill="#292929"/>
<path d="M384.988 45.6278C383.326 43.9524 382.495 41.6931 382.495 38.8499L394.301 50.7494C394.301 53.5925 395.132 55.8519 396.795 57.5273L384.988 45.6278Z" fill="#292929"/>
<path d="M391.562 48.0649C388.842 48.0649 386.65 47.2525 384.988 45.6278L396.795 57.5273C398.457 59.152 400.648 59.9643 403.369 59.9643L391.562 48.0649Z" fill="#292929"/>
<path d="M413.626 37.8599V8.92042L425.433 20.8199V49.7593L413.626 37.8599Z" fill="#292929"/>
<path d="M422.468 8.92042V20.7247L434.274 32.6241V20.8199L422.468 8.92042Z" fill="#292929"/>
<path d="M375.694 54.0051C379.825 58.0668 385.114 60.0976 391.562 60.0976L403.369 71.997C396.921 71.997 391.631 69.9662 387.501 65.9045L375.694 54.0051Z" fill="#292929"/>
<path d="M400.629 38.8499C400.629 41.6931 399.798 43.9524 398.136 45.6278L409.943 57.5273C411.605 55.8519 412.436 53.5925 412.436 50.7494L400.629 38.8499Z" fill="#292929"/>
<path d="M398.136 45.6278C396.474 47.2525 394.282 48.0649 391.562 48.0649L403.369 59.9643C406.089 59.9643 408.28 59.152 409.943 57.5273L398.136 45.6278Z" fill="#292929"/>
<path d="M460.853 8.92042H422.468L434.274 20.8199H472.66L460.853 8.92042Z" fill="#292929"/>
<path d="M422.468 20.7247L441.056 20.7247L452.862 32.6241H434.274L422.468 20.7247Z" fill="#292929"/>
<path d="M391.562 60.0976C397.909 60.0976 403.173 58.0413 407.355 53.9289L419.161 65.8284C414.98 69.9408 409.716 71.997 403.369 71.997L391.562 60.0976Z" fill="#292929"/>
<path d="M407.355 53.9289C411.536 49.7657 413.626 44.4094 413.626 37.8599L425.433 49.7593C425.433 56.3088 423.342 61.6651 419.161 65.8284L407.355 53.9289Z" fill="#292929"/>
<path d="M441.056 20.7247L419.218 55.7567L431.025 67.6561L452.862 32.6241L441.056 20.7247Z" fill="#292929"/>
<path d="M460.853 12.3475L460.853 8.92042L472.66 20.8199V24.2469L460.853 12.3475Z" fill="#292929"/>
<path d="M419.218 55.7567V59.1837L431.025 71.0832V67.6561L419.218 55.7567Z" fill="#292929"/>
<path d="M438.94 47.3795L460.853 12.3475L472.66 24.2469L450.747 59.2789L438.94 47.3795Z" fill="#292929"/>
<path d="M466.816 8.92042V20.7247L478.623 32.6241V20.8199L466.816 8.92042Z" fill="#292929"/>
<path d="M505.202 8.92042H466.816L478.623 20.8199H517.008L505.202 8.92042Z" fill="#292929"/>
<path d="M466.816 20.7247L485.404 20.7247L497.211 32.6241H478.623L466.816 20.7247Z" fill="#292929"/>
<path d="M460.929 47.3795H438.94L450.747 59.2789H472.735L460.929 47.3795Z" fill="#292929"/>
<path d="M419.218 59.1837L460.929 59.1837L472.735 71.0832H431.025L419.218 59.1837Z" fill="#292929"/>
<path d="M485.404 20.7247L463.567 55.7567L475.373 67.6561L497.211 32.6241L485.404 20.7247Z" fill="#292929"/>
<path d="M460.929 59.1837L460.929 47.3795L472.735 59.2789V71.0832L460.929 59.1837Z" fill="#292929"/>
<path d="M505.201 12.3475L505.202 8.92042L517.008 20.8199V24.2469L505.201 12.3475Z" fill="#292929"/>
<path d="M463.567 55.7567V59.1837L475.373 71.0832V67.6561L463.567 55.7567Z" fill="#292929"/>
<path d="M483.288 47.3795L505.201 12.3475L517.008 24.2469L495.095 59.2789L483.288 47.3795Z" fill="#292929"/>
<path d="M524.992 8.92042H511.996L523.802 20.8199H536.799L524.992 8.92042Z" fill="#292929"/>
<path d="M505.277 47.3795H483.288L495.095 59.2789H517.084L505.277 47.3795Z" fill="#292929"/>
<path d="M463.567 59.1837L505.277 59.1837L517.084 71.0832H475.373L463.567 59.1837Z" fill="#292929"/>
<path d="M511.996 8.92042V59.1837L523.802 71.0832V20.8199L511.996 8.92042Z" fill="#292929"/>
<path d="M524.992 47.3795V8.92042L536.799 20.8199V59.2789L524.992 47.3795Z" fill="#292929"/>
<path d="M505.277 59.1837L505.277 47.3795L517.084 59.2789V71.0832L505.277 59.1837Z" fill="#292929"/>
<path d="M587.041 8.92042H552.433L564.24 20.8199H598.847L587.041 8.92042Z" fill="#292929"/>
<path d="M545.621 47.3795L524.992 47.3795L536.799 59.2789H557.427L545.621 47.3795Z" fill="#292929"/>
<path d="M552.433 8.92042V59.1837L564.24 71.0832V20.8199L552.433 8.92042Z" fill="#292929"/>
<path d="M511.996 59.1837L545.621 59.1837L557.427 71.0832H523.802L511.996 59.1837Z" fill="#292929"/>
<path d="M565.43 27.6549V20.7247L577.236 32.6241V39.5544L565.43 27.6549Z" fill="#292929"/>
<path d="M565.43 20.7247H587.041L598.847 32.6241H577.236L565.43 20.7247Z" fill="#292929"/>
<path d="M545.621 59.1837V47.3795L557.427 59.2789V71.0832L545.621 59.1837Z" fill="#292929"/>
<path d="M580.844 27.6549L565.43 27.6549L577.236 39.5544H592.651L580.844 27.6549Z" fill="#292929"/>
<path d="M587.041 20.7247V8.92042L598.847 20.8199V32.6241L587.041 20.7247Z" fill="#292929"/>
<path d="M565.43 47.3794V38.6214L577.236 50.5209V59.2789L565.43 47.3794Z" fill="#292929"/>
<path d="M565.43 38.6214H580.844L592.651 50.5209H577.236L565.43 38.6214Z" fill="#292929"/>
<path d="M580.844 38.6214V27.6549L592.651 39.5544V50.5209L580.844 38.6214Z" fill="#292929"/>
<path d="M587.947 47.3795L565.43 47.3794L577.236 59.2789H599.754L587.947 47.3795Z" fill="#292929"/>
<path d="M552.433 59.1837L587.947 59.1837L599.754 71.0832H564.24L552.433 59.1837Z" fill="#292929"/>
<path d="M587.947 59.1837V47.3795L599.754 59.2789V71.0832L587.947 59.1837Z" fill="#292929"/>
</g>
<path d="M8 48.8923L16.7651 42.1797C18.377 44.3155 20.0394 45.9428 21.7521 47.0616C23.4648 48.1295 25.5049 48.6635 27.8725 48.6635C31.298 48.6635 33.0107 47.443 33.0107 45.0021C33.0107 43.9341 32.6832 43.1205 32.0284 42.5611C31.3735 42.0017 30.0134 41.2644 27.9481 40.349L22.8099 38.0606C14.3975 34.2975 10.1913 29.2376 10.1913 22.881C10.1913 18.4568 11.8032 14.8717 15.0272 12.1256C18.3015 9.37957 22.5077 8.00654 27.6458 8.00654C35.7057 8.00654 41.3979 11.3883 44.7226 18.1517L36.0331 24.8643C34.7738 22.9827 33.5144 21.6351 32.2551 20.8215C30.9957 19.957 29.5097 19.5247 27.797 19.5247C24.8249 19.5247 23.3389 20.5926 23.3389 22.7285C23.3389 23.6438 23.6411 24.4066 24.2456 25.0168C24.9005 25.5762 26.0339 26.1865 27.6458 26.8476L33.3885 29.2885C37.8214 31.1701 41.0453 33.3059 43.0603 35.696C45.1256 38.0352 46.1583 40.9592 46.1583 44.4681C46.1583 49.2483 44.4204 53.0622 40.9446 55.91C37.5191 58.7578 33.1618 60.1817 27.8725 60.1817C23.4396 60.1817 19.4601 59.19 15.9339 57.2068C12.4581 55.1726 9.81346 52.4012 8 48.8923Z" fill="url(#paint0_linear_50_7248)"/>
<path d="M50.9617 34.0941C50.8106 26.9238 53.4048 20.7452 58.7445 15.5582C64.1345 10.3712 70.4816 7.85398 77.7858 8.00654C85.0901 7.85398 91.4372 10.3712 96.8272 15.5582C102.268 20.7452 104.912 26.9238 104.761 34.0941C104.912 41.3152 102.268 47.4938 96.8272 52.63C91.4372 57.7661 85.0901 60.2834 77.7858 60.1817C70.4312 60.2834 64.0841 57.7661 58.7445 52.63C53.4048 47.4938 50.8106 41.3152 50.9617 34.0941ZM91.4624 34.0941C91.4624 29.975 90.1526 26.6187 87.5332 24.0252C84.9641 21.3809 81.7402 20.0587 77.8614 20.0587C73.8315 20.0587 70.5572 21.3554 68.0385 23.9489C65.5198 26.5424 64.2604 29.9242 64.2604 34.0941C64.2604 38.264 65.5198 41.6712 68.0385 44.3155C70.5572 46.8582 73.8315 48.1295 77.8614 48.1295C81.7906 48.1295 85.0397 46.8328 87.6088 44.2393C90.1778 41.6458 91.4624 38.264 91.4624 34.0941Z" fill="url(#paint1_linear_50_7248)"/>
<path d="M112.194 59.2663V8.92189H125.19V47.443H145.818V59.2663H112.194Z" fill="url(#paint2_linear_50_7248)"/>
<path d="M175.764 8.92189H190.499L167.83 60.1817H163.674L141.006 8.92189H155.741L165.79 33.6364L175.764 8.92189Z" fill="url(#paint3_linear_50_7248)"/>
<path d="M195.65 59.2663V8.92189H230.257V20.7452H208.647V27.6866H224.061V38.6709H208.647V47.443H231.164V59.2663H195.65Z" fill="url(#paint4_linear_50_7248)"/>
<path d="M287.352 59.2663L285.539 55.0709H267.631L265.817 59.2663H251.839L274.507 8.00654H278.663L301.331 59.2663H287.352ZM280.93 44.5444L276.623 32.8736L272.24 44.5444H280.93Z" fill="url(#paint5_linear_50_7248)"/>
<path d="M323.897 59.2663V8.92189H343.468C349.059 8.92189 353.668 10.5238 357.295 13.7275C360.922 16.8804 362.736 21.0503 362.736 26.2373C362.736 31.3226 360.897 35.4926 357.22 38.7471C353.542 42.0017 348.958 43.629 343.468 43.629H336.894V59.2663H323.897ZM336.894 32.1871H343.543C345.357 32.1871 346.792 31.6532 347.85 30.5852C348.958 29.4665 349.512 28.0172 349.512 26.2373C349.512 24.4575 348.958 23.0336 347.85 21.9657C346.792 20.8978 345.357 20.3638 343.543 20.3638H336.894V32.1871Z" fill="url(#paint6_linear_50_7248)"/>
<path d="M369.492 37.9081V8.92189H382.489V38.8997C382.489 41.7475 383.32 44.0104 384.982 45.6886C386.645 47.3159 388.836 48.1295 391.556 48.1295C394.276 48.1295 396.468 47.3159 398.13 45.6886C399.792 44.0104 400.624 41.7475 400.624 38.8997V8.92189H413.62V37.9081C413.62 44.4681 411.529 49.8331 407.348 54.003C403.167 58.1221 397.903 60.1817 391.556 60.1817C385.108 60.1817 379.819 58.1475 375.688 54.0793C371.558 49.9602 369.492 44.5698 369.492 37.9081Z" fill="url(#paint7_linear_50_7248)"/>
<path d="M438.933 47.443H460.922V59.2663H419.212V55.8337L441.049 20.7452H422.461V8.92189H460.846V12.3545L438.933 47.443Z" fill="url(#paint8_linear_50_7248)"/>
<path d="M483.281 47.443H505.269V59.2663H463.56V55.8337L485.397 20.7452H466.809V8.92189H505.194V12.3545L483.281 47.443Z" fill="url(#paint9_linear_50_7248)"/>
<path d="M511.988 59.2663V8.92189H524.984V47.443H545.612V59.2663H511.988Z" fill="url(#paint10_linear_50_7248)"/>
<path d="M552.425 59.2663V8.92189H587.032V20.7452H565.421V27.6866H580.836V38.6709H565.421V47.443H587.938V59.2663H552.425Z" fill="url(#paint11_linear_50_7248)"/>
<defs>
<filter id="filter0_d_50_7248" x="0" y="0" width="631.754" height="104" filterUnits="userSpaceOnUse" color-interpolation-filters="sRGB">
<feFlood flood-opacity="0" result="BackgroundImageFix"/>
<feColorMatrix in="SourceAlpha" type="matrix" values="0 0 0 0 0 0 0 0 0 0 0 0 0 0 0 0 0 0 127 0" result="hardAlpha"/>
<feOffset dx="12" dy="12"/>
<feGaussianBlur stdDeviation="10"/>
<feComposite in2="hardAlpha" operator="out"/>
<feColorMatrix type="matrix" values="0 0 0 0 0 0 0 0 0 0 0 0 0 0 0 0 0 0 0.65 0"/>
<feBlend mode="normal" in2="BackgroundImageFix" result="effect1_dropShadow_50_7248"/>
<feBlend mode="normal" in="SourceGraphic" in2="effect1_dropShadow_50_7248" result="shape"/>
</filter>
<linearGradient id="paint0_linear_50_7248" x1="587.939" y1="-22.5229" x2="8.00004" y2="85.7848" gradientUnits="userSpaceOnUse">
<stop stop-color="#A0A0A0"/>
<stop offset="0.52723" stop-color="#ECECEC"/>
<stop offset="1" stop-color="#A0A0A0"/>
</linearGradient>
<linearGradient id="paint1_linear_50_7248" x1="587.939" y1="-22.5229" x2="8.00004" y2="85.7848" gradientUnits="userSpaceOnUse">
<stop stop-color="#A0A0A0"/>
<stop offset="0.52723" stop-color="#ECECEC"/>
<stop offset="1" stop-color="#A0A0A0"/>
</linearGradient>
<linearGradient id="paint2_linear_50_7248" x1="587.939" y1="-22.5229" x2="8.00004" y2="85.7848" gradientUnits="userSpaceOnUse">
<stop stop-color="#A0A0A0"/>
<stop offset="0.52723" stop-color="#ECECEC"/>
<stop offset="1" stop-color="#A0A0A0"/>
</linearGradient>
<linearGradient id="paint3_linear_50_7248" x1="587.939" y1="-22.5229" x2="8.00004" y2="85.7848" gradientUnits="userSpaceOnUse">
<stop stop-color="#A0A0A0"/>
<stop offset="0.52723" stop-color="#ECECEC"/>
<stop offset="1" stop-color="#A0A0A0"/>
</linearGradient>
<linearGradient id="paint4_linear_50_7248" x1="587.939" y1="-22.5229" x2="8.00004" y2="85.7848" gradientUnits="userSpaceOnUse">
<stop stop-color="#A0A0A0"/>
<stop offset="0.52723" stop-color="#ECECEC"/>
<stop offset="1" stop-color="#A0A0A0"/>
</linearGradient>
<linearGradient id="paint5_linear_50_7248" x1="587.939" y1="-22.5229" x2="8.00004" y2="85.7848" gradientUnits="userSpaceOnUse">
<stop stop-color="#A0A0A0"/>
<stop offset="0.52723" stop-color="#ECECEC"/>
<stop offset="1" stop-color="#A0A0A0"/>
</linearGradient>
<linearGradient id="paint6_linear_50_7248" x1="587.939" y1="-22.5229" x2="8.00004" y2="85.7848" gradientUnits="userSpaceOnUse">
<stop stop-color="#A0A0A0"/>
<stop offset="0.52723" stop-color="#ECECEC"/>
<stop offset="1" stop-color="#A0A0A0"/>
</linearGradient>
<linearGradient id="paint7_linear_50_7248" x1="587.939" y1="-22.5229" x2="8.00004" y2="85.7848" gradientUnits="userSpaceOnUse">
<stop stop-color="#A0A0A0"/>
<stop offset="0.52723" stop-color="#ECECEC"/>
<stop offset="1" stop-color="#A0A0A0"/>
</linearGradient>
<linearGradient id="paint8_linear_50_7248" x1="587.939" y1="-22.5229" x2="8.00004" y2="85.7848" gradientUnits="userSpaceOnUse">
<stop stop-color="#A0A0A0"/>
<stop offset="0.52723" stop-color="#ECECEC"/>
<stop offset="1" stop-color="#A0A0A0"/>
</linearGradient>
<linearGradient id="paint9_linear_50_7248" x1="587.939" y1="-22.5229" x2="8.00004" y2="85.7848" gradientUnits="userSpaceOnUse">
<stop stop-color="#A0A0A0"/>
<stop offset="0.52723" stop-color="#ECECEC"/>
<stop offset="1" stop-color="#A0A0A0"/>
</linearGradient>
<linearGradient id="paint10_linear_50_7248" x1="587.939" y1="-22.5229" x2="8.00004" y2="85.7848" gradientUnits="userSpaceOnUse">
<stop stop-color="#A0A0A0"/>
<stop offset="0.52723" stop-color="#ECECEC"/>
<stop offset="1" stop-color="#A0A0A0"/>
</linearGradient>
<linearGradient id="paint11_linear_50_7248" x1="587.939" y1="-22.5229" x2="8.00004" y2="85.7848" gradientUnits="userSpaceOnUse">
<stop stop-color="#A0A0A0"/>
<stop offset="0.52723" stop-color="#ECECEC"/>
<stop offset="1" stop-color="#A0A0A0"/>
</linearGradient>
</defs>
</svg>
