<svg width="917" height="254" viewBox="0 0 917 254" fill="none" xmlns="http://www.w3.org/2000/svg">
<g style="mix-blend-mode:multiply" filter="url(#filter0_d_55_7636)">
<path d="M140.328 29.64H156.84V94.152H151.56C151.56 94.152 149.439 92.0964 146.251 89.0065C139.794 82.7475 128.958 72.2444 122.5 65.9854C119.312 62.8955 117.192 60.84 117.192 60.84V93H100.68V28.488H105.96C105.96 28.488 106.598 29.0977 107.701 30.1511C109.542 31.9098 112.677 34.905 116.297 38.3632C120.63 42.5026 125.657 47.3053 129.991 51.4448C133.61 54.903 136.746 57.8982 138.587 59.6569C139.689 60.7102 140.328 61.32 140.328 61.32V29.64Z" fill="#292929"/>
<path d="M166.228 61.32C166.036 52.296 169.332 44.52 176.116 37.992C182.964 31.464 191.028 28.296 200.308 28.488C209.588 28.296 217.652 31.464 224.5 37.992C231.412 44.52 234.772 52.296 234.58 61.32C234.772 70.408 231.412 78.184 224.5 84.648C217.652 91.112 209.588 94.28 200.308 94.152C190.964 94.28 182.9 91.112 176.116 84.648C169.332 78.184 166.036 70.408 166.228 61.32ZM217.684 61.32C217.684 56.136 216.02 51.912 212.692 48.648C209.428 45.32 205.332 43.656 200.404 43.656C195.284 43.656 191.124 45.288 187.924 48.552C184.724 51.816 183.124 56.072 183.124 61.32C183.124 66.568 184.724 70.856 187.924 74.184C191.124 77.384 195.284 78.984 200.404 78.984C205.396 78.984 209.524 77.352 212.788 74.088C216.052 70.824 217.684 66.568 217.684 61.32Z" fill="#292929"/>
<path d="M256.718 93V44.52H237.71V29.64H292.238V44.52H273.23V93H256.718Z" fill="#292929"/>
<path d="M371.661 29.64L349.965 68.712V93H333.453V68.904L311.661 29.64H329.901L341.709 51.72L353.517 29.64H371.661Z" fill="#292929"/>
<path d="M372.009 61.32C371.817 52.296 375.113 44.52 381.897 37.992C388.745 31.464 396.809 28.296 406.089 28.488C415.369 28.296 423.433 31.464 430.281 37.992C437.193 44.52 440.553 52.296 440.361 61.32C440.553 70.408 437.193 78.184 430.281 84.648C423.433 91.112 415.369 94.28 406.089 94.152C396.745 94.28 388.681 91.112 381.897 84.648C375.113 78.184 371.817 70.408 372.009 61.32ZM423.465 61.32C423.465 56.136 421.801 51.912 418.473 48.648C415.209 45.32 411.113 43.656 406.185 43.656C401.065 43.656 396.905 45.288 393.705 48.552C390.505 51.816 388.905 56.072 388.905 61.32C388.905 66.568 390.505 70.856 393.705 74.184C396.905 77.384 401.065 78.984 406.185 78.984C411.177 78.984 415.305 77.352 418.569 74.088C421.833 70.824 423.465 66.568 423.465 61.32Z" fill="#292929"/>
<path d="M449.421 66.12V29.64H465.933V67.368C465.933 70.952 466.989 73.8 469.101 75.912C471.213 77.96 473.997 78.984 477.453 78.984C480.909 78.984 483.693 77.96 485.805 75.912C487.917 73.8 488.973 70.952 488.973 67.368V29.64H505.485V66.12C505.485 74.376 502.829 81.128 497.517 86.376C492.205 91.56 485.517 94.152 477.453 94.152C469.261 94.152 462.541 91.592 457.293 86.472C452.045 81.288 449.421 74.504 449.421 66.12Z" fill="#292929"/>
<path d="M573.837 93H555.405L541.102 73.32H534.286V93H517.773V29.64H542.637C549.741 29.64 555.598 31.656 560.206 35.688C564.814 39.656 567.117 44.904 567.117 51.432C567.117 59.368 563.789 65.384 557.133 69.48L573.837 93ZM534.286 44.04V58.92H542.733C545.037 58.92 546.862 58.248 548.206 56.904C549.614 55.496 550.318 53.672 550.318 51.432C550.318 49.192 549.614 47.4 548.206 46.056C546.862 44.712 545.037 44.04 542.733 44.04H534.286Z" fill="#292929"/>
<path d="M654.023 63.0393C656.861 65.8768 658.281 69.5917 658.281 74.184C658.281 79.624 656.233 84.136 652.137 87.72C648.105 91.24 643.017 93 636.873 93H607.305V29.64H630.153C636.297 29.64 641.385 31.4 645.417 34.92C645.842 35.279 646.246 35.649 646.627 36.0301C649.916 39.3178 651.561 43.4277 651.561 48.36C651.561 52.648 650.281 56.2 647.721 59.016C650.29 60.0672 652.391 61.4083 654.023 63.0393ZM629.097 43.56H623.145V54.696H629.097C631.081 54.696 632.617 54.184 633.705 53.16C634.857 52.136 635.433 50.792 635.433 49.128C635.433 47.464 634.857 46.12 633.705 45.096C632.617 44.072 631.081 43.56 629.097 43.56ZM635.817 79.08C640.041 79.08 642.153 77.224 642.153 73.512C642.153 71.7761 641.691 70.446 640.767 69.5219C639.716 68.47 638.065 67.944 635.817 67.944H623.145V79.08H635.817Z" fill="#292929"/>
<path d="M667.211 93V29.64H711.179V44.52H683.723V53.256H703.307V67.08H683.723V78.12H712.331V93H667.211Z" fill="#292929"/>
<path d="M723.071 86.2116C721.244 84.3858 719.717 82.2965 718.489 79.944L729.625 71.496C730.538 72.6943 731.464 73.7654 732.402 74.7094C733.569 75.8828 734.755 76.8597 735.961 77.64C738.137 78.984 740.729 79.656 743.737 79.656C748.089 79.656 750.265 78.12 750.265 75.048C750.265 73.704 749.849 72.68 749.017 71.976C748.185 71.272 746.457 70.344 743.833 69.192L737.305 66.312C732.748 64.2926 729.162 61.9765 726.548 59.3637C723.032 55.8488 721.273 51.7969 721.273 47.208C721.273 41.64 723.321 37.128 727.417 33.672C731.577 30.216 736.921 28.488 743.449 28.488C750.665 28.488 756.387 30.6013 760.616 34.8281C762.388 36.5995 763.898 38.7421 765.145 41.256L754.105 49.704C753.197 48.3596 752.288 47.2318 751.38 46.3206C750.689 45.6268 749.997 45.0586 749.305 44.616C747.705 43.528 745.817 42.984 743.641 42.984C739.865 42.984 737.977 44.328 737.977 47.016C737.977 48.168 738.361 49.128 739.129 49.896C739.961 50.6 741.401 51.368 743.449 52.2L750.745 55.272C755.695 57.3532 759.459 59.6816 762.035 62.2571C762.391 62.612 762.723 62.9717 763.033 63.336C765.657 66.28 766.969 69.96 766.969 74.376C766.969 80.392 764.761 85.192 760.345 88.776C755.993 92.36 750.457 94.152 743.737 94.152C738.105 94.152 733.049 92.904 728.569 90.408C726.506 89.2118 724.673 87.813 723.071 86.2116Z" fill="#292929"/>
<path d="M789.968 93V44.52H770.96V29.64H825.488V44.52H806.48V93H789.968Z" fill="#292929"/>
<path d="M105.497 141.64H123.929L97.8166 206.152H92.5366L76.4086 173.032L60.1846 206.152H54.9046L28.7926 141.64H47.2246L59.1286 172.072L73.7206 140.488H79.0006L93.5926 172.072L105.497 141.64Z" fill="#292929"/>
<path d="M126.244 173.32C126.052 164.296 129.348 156.52 136.132 149.992C142.98 143.464 151.044 140.296 160.324 140.488C169.604 140.296 177.668 143.464 184.516 149.992C191.428 156.52 194.788 164.296 194.596 173.32C194.788 182.408 191.428 190.184 184.516 196.648C177.668 203.112 169.604 206.28 160.324 206.152C150.98 206.28 142.916 203.112 136.132 196.648C129.348 190.184 126.052 182.408 126.244 173.32ZM177.7 173.32C177.7 168.136 176.036 163.912 172.708 160.648C169.444 157.32 165.348 155.656 160.42 155.656C155.3 155.656 151.14 157.288 147.94 160.552C144.74 163.816 143.14 168.072 143.14 173.32C143.14 178.568 144.74 182.856 147.94 186.184C151.14 189.384 155.3 190.984 160.42 190.984C165.412 190.984 169.54 189.352 172.804 186.088C176.068 182.824 177.7 178.568 177.7 173.32Z" fill="#292929"/>
<path d="M260.103 205H241.671L227.367 185.32H220.551V205H204.039V141.64H228.903C236.007 141.64 241.863 143.656 246.471 147.688C251.079 151.656 253.383 156.904 253.383 163.432C253.383 171.368 250.055 177.384 243.399 181.48L260.103 205ZM220.551 156.04V170.92H228.999C231.303 170.92 233.127 170.248 234.471 168.904C235.879 167.496 236.583 165.672 236.583 163.432C236.583 161.192 235.879 159.4 234.471 158.056C233.127 156.712 231.303 156.04 228.999 156.04H220.551Z" fill="#292929"/>
<path d="M326.856 205H307.272L283.176 173.416V205H266.664V141.64H283.176V170.344L304.104 141.64H323.304L301.512 171.784L326.856 205Z" fill="#292929"/>
<path d="M333.561 221.992V191.08H352.281L346.521 221.992H333.561Z" fill="#292929"/>
<path d="M389.102 205V141.64H411.182C421.038 141.512 429.294 144.392 435.95 150.28C442.606 156.168 445.87 163.784 445.742 173.128C445.87 182.408 442.574 190.088 435.854 196.168C429.198 202.184 420.974 205.128 411.182 205H389.102ZM405.614 190.12H411.086C416.334 190.12 420.59 188.584 423.854 185.512C427.182 182.44 428.846 178.312 428.846 173.128C428.846 167.88 427.214 163.816 423.95 160.936C420.75 158.056 416.462 156.616 411.086 156.616H405.614V190.12Z" fill="#292929"/>
<path d="M455.195 205V141.64H499.163V156.52H471.707V165.256H491.291V179.08H471.707V190.12H500.315V205H455.195Z" fill="#292929"/>
<path d="M524.234 205V156.52H505.226V141.64H559.754V156.52H540.746V205H524.234Z" fill="#292929"/>
<path d="M567.039 205V141.64H611.007V156.52H583.551V165.256H603.135V179.08H583.551V190.12H612.159V205H567.039Z" fill="#292929"/>
<path d="M617.775 173.32C617.647 164.232 620.975 156.456 627.759 149.992C634.543 143.464 642.639 140.296 652.047 140.488C658.383 140.488 664.079 141.992 669.135 145C671.45 146.348 673.537 147.951 675.396 149.809C677.597 152.008 679.478 154.565 681.039 157.48L668.463 166.024C667.278 164.025 665.976 162.315 664.556 160.894C661.066 157.402 656.864 155.656 651.951 155.656C646.895 155.656 642.735 157.288 639.471 160.552C636.271 163.816 634.671 168.104 634.671 173.416C634.671 178.6 636.271 182.856 639.471 186.184C642.799 189.384 646.959 190.984 651.951 190.984C658.863 190.984 664.367 187.528 668.463 180.616L681.039 189.16C678.159 194.536 674.191 198.728 669.135 201.736C664.079 204.68 658.351 206.152 651.951 206.152C642.607 206.28 634.511 203.112 627.663 196.648C620.879 190.184 617.583 182.408 617.775 173.32Z" fill="#292929"/>
<path d="M704.046 205V156.52H685.038V141.64H739.566V156.52H720.558V205H704.046Z" fill="#292929"/>
<path d="M746.852 205V141.64H763.364V205H746.852Z" fill="#292929"/>
<path d="M814.024 141.64H832.744L803.944 206.152H798.664L769.864 141.64H788.584L801.352 172.744L814.024 141.64Z" fill="#292929"/>
<path d="M839.289 205V141.64H883.257V156.52H855.801V165.256H875.385V179.08H855.801V190.12H884.409V205H839.289Z" fill="#292929"/>
<path d="M85.9597 8.48798H80.6797L100.68 28.488H105.96L85.9597 8.48798Z" fill="#292929"/>
<path d="M87.7006 10.1511L85.9597 8.48798L105.96 28.488L107.701 30.1511L87.7006 10.1511Z" fill="#292929"/>
<path d="M96.297 18.3632L87.7006 10.1511L107.701 30.1511L116.297 38.3632L96.297 18.3632Z" fill="#292929"/>
<path d="M80.6797 8.48798V73L100.68 93V28.488L80.6797 8.48798Z" fill="#292929"/>
<path d="M109.991 31.4448L96.297 18.3632L116.297 38.3632L129.991 51.4448L109.991 31.4448Z" fill="#292929"/>
<path d="M136.84 9.63995H120.328L140.328 29.64H156.84L136.84 9.63995Z" fill="#292929"/>
<path d="M27.2246 121.64H8.7926L28.7926 141.64H47.2246L27.2246 121.64Z" fill="#292929"/>
<path d="M97.1917 40.84L102.5 45.9854L122.5 65.9854L117.192 60.84L97.1917 40.84Z" fill="#292929"/>
<path d="M120.328 9.63995V41.32L140.328 61.32V29.64L120.328 9.63995Z" fill="#292929"/>
<path d="M118.587 39.6569L109.991 31.4448L129.991 51.4448L138.587 59.6569L118.587 39.6569Z" fill="#292929"/>
<path d="M97.1917 73V40.84L117.192 60.84V93L97.1917 73Z" fill="#292929"/>
<path d="M120.328 41.32L118.587 39.6569L138.587 59.6569L140.328 61.32L120.328 41.32Z" fill="#292929"/>
<path d="M80.6797 73L97.1917 73L117.192 93H100.68L80.6797 73Z" fill="#292929"/>
<path d="M39.1286 152.072L27.2246 121.64L47.2246 141.64L59.1286 172.072L39.1286 152.072Z" fill="#292929"/>
<path d="M102.5 45.9854L126.251 69.0065L146.251 89.0065L122.5 65.9854L102.5 45.9854Z" fill="#292929"/>
<path d="M8.7926 121.64L34.9046 186.152L54.9046 206.152L28.7926 141.64L8.7926 121.64Z" fill="#292929"/>
<path d="M59.0006 120.488H53.7206L73.7206 140.488H79.0006L59.0006 120.488Z" fill="#292929"/>
<path d="M136.84 74.152L136.84 9.63995L156.84 29.64V94.152L136.84 74.152Z" fill="#292929"/>
<path d="M156.116 17.9919C149.332 24.5199 146.036 32.2959 146.228 41.3199L166.228 61.32C166.036 52.296 169.332 44.52 176.116 37.992L156.116 17.9919Z" fill="#292929"/>
<path d="M180.308 8.48796C171.028 8.29597 162.964 11.4639 156.116 17.9919L176.116 37.992C182.964 31.464 191.028 28.296 200.308 28.488L180.308 8.48796Z" fill="#292929"/>
<path d="M53.7206 120.488L39.1286 152.072L59.1286 172.072L73.7206 140.488L53.7206 120.488Z" fill="#292929"/>
<path d="M167.924 28.552C171.124 25.288 175.284 23.656 180.404 23.656L200.404 43.656C195.284 43.656 191.124 45.288 187.924 48.552L167.924 28.552Z" fill="#292929"/>
<path d="M163.124 41.32C163.124 36.072 164.724 31.816 167.924 28.552L187.924 48.552C184.724 51.816 183.124 56.072 183.124 61.32L163.124 41.32Z" fill="#292929"/>
<path d="M126.251 69.0065L131.56 74.152L151.56 94.152L146.251 89.0065L126.251 69.0065Z" fill="#292929"/>
<path d="M73.5926 152.072L59.0006 120.488L79.0006 140.488L93.5926 172.072L73.5926 152.072Z" fill="#292929"/>
<path d="M156.116 64.6479C149.332 58.1839 146.036 50.4079 146.228 41.3199L166.228 61.32C166.049 69.8021 168.908 77.1413 174.806 83.3377L176.116 84.648C175.664 84.217 175.227 83.7803 174.806 83.3377L156.116 64.6479Z" fill="#292929"/>
<path d="M204.5 17.992C197.652 11.464 189.588 8.29597 180.308 8.48796L200.308 28.488C209.588 28.296 217.652 31.464 224.5 37.992L204.5 17.992Z" fill="#292929"/>
<path d="M131.56 74.152L136.84 74.152L156.84 94.152H151.56L131.56 74.152Z" fill="#292929"/>
<path d="M180.404 23.656C185.332 23.656 189.428 25.32 192.692 28.648L212.44 48.3953C212.524 48.4784 212.609 48.5626 212.692 48.648L212.44 48.3953C209.218 45.2358 205.206 43.656 200.404 43.656L180.404 23.656Z" fill="#292929"/>
<path d="M167.924 54.1839C164.724 50.8559 163.124 46.568 163.124 41.32L183.124 61.32C183.124 66.568 184.724 70.856 187.924 74.184L167.924 54.1839Z" fill="#292929"/>
<path d="M103.929 121.64H85.4966L105.497 141.64H123.929L103.929 121.64Z" fill="#292929"/>
<path d="M85.4966 121.64L73.5926 152.072L93.5926 172.072L105.497 141.64L85.4966 121.64Z" fill="#292929"/>
<path d="M40.1846 186.152L56.4086 153.032L76.4086 173.032L60.1846 206.152L40.1846 186.152Z" fill="#292929"/>
<path d="M34.9046 186.152L40.1846 186.152L60.1846 206.152H54.9046L34.9046 186.152Z" fill="#292929"/>
<path d="M197.684 41.32C197.684 36.2624 196.1 32.1186 192.933 28.8885L192.692 28.648C192.773 28.7276 192.854 28.8077 192.933 28.8885L212.692 48.648C216.02 51.912 217.684 56.136 217.684 61.32L197.684 41.32Z" fill="#292929"/>
<path d="M180.404 58.984C175.284 58.984 171.124 57.3839 167.924 54.1839L187.924 74.184C191.124 77.384 195.284 78.984 200.404 78.984L180.404 58.984Z" fill="#292929"/>
<path d="M56.4086 153.032L72.5366 186.152L92.5366 206.152L76.4086 173.032L56.4086 153.032Z" fill="#292929"/>
<path d="M217.71 9.63995V24.52L237.71 44.52V29.64L217.71 9.63995Z" fill="#292929"/>
<path d="M156.116 64.6479C162.9 71.1119 170.964 74.28 180.308 74.152L200.308 94.152C190.964 94.28 182.9 91.112 176.116 84.648L156.116 64.6479Z" fill="#292929"/>
<path d="M204.5 17.992C205.053 18.5142 205.583 19.0444 206.091 19.5826L224.5 37.992C231.412 44.52 234.772 52.296 234.58 61.32L214.58 41.3199C214.757 33.0179 211.927 25.7721 206.091 19.5826L204.5 17.992Z" fill="#292929"/>
<path d="M197.684 41.32C197.684 46.568 196.052 50.8239 192.788 54.0879L212.788 74.088C216.052 70.824 217.684 66.568 217.684 61.32L197.684 41.32Z" fill="#292929"/>
<path d="M192.788 54.0879C189.524 57.3519 185.396 58.984 180.404 58.984L200.404 78.984C205.396 78.984 209.524 77.352 212.788 74.088L192.788 54.0879Z" fill="#292929"/>
<path d="M77.8166 186.152L103.929 121.64L123.929 141.64L97.8166 206.152L77.8166 186.152Z" fill="#292929"/>
<path d="M217.71 24.52L236.718 24.52L256.718 44.52H237.71L217.71 24.52Z" fill="#292929"/>
<path d="M116.132 129.992C109.348 136.52 106.052 144.296 106.244 153.32L126.244 173.32C126.052 164.296 129.348 156.52 136.132 149.992L116.132 129.992Z" fill="#292929"/>
<path d="M140.324 120.488C131.044 120.296 122.98 123.464 116.132 129.992L136.132 149.992C142.98 143.464 151.044 140.296 160.324 140.488L140.324 120.488Z" fill="#292929"/>
<path d="M272.238 9.63995H217.71L237.71 29.64H292.238L272.238 9.63995Z" fill="#292929"/>
<path d="M72.5366 186.152L77.8166 186.152L97.8166 206.152H92.5366L72.5366 186.152Z" fill="#292929"/>
<path d="M180.308 74.152C189.588 74.28 197.652 71.1119 204.5 64.6479L224.5 84.648C217.652 91.112 209.588 94.28 200.308 94.152L180.308 74.152Z" fill="#292929"/>
<path d="M204.5 64.6479C211.412 58.1839 214.772 50.4079 214.58 41.3199L234.58 61.32C234.772 70.408 231.412 78.184 224.5 84.648L204.5 64.6479Z" fill="#292929"/>
<path d="M127.94 140.552C131.14 137.288 135.3 135.656 140.42 135.656L160.42 155.656C155.3 155.656 151.14 157.288 147.94 160.552L127.94 140.552Z" fill="#292929"/>
<path d="M123.14 153.32C123.14 148.072 124.74 143.816 127.94 140.552L147.94 160.552C144.74 163.816 143.14 168.072 143.14 173.32L123.14 153.32Z" fill="#292929"/>
<path d="M116.132 176.648C109.348 170.184 106.052 162.408 106.244 153.32L126.244 173.32C126.065 181.802 128.924 189.141 134.822 195.338L136.132 196.648C135.68 196.217 135.243 195.78 134.822 195.338L116.132 176.648Z" fill="#292929"/>
<path d="M164.516 129.992C157.668 123.464 149.604 120.296 140.324 120.488L160.324 140.488C169.604 140.296 177.668 143.464 184.516 149.992L164.516 129.992Z" fill="#292929"/>
<path d="M140.42 135.656C145.348 135.656 149.444 137.32 152.708 140.648L172.455 160.395C172.54 160.478 172.624 160.563 172.708 160.648L172.455 160.395C169.233 157.236 165.222 155.656 160.42 155.656L140.42 135.656Z" fill="#292929"/>
<path d="M127.94 166.184C124.74 162.856 123.14 158.568 123.14 153.32L143.14 173.32C143.14 178.568 144.74 182.856 147.94 186.184L127.94 166.184Z" fill="#292929"/>
<path d="M236.718 24.52L236.718 73L256.718 93V44.52L236.718 24.52Z" fill="#292929"/>
<path d="M253.23 24.52H272.238L292.238 44.52H273.23L253.23 24.52Z" fill="#292929"/>
<path d="M272.238 24.52V9.63995L292.238 29.64V44.52L272.238 24.52Z" fill="#292929"/>
<path d="M253.23 73V24.52L273.23 44.52V93L253.23 73Z" fill="#292929"/>
<path d="M157.7 153.32C157.7 148.262 156.116 144.119 152.948 140.888L152.708 140.648C152.789 140.728 152.869 140.808 152.948 140.888L172.708 160.648C176.036 163.912 177.7 168.136 177.7 173.32L157.7 153.32Z" fill="#292929"/>
<path d="M140.42 170.984C135.3 170.984 131.14 169.384 127.94 166.184L147.94 186.184C151.14 189.384 155.3 190.984 160.42 190.984L140.42 170.984Z" fill="#292929"/>
<path d="M116.132 176.648C122.916 183.112 130.98 186.28 140.324 186.152L160.324 206.152C150.98 206.28 142.916 203.112 136.132 196.648L116.132 176.648Z" fill="#292929"/>
<path d="M309.901 9.63995H291.661L311.661 29.64H329.901L309.901 9.63995Z" fill="#292929"/>
<path d="M164.516 129.992C165.069 130.514 165.599 131.044 166.107 131.583L184.516 149.992C191.428 156.52 194.788 164.296 194.596 173.32L174.596 153.32C174.773 145.018 171.943 137.772 166.107 131.583L164.516 129.992Z" fill="#292929"/>
<path d="M157.7 153.32C157.7 158.568 156.068 162.824 152.804 166.088L172.804 186.088C176.068 182.824 177.7 178.568 177.7 173.32L157.7 153.32Z" fill="#292929"/>
<path d="M152.804 166.088C149.54 169.352 145.412 170.984 140.42 170.984L160.42 190.984C165.412 190.984 169.54 189.352 172.804 186.088L152.804 166.088Z" fill="#292929"/>
<path d="M236.718 73H253.23L273.23 93H256.718L236.718 73Z" fill="#292929"/>
<path d="M208.903 121.64H184.039L204.039 141.64H228.903L208.903 121.64Z" fill="#292929"/>
<path d="M291.661 9.63995L313.453 48.904L333.453 68.904L311.661 29.64L291.661 9.63995Z" fill="#292929"/>
<path d="M140.324 186.152C149.604 186.28 157.668 183.112 164.516 176.648L184.516 196.648C177.668 203.112 169.604 206.28 160.324 206.152L140.324 186.152Z" fill="#292929"/>
<path d="M164.516 176.648C171.428 170.184 174.788 162.408 174.596 153.32L194.596 173.32C194.788 182.408 191.428 190.184 184.516 196.648L164.516 176.648Z" fill="#292929"/>
<path d="M321.709 31.72L309.901 9.63995L329.901 29.64L341.709 51.72L321.709 31.72Z" fill="#292929"/>
<path d="M184.039 121.64V185L204.039 205V141.64L184.039 121.64Z" fill="#292929"/>
<path d="M200.551 136.04H208.999L228.999 156.04H220.551L200.551 136.04Z" fill="#292929"/>
<path d="M226.471 127.688C221.863 123.656 216.007 121.64 208.903 121.64L228.903 141.64C236.007 141.64 241.863 143.656 246.471 147.688L226.471 127.688Z" fill="#292929"/>
<path d="M200.551 150.92V136.04L220.551 156.04V170.92L200.551 150.92Z" fill="#292929"/>
<path d="M333.517 9.63995L321.709 31.72L341.709 51.72L353.517 29.64L333.517 9.63995Z" fill="#292929"/>
<path d="M208.999 136.04C211.303 136.04 213.127 136.712 214.471 138.056L234.471 158.056C233.127 156.712 231.303 156.04 228.999 156.04L208.999 136.04Z" fill="#292929"/>
<path d="M351.661 9.63995H333.517L353.517 29.64H371.661L351.661 9.63995Z" fill="#292929"/>
<path d="M208.999 150.92L200.551 150.92L220.551 170.92H228.999L208.999 150.92Z" fill="#292929"/>
<path d="M216.583 143.432C216.583 141.316 215.955 139.6 214.699 138.284L214.471 138.056C214.549 138.131 214.625 138.207 214.699 138.284L234.471 158.056C235.879 159.4 236.583 161.192 236.583 163.432L216.583 143.432Z" fill="#292929"/>
<path d="M214.471 148.904C213.127 150.248 211.303 150.92 208.999 150.92L228.999 170.92C231.303 170.92 233.127 170.248 234.471 168.904L214.471 148.904Z" fill="#292929"/>
<path d="M216.583 143.432C216.583 145.672 215.879 147.496 214.471 148.904L234.471 168.904C235.879 167.496 236.583 165.672 236.583 163.432L216.583 143.432Z" fill="#292929"/>
<path d="M226.471 127.688C227.294 128.396 228.043 129.146 228.719 129.936L246.471 147.688C251.079 151.656 253.383 156.904 253.383 163.432L233.383 143.432C233.383 138.07 231.828 133.571 228.719 129.936L226.471 127.688Z" fill="#292929"/>
<path d="M200.551 165.32H207.367L227.367 185.32H220.551L200.551 165.32Z" fill="#292929"/>
<path d="M329.965 48.712L351.661 9.63995L371.661 29.64L349.965 68.712L329.965 48.712Z" fill="#292929"/>
<path d="M313.453 48.904V72.9999L333.453 93V68.904L313.453 48.904Z" fill="#292929"/>
<path d="M200.551 185V165.32L220.551 185.32V205L200.551 185Z" fill="#292929"/>
<path d="M263.176 121.64H246.664L266.664 141.64H283.176L263.176 121.64Z" fill="#292929"/>
<path d="M184.039 185L200.551 185L220.551 205H204.039L184.039 185Z" fill="#292929"/>
<path d="M223.399 161.48C230.055 157.384 233.383 151.368 233.383 143.432L253.383 163.432C253.383 171.368 250.055 177.384 243.399 181.48L223.399 161.48Z" fill="#292929"/>
<path d="M361.898 17.9919C355.114 24.5199 351.818 32.2959 352.01 41.3199L372.009 61.32C371.817 52.296 375.113 44.52 381.897 37.992L361.898 17.9919Z" fill="#292929"/>
<path d="M386.089 8.48796C376.809 8.29597 368.746 11.4639 361.898 17.9919L381.897 37.992C388.745 31.464 396.809 28.296 406.089 28.488L386.089 8.48796Z" fill="#292929"/>
<path d="M207.367 165.32L221.671 185L241.671 205L227.367 185.32L207.367 165.32Z" fill="#292929"/>
<path d="M329.965 73V48.712L349.965 68.712V93L329.965 73Z" fill="#292929"/>
<path d="M313.453 72.9999L329.965 73L349.965 93H333.453L313.453 72.9999Z" fill="#292929"/>
<path d="M263.176 150.344L263.176 121.64L283.176 141.64V170.344L263.176 150.344Z" fill="#292929"/>
<path d="M246.664 121.64V185L266.664 205V141.64L246.664 121.64Z" fill="#292929"/>
<path d="M240.103 185L223.399 161.48L243.399 181.48L260.103 205L240.103 185Z" fill="#292929"/>
<path d="M373.705 28.552C376.905 25.288 381.065 23.656 386.185 23.656L406.185 43.656C401.065 43.656 396.905 45.288 393.705 48.552L373.705 28.552Z" fill="#292929"/>
<path d="M368.906 41.32C368.906 36.072 370.505 31.816 373.705 28.552L393.705 48.552C390.505 51.816 388.905 56.072 388.905 61.32L368.906 41.32Z" fill="#292929"/>
<path d="M284.104 121.64L263.176 150.344L283.176 170.344L304.104 141.64L284.104 121.64Z" fill="#292929"/>
<path d="M361.898 64.6479C355.114 58.1839 351.818 50.4079 352.01 41.3199L372.009 61.32C371.83 69.8021 374.69 77.1413 380.587 83.3377L381.897 84.648C381.445 84.217 381.008 83.7803 380.587 83.3377L361.898 64.6479Z" fill="#292929"/>
<path d="M410.281 17.992C403.433 11.464 395.369 8.29597 386.089 8.48796L406.089 28.488C415.369 28.296 423.433 31.464 430.281 37.992L410.281 17.992Z" fill="#292929"/>
<path d="M303.304 121.64H284.104L304.104 141.64H323.304L303.304 121.64Z" fill="#292929"/>
<path d="M221.671 185L240.103 185L260.103 205H241.671L221.671 185Z" fill="#292929"/>
<path d="M386.185 23.656C391.113 23.656 395.21 25.32 398.474 28.648L418.221 48.3953C418.306 48.4784 418.39 48.5626 418.473 48.648L418.221 48.3953C414.999 45.2358 410.987 43.656 406.185 43.656L386.185 23.656Z" fill="#292929"/>
<path d="M373.706 54.1839C370.506 50.8559 368.906 46.568 368.906 41.32L388.905 61.32C388.905 66.568 390.505 70.856 393.705 74.184L373.706 54.1839Z" fill="#292929"/>
<path d="M281.512 151.784L303.304 121.64L323.304 141.64L301.512 171.784L281.512 151.784Z" fill="#292929"/>
<path d="M263.176 185V153.416L283.176 173.416V205L263.176 185Z" fill="#292929"/>
<path d="M403.466 41.32C403.466 36.2624 401.882 32.1186 398.714 28.8885L398.474 28.648C398.555 28.7276 398.635 28.8077 398.714 28.8885L418.473 48.648C421.801 51.912 423.465 56.136 423.465 61.32L403.466 41.32Z" fill="#292929"/>
<path d="M386.185 58.984C381.065 58.984 376.906 57.3839 373.706 54.1839L393.705 74.184C396.905 77.384 401.065 78.984 406.185 78.984L386.185 58.984Z" fill="#292929"/>
<path d="M246.664 185L263.176 185L283.176 205H266.664L246.664 185Z" fill="#292929"/>
<path d="M361.898 64.6479C368.682 71.1119 376.745 74.28 386.089 74.152L406.089 94.152C396.745 94.28 388.681 91.112 381.897 84.648L361.898 64.6479Z" fill="#292929"/>
<path d="M263.176 153.416L287.272 185L307.272 205L283.176 173.416L263.176 153.416Z" fill="#292929"/>
<path d="M410.281 17.992C410.834 18.5142 411.365 19.0444 411.872 19.5826L430.281 37.992C437.193 44.52 440.553 52.296 440.361 61.32L420.361 41.3199C420.538 33.0179 417.708 25.7721 411.872 19.5826L410.281 17.992Z" fill="#292929"/>
<path d="M445.933 9.63995H429.421L449.421 29.64H465.933L445.933 9.63995Z" fill="#292929"/>
<path d="M403.466 41.32C403.466 46.568 401.833 50.8239 398.569 54.0879L418.569 74.088C421.833 70.824 423.465 66.568 423.465 61.32L403.466 41.32Z" fill="#292929"/>
<path d="M398.569 54.0879C395.305 57.3519 391.177 58.984 386.185 58.984L406.185 78.984C411.177 78.984 415.305 77.352 418.569 74.088L398.569 54.0879Z" fill="#292929"/>
<path d="M429.421 9.63995V46.12L449.421 66.12V29.64L429.421 9.63995Z" fill="#292929"/>
<path d="M306.856 185L281.512 151.784L301.512 171.784L326.856 205L306.856 185Z" fill="#292929"/>
<path d="M386.089 74.152C395.369 74.28 403.433 71.1119 410.281 64.6479L430.281 84.648C423.433 91.112 415.369 94.28 406.089 94.152L386.089 74.152Z" fill="#292929"/>
<path d="M410.281 64.6479C417.193 58.1839 420.553 50.4079 420.361 41.3199L440.361 61.32C440.553 70.408 437.193 78.184 430.281 84.648L410.281 64.6479Z" fill="#292929"/>
<path d="M445.933 47.368L445.933 9.63995L465.933 29.64V67.368L445.933 47.368Z" fill="#292929"/>
<path d="M287.272 185L306.856 185L326.856 205H307.272L287.272 185Z" fill="#292929"/>
<path d="M485.485 9.63995H468.973L488.973 29.64H505.485L485.485 9.63995Z" fill="#292929"/>
<path d="M437.293 66.472C432.045 61.288 429.421 54.504 429.421 46.12L449.421 66.12C449.421 74.3769 451.966 81.0821 457.056 86.2353L457.293 86.472C457.213 86.3934 457.134 86.3145 457.056 86.2353L437.293 66.472Z" fill="#292929"/>
<path d="M332.281 171.08H313.561L333.561 191.08H352.281L332.281 171.08Z" fill="#292929"/>
<path d="M468.973 9.63995V47.368L488.973 67.368V29.64L468.973 9.63995Z" fill="#292929"/>
<path d="M449.101 55.912C446.989 53.8 445.933 50.952 445.933 47.368L465.933 67.368C465.933 70.952 466.989 73.8 469.101 75.912L449.101 55.912Z" fill="#292929"/>
<path d="M313.561 171.08V201.992L333.561 221.992V191.08L313.561 171.08Z" fill="#292929"/>
<path d="M391.182 121.64H369.102L389.102 141.64H411.182L391.182 121.64Z" fill="#292929"/>
<path d="M457.453 58.984C453.997 58.984 451.213 57.96 449.101 55.912L469.101 75.912C471.213 77.96 473.997 78.984 477.453 78.984L457.453 58.984Z" fill="#292929"/>
<path d="M485.485 46.12L485.485 9.63995L505.485 29.64V66.12L485.485 46.12Z" fill="#292929"/>
<path d="M326.521 201.992L332.281 171.08L352.281 191.08L346.521 221.992L326.521 201.992Z" fill="#292929"/>
<path d="M437.293 66.472C442.541 71.592 449.261 74.1519 457.453 74.1519L477.453 94.152C469.261 94.152 462.541 91.592 457.293 86.472L437.293 66.472Z" fill="#292929"/>
<path d="M468.973 47.368C468.973 50.952 467.917 53.8 465.805 55.912L485.805 75.912C487.917 73.8 488.973 70.952 488.973 67.368L468.973 47.368Z" fill="#292929"/>
<path d="M465.805 55.912C463.693 57.96 460.909 58.984 457.453 58.984L477.453 78.984C480.909 78.984 483.693 77.96 485.805 75.912L465.805 55.912Z" fill="#292929"/>
<path d="M522.637 9.63995H497.773L517.773 29.64H542.637L522.637 9.63995Z" fill="#292929"/>
<path d="M313.561 201.992H326.521L346.521 221.992H333.561L313.561 201.992Z" fill="#292929"/>
<path d="M369.102 121.64V185L389.102 205V141.64L369.102 121.64Z" fill="#292929"/>
<path d="M385.614 136.616H391.086L411.086 156.616H405.614L385.614 136.616Z" fill="#292929"/>
<path d="M415.95 130.28C409.294 124.392 401.038 121.512 391.182 121.64L411.182 141.64C421.038 141.512 429.294 144.392 435.95 150.28L415.95 130.28Z" fill="#292929"/>
<path d="M391.086 136.616C396.462 136.616 400.75 138.056 403.95 140.936L423.95 160.936C420.75 158.056 416.462 156.616 411.086 156.616L391.086 136.616Z" fill="#292929"/>
<path d="M457.453 74.1519C465.517 74.1519 472.205 71.56 477.517 66.376L497.517 86.376C492.205 91.56 485.517 94.152 477.453 94.152L457.453 74.1519Z" fill="#292929"/>
<path d="M477.517 66.376C482.829 61.128 485.485 54.376 485.485 46.12L505.485 66.12C505.485 74.376 502.829 81.128 497.517 86.376L477.517 66.376Z" fill="#292929"/>
<path d="M385.614 170.12V136.616L405.614 156.616V190.12L385.614 170.12Z" fill="#292929"/>
<path d="M497.773 9.63995V73L517.773 93V29.64L497.773 9.63995Z" fill="#292929"/>
<path d="M514.286 24.04H522.734L542.733 44.04H534.286L514.286 24.04Z" fill="#292929"/>
<path d="M540.206 15.688C535.598 11.656 529.741 9.63995 522.637 9.63995L542.637 29.64C549.741 29.64 555.598 31.656 560.206 35.688L540.206 15.688Z" fill="#292929"/>
<path d="M514.286 38.92V24.04L534.286 44.04V58.92L514.286 38.92Z" fill="#292929"/>
<path d="M522.734 24.04C525.038 24.04 526.861 24.712 528.205 26.056L548.206 46.056C546.862 44.712 545.037 44.04 542.733 44.04L522.734 24.04Z" fill="#292929"/>
<path d="M408.846 153.128C408.846 148.596 407.628 144.946 405.194 142.18L403.95 140.936C404.395 141.329 404.809 141.744 405.194 142.18L423.95 160.936C427.214 163.816 428.846 167.88 428.846 173.128L408.846 153.128Z" fill="#292929"/>
<path d="M522.734 38.92L514.286 38.92L534.286 58.92H542.733L522.734 38.92Z" fill="#292929"/>
<path d="M530.318 31.432C530.318 29.3164 529.69 27.6005 528.434 26.2841L528.205 26.056C528.284 26.1306 528.36 26.2067 528.434 26.2841L548.206 46.056C549.614 47.4 550.318 49.192 550.318 51.432L530.318 31.432Z" fill="#292929"/>
<path d="M391.086 170.12L385.614 170.12L405.614 190.12H411.086L391.086 170.12Z" fill="#292929"/>
<path d="M415.95 130.28C416.948 131.163 417.87 132.085 418.716 133.046L435.95 150.28C442.606 156.168 445.87 163.784 445.742 173.128L425.742 153.128C425.85 145.186 423.508 138.492 418.716 133.046L415.95 130.28Z" fill="#292929"/>
<path d="M528.205 36.9039C526.861 38.2479 525.038 38.92 522.734 38.92L542.733 58.92C545.037 58.92 546.862 58.248 548.206 56.904L528.205 36.9039Z" fill="#292929"/>
<path d="M530.318 31.432C530.318 33.672 529.613 35.4959 528.205 36.9039L548.206 56.904C549.614 55.496 550.318 53.672 550.318 51.432L530.318 31.432Z" fill="#292929"/>
<path d="M369.102 185L391.182 185L411.182 205H389.102L369.102 185Z" fill="#292929"/>
<path d="M403.854 165.512C400.59 168.584 396.334 170.12 391.086 170.12L411.086 190.12C416.334 190.12 420.59 188.584 423.854 185.512L403.854 165.512Z" fill="#292929"/>
<path d="M408.846 153.128C408.846 158.312 407.182 162.44 403.854 165.512L423.854 185.512C427.182 182.44 428.846 178.312 428.846 173.128L408.846 153.128Z" fill="#292929"/>
<path d="M540.206 15.688C541.028 16.3965 541.778 17.1459 542.454 17.9362L560.206 35.688C564.814 39.656 567.117 44.904 567.117 51.432L547.118 31.432C547.118 26.0697 545.563 21.5711 542.454 17.9362L540.206 15.688Z" fill="#292929"/>
<path d="M514.286 53.3199H521.102L541.102 73.32H534.286L514.286 53.3199Z" fill="#292929"/>
<path d="M514.286 72.9999V53.3199L534.286 73.32V93L514.286 72.9999Z" fill="#292929"/>
<path d="M479.163 121.64H435.195L455.195 141.64H499.163L479.163 121.64Z" fill="#292929"/>
<path d="M497.773 73L514.286 72.9999L534.286 93H517.773L497.773 73Z" fill="#292929"/>
<path d="M537.134 49.48C543.79 45.384 547.118 39.368 547.118 31.432L567.117 51.432C567.117 59.368 563.789 65.384 557.133 69.48L537.134 49.48Z" fill="#292929"/>
<path d="M391.182 185C400.974 185.128 409.198 182.184 415.854 176.168L435.854 196.168C429.198 202.184 420.974 205.128 411.182 205L391.182 185Z" fill="#292929"/>
<path d="M415.854 176.168C422.574 170.088 425.87 162.408 425.742 153.128L445.742 173.128C445.87 182.408 442.574 190.088 435.854 196.168L415.854 176.168Z" fill="#292929"/>
<path d="M435.195 121.64V185L455.195 205V141.64L435.195 121.64Z" fill="#292929"/>
<path d="M521.102 53.3199L535.406 72.9999L555.405 93L541.102 73.32L521.102 53.3199Z" fill="#292929"/>
<path d="M451.707 145.256V136.52L471.707 156.52V165.256L451.707 145.256Z" fill="#292929"/>
<path d="M451.707 136.52H479.163L499.163 156.52H471.707L451.707 136.52Z" fill="#292929"/>
<path d="M553.838 73L537.134 49.48L557.133 69.48L573.837 93L553.838 73Z" fill="#292929"/>
<path d="M471.291 145.256L451.707 145.256L471.707 165.256H491.291L471.291 145.256Z" fill="#292929"/>
<path d="M479.163 136.52L479.163 121.64L499.163 141.64V156.52L479.163 136.52Z" fill="#292929"/>
<path d="M610.153 9.63995H587.305L607.305 29.64H630.153L610.153 9.63995Z" fill="#292929"/>
<path d="M485.226 121.64V136.52L505.226 156.52V141.64L485.226 121.64Z" fill="#292929"/>
<path d="M451.707 170.12V159.08L471.707 179.08V190.12L451.707 170.12Z" fill="#292929"/>
<path d="M535.406 72.9999L553.838 73L573.837 93H555.405L535.406 72.9999Z" fill="#292929"/>
<path d="M451.707 159.08H471.291L491.291 179.08H471.707L451.707 159.08Z" fill="#292929"/>
<path d="M471.291 159.08V145.256L491.291 165.256V179.08L471.291 159.08Z" fill="#292929"/>
<path d="M587.305 9.63995V73L607.305 93V29.64L587.305 9.63995Z" fill="#292929"/>
<path d="M603.145 23.5599H609.097L629.097 43.56H623.145L603.145 23.5599Z" fill="#292929"/>
<path d="M625.417 14.92C621.385 11.4 616.297 9.63995 610.153 9.63995L630.153 29.64C636.297 29.64 641.385 31.4 645.417 34.92L625.417 14.92Z" fill="#292929"/>
<path d="M485.226 136.52L504.234 136.52L524.234 156.52H505.226L485.226 136.52Z" fill="#292929"/>
<path d="M603.145 34.6959V23.5599L623.145 43.56V54.696L603.145 34.6959Z" fill="#292929"/>
<path d="M539.754 121.64H485.226L505.226 141.64H559.754L539.754 121.64Z" fill="#292929"/>
<path d="M609.097 23.5599C611.081 23.5599 612.617 24.0719 613.705 25.0959L633.705 45.096C632.617 44.072 631.081 43.56 629.097 43.56L609.097 23.5599Z" fill="#292929"/>
<path d="M480.315 170.12L451.707 170.12L471.707 190.12H500.315L480.315 170.12Z" fill="#292929"/>
<path d="M609.097 34.696L603.145 34.6959L623.145 54.696H629.097L609.097 34.696Z" fill="#292929"/>
<path d="M626.627 16.0301C626.246 15.649 625.842 15.279 625.417 14.92L645.417 34.92C645.842 35.279 646.246 35.649 646.627 36.0301L626.627 16.0301Z" fill="#292929"/>
<path d="M615.433 29.1279C615.433 27.7017 615.01 26.5105 614.163 25.5544L613.705 25.0959C613.869 25.2422 614.022 25.3951 614.163 25.5544L633.705 45.096C634.857 46.12 635.433 47.464 635.433 49.128L615.433 29.1279Z" fill="#292929"/>
<path d="M435.195 185L480.315 185L500.315 205H455.195L435.195 185Z" fill="#292929"/>
<path d="M613.705 33.16C612.617 34.184 611.081 34.696 609.097 34.696L629.097 54.696C631.081 54.696 632.617 54.184 633.705 53.16L613.705 33.16Z" fill="#292929"/>
<path d="M615.433 29.1279C615.433 30.7919 614.857 32.136 613.705 33.16L633.705 53.16C634.857 52.136 635.433 50.792 635.433 49.128L615.433 29.1279Z" fill="#292929"/>
<path d="M631.561 28.36C631.561 23.4309 629.918 19.3231 626.633 16.0365L646.627 36.0301C649.916 39.3178 651.561 43.4277 651.561 48.36L631.561 28.36Z" fill="#292929"/>
<path d="M603.145 59.08V47.944L623.145 67.944V79.08L603.145 59.08Z" fill="#292929"/>
<path d="M603.145 47.944H615.817L635.817 67.944H623.145L603.145 47.944Z" fill="#292929"/>
<path d="M480.315 185L480.315 170.12L500.315 190.12V205L480.315 185Z" fill="#292929"/>
<path d="M627.721 39.016C630.281 36.2 631.561 32.648 631.561 28.36L651.561 48.36C651.561 52.648 650.281 56.2 647.721 59.016L627.721 39.016Z" fill="#292929"/>
<path d="M504.234 136.52L504.234 185L524.234 205V156.52L504.234 136.52Z" fill="#292929"/>
<path d="M520.746 136.52H539.754L559.754 156.52H540.746L520.746 136.52Z" fill="#292929"/>
<path d="M615.817 47.944C618.065 47.944 619.715 48.47 620.767 49.5219L640.766 69.5208C639.714 68.4696 638.065 67.944 635.817 67.944L615.817 47.944Z" fill="#292929"/>
<path d="M615.817 59.08L603.145 59.08L623.145 79.08H635.817L615.817 59.08Z" fill="#292929"/>
<path d="M539.754 136.52L539.754 121.64L559.754 141.64V156.52L539.754 136.52Z" fill="#292929"/>
<path d="M634.023 43.0393C632.391 41.4083 630.29 40.0672 627.721 39.016L647.721 59.016C650.29 60.0672 652.391 61.4083 654.023 63.0393L634.023 43.0393Z" fill="#292929"/>
<path d="M620.767 49.5219C621.691 50.446 622.153 51.7761 622.153 53.512L642.153 73.512C642.153 71.7761 641.691 70.446 640.767 69.5219L620.767 49.5219Z" fill="#292929"/>
<path d="M587.305 73L616.873 73L636.873 93H607.305L587.305 73Z" fill="#292929"/>
<path d="M622.153 53.512C622.153 57.224 620.041 59.08 615.817 59.08L635.817 79.08C640.041 79.08 642.153 77.224 642.153 73.512L622.153 53.512Z" fill="#292929"/>
<path d="M691.179 9.63995H647.211L667.211 29.64H711.179L691.179 9.63995Z" fill="#292929"/>
<path d="M520.746 185V136.52L540.746 156.52V205L520.746 185Z" fill="#292929"/>
<path d="M638.281 54.184C638.281 49.594 636.863 45.8806 634.027 43.0437L654.023 63.0393C656.861 65.8768 658.281 69.5917 658.281 74.184L638.281 54.184Z" fill="#292929"/>
<path d="M647.211 9.63995V73L667.211 93V29.64L647.211 9.63995Z" fill="#292929"/>
<path d="M591.007 121.64H547.039L567.039 141.64H611.007L591.007 121.64Z" fill="#292929"/>
<path d="M663.723 33.256V24.52L683.723 44.52V53.256L663.723 33.256Z" fill="#292929"/>
<path d="M616.873 73C623.017 73 628.105 71.24 632.137 67.72L652.137 87.72C648.105 91.24 643.017 93 636.873 93L616.873 73Z" fill="#292929"/>
<path d="M632.137 67.72C636.233 64.136 638.281 59.624 638.281 54.184L658.281 74.184C658.281 79.624 656.233 84.136 652.137 87.72L632.137 67.72Z" fill="#292929"/>
<path d="M504.234 185H520.746L540.746 205H524.234L504.234 185Z" fill="#292929"/>
<path d="M547.039 121.64V185L567.039 205V141.64L547.039 121.64Z" fill="#292929"/>
<path d="M663.723 24.52H691.179L711.179 44.52H683.723L663.723 24.52Z" fill="#292929"/>
<path d="M563.551 145.256V136.52L583.551 156.52V165.256L563.551 145.256Z" fill="#292929"/>
<path d="M683.307 33.256L663.723 33.256L683.723 53.256H703.307L683.307 33.256Z" fill="#292929"/>
<path d="M691.179 24.52V9.63995L711.179 29.64V44.52L691.179 24.52Z" fill="#292929"/>
<path d="M563.551 136.52H591.007L611.007 156.52H583.551L563.551 136.52Z" fill="#292929"/>
<path d="M663.723 58.12V47.08L683.723 67.08V78.12L663.723 58.12Z" fill="#292929"/>
<path d="M583.135 145.256L563.551 145.256L583.551 165.256H603.135L583.135 145.256Z" fill="#292929"/>
<path d="M591.007 136.52V121.64L611.007 141.64V156.52L591.007 136.52Z" fill="#292929"/>
<path d="M663.723 47.08H683.307L703.307 67.08H683.723L663.723 47.08Z" fill="#292929"/>
<path d="M683.307 47.08V33.256L703.307 53.256V67.08L683.307 47.08Z" fill="#292929"/>
<path d="M707.417 13.672C703.321 17.128 701.273 21.64 701.273 27.208L721.273 47.208C721.273 41.64 723.321 37.128 727.417 33.672L707.417 13.672Z" fill="#292929"/>
<path d="M723.449 8.48798C716.921 8.48798 711.577 10.216 707.417 13.672L727.417 33.672C731.577 30.216 736.921 28.488 743.449 28.488L723.449 8.48798Z" fill="#292929"/>
<path d="M563.551 170.12V159.08L583.551 179.08V190.12L563.551 170.12Z" fill="#292929"/>
<path d="M563.551 159.08H583.135L603.135 179.08H583.551L563.551 159.08Z" fill="#292929"/>
<path d="M583.135 159.08V145.256L603.135 165.256V179.08L583.135 159.08Z" fill="#292929"/>
<path d="M692.331 58.12L663.723 58.12L683.723 78.12H712.331L692.331 58.12Z" fill="#292929"/>
<path d="M701.273 27.208C701.273 31.7969 703.032 35.8488 706.548 39.3638L726.54 59.3558C723.029 55.8427 721.273 51.7934 721.273 47.208L701.273 27.208Z" fill="#292929"/>
<path d="M647.211 73L692.331 73L712.331 93H667.211L647.211 73Z" fill="#292929"/>
<path d="M740.616 14.8281C736.387 10.6014 730.665 8.48798 723.449 8.48798L743.449 28.488C750.665 28.488 756.387 30.6013 760.616 34.8281L740.616 14.8281Z" fill="#292929"/>
<path d="M607.759 129.992C600.975 136.456 597.647 144.232 597.775 153.32L617.775 173.32C617.647 164.232 620.975 156.456 627.759 149.992L607.759 129.992Z" fill="#292929"/>
<path d="M632.047 120.488C622.639 120.296 614.543 123.464 607.759 129.992L627.759 149.992C634.543 143.464 642.639 140.296 652.047 140.488L632.047 120.488Z" fill="#292929"/>
<path d="M717.977 27.016C717.977 24.328 719.865 22.984 723.641 22.984L743.641 42.984C739.865 42.984 737.977 44.328 737.977 47.016L717.977 27.016Z" fill="#292929"/>
<path d="M719.129 29.896C718.361 29.128 717.977 28.168 717.977 27.016L737.977 47.016C737.977 48.168 738.361 49.128 739.129 49.896L719.129 29.896Z" fill="#292929"/>
<path d="M592.159 170.12L563.551 170.12L583.551 190.12H612.159L592.159 170.12Z" fill="#292929"/>
<path d="M723.641 22.984C725.817 22.984 727.705 23.528 729.305 24.616L749.305 44.616C747.705 43.528 745.817 42.984 743.641 42.984L723.641 22.984Z" fill="#292929"/>
<path d="M723.449 32.2C721.401 31.368 719.961 30.6 719.129 29.896L739.129 49.896C739.961 50.6 741.401 51.368 743.449 52.2L723.449 32.2Z" fill="#292929"/>
<path d="M547.039 185L592.159 185L612.159 205H567.039L547.039 185Z" fill="#292929"/>
<path d="M706.548 39.3638C709.162 41.9766 712.748 44.2926 717.305 46.312L737.305 66.312C732.748 64.2926 729.162 61.9765 726.548 59.3637L706.548 39.3638Z" fill="#292929"/>
<path d="M729.305 24.616C729.997 25.0587 730.688 25.6268 731.38 26.3206L751.345 46.2851C750.665 45.6074 749.985 45.051 749.305 44.616L729.305 24.616Z" fill="#292929"/>
<path d="M692.331 73V58.12L712.331 78.12V93L692.331 73Z" fill="#292929"/>
<path d="M709.625 51.496L698.489 59.944L718.489 79.944L729.625 71.496L709.625 51.496Z" fill="#292929"/>
<path d="M731.38 26.3206C732.288 27.2318 733.197 28.3595 734.105 29.7039L754.105 49.704C753.197 48.3596 752.288 47.2318 751.38 46.3206L731.38 26.3206Z" fill="#292929"/>
<path d="M730.745 35.272L723.449 32.2L743.449 52.2L750.745 55.272L730.745 35.272Z" fill="#292929"/>
<path d="M745.145 21.256C743.899 18.7451 742.391 16.6045 740.622 14.8343L760.616 34.8281C762.388 36.5995 763.898 38.7421 765.145 41.256L745.145 21.256Z" fill="#292929"/>
<path d="M649.135 125C644.079 121.992 638.383 120.488 632.047 120.488L652.047 140.488C658.383 140.488 664.079 141.992 669.135 145L649.135 125Z" fill="#292929"/>
<path d="M619.471 140.552C622.735 137.288 626.895 135.656 631.951 135.656L651.951 155.656C646.895 155.656 642.735 157.288 639.471 160.552L619.471 140.552Z" fill="#292929"/>
<path d="M698.489 59.944C699.717 62.2966 701.244 64.3858 703.071 66.2116L723.061 86.2018C721.238 84.3783 719.714 82.2923 718.489 79.944L698.489 59.944Z" fill="#292929"/>
<path d="M614.671 153.416C614.671 148.104 616.271 143.816 619.471 140.552L639.471 160.552C636.271 163.816 634.671 168.104 634.671 173.416L614.671 153.416Z" fill="#292929"/>
<path d="M712.402 54.7094C711.464 53.7654 710.538 52.6943 709.625 51.496L729.625 71.496C730.538 72.6943 731.464 73.7654 732.402 74.7094L712.402 54.7094Z" fill="#292929"/>
<path d="M734.105 29.7039L745.145 21.256L765.145 41.256L754.105 49.704L734.105 29.7039Z" fill="#292929"/>
<path d="M607.663 176.648C600.879 170.184 597.583 162.408 597.775 153.32L617.775 173.32C617.596 181.802 620.455 189.141 626.353 195.338L627.663 196.648C627.211 196.217 626.774 195.78 626.353 195.338L607.663 176.648Z" fill="#292929"/>
<path d="M750.96 9.63995V24.52L770.96 44.52V29.64L750.96 9.63995Z" fill="#292929"/>
<path d="M717.305 46.312L723.833 49.192L743.833 69.192L737.305 66.312L717.305 46.312Z" fill="#292929"/>
<path d="M592.159 185V170.12L612.159 190.12V205L592.159 185Z" fill="#292929"/>
<path d="M712.513 54.8198C712.476 54.7832 712.439 54.7464 712.402 54.7094L712.513 54.8198C713.644 55.9442 714.793 56.8843 715.961 57.64L735.961 77.64C734.755 76.8597 733.569 75.8828 732.402 74.7094L712.513 54.8198Z" fill="#292929"/>
<path d="M703.071 66.2116C704.673 67.813 706.506 69.2118 708.569 70.4079L728.569 90.408C726.506 89.2118 724.673 87.813 723.071 86.2116L703.071 66.2116Z" fill="#292929"/>
<path d="M742.035 42.2571C739.459 39.6816 735.695 37.3532 730.745 35.272L750.745 55.272C755.695 57.3532 759.459 59.6816 762.035 62.2571L742.035 42.2571Z" fill="#292929"/>
<path d="M631.951 135.656C636.864 135.656 641.066 137.402 644.556 140.894L664.548 160.886C661.059 157.399 656.86 155.656 651.951 155.656L631.951 135.656Z" fill="#292929"/>
<path d="M619.471 166.184C616.271 162.856 614.671 158.6 614.671 153.416L634.671 173.416C634.671 178.6 636.271 182.856 639.471 186.184L619.471 166.184Z" fill="#292929"/>
<path d="M723.833 49.192C726.457 50.344 728.185 51.272 729.017 51.976L749.017 71.976C748.185 71.272 746.457 70.344 743.833 69.192L723.833 49.192Z" fill="#292929"/>
<path d="M723.737 59.6559C720.729 59.6559 718.137 58.984 715.961 57.64L735.961 77.64C738.137 78.984 740.729 79.656 743.737 79.656L723.737 59.6559Z" fill="#292929"/>
<path d="M655.396 129.809C653.537 127.951 651.45 126.348 649.135 125L669.135 145C671.45 146.348 673.537 147.951 675.396 149.809L655.396 129.809Z" fill="#292929"/>
<path d="M730.265 55.048C730.265 53.9377 729.981 53.0458 729.414 52.3723L729.017 51.976C729.162 52.0984 729.294 52.2305 729.414 52.3723L749.017 71.976C749.849 72.68 750.265 73.704 750.265 75.048L730.265 55.048Z" fill="#292929"/>
<path d="M730.265 55.048C730.265 58.12 728.089 59.6559 723.737 59.6559L743.737 79.656C748.089 79.656 750.265 78.12 750.265 75.048L730.265 55.048Z" fill="#292929"/>
<path d="M750.96 24.52L769.968 24.52L789.968 44.52H770.96L750.96 24.52Z" fill="#292929"/>
<path d="M743.033 43.3359C742.725 42.9742 742.395 42.617 742.043 42.2645L762.035 62.2571C762.391 62.612 762.723 62.9717 763.033 63.336L743.033 43.3359Z" fill="#292929"/>
<path d="M805.488 9.63995H750.96L770.96 29.64H825.488L805.488 9.63995Z" fill="#292929"/>
<path d="M708.569 70.4079C713.049 72.9039 718.105 74.152 723.737 74.152L743.737 94.152C738.105 94.152 733.049 92.904 728.569 90.408L708.569 70.4079Z" fill="#292929"/>
<path d="M644.556 140.894C645.976 142.315 647.278 144.025 648.463 146.024L668.463 166.024C667.278 164.025 665.976 162.315 664.556 160.894L644.556 140.894Z" fill="#292929"/>
<path d="M661.039 137.48C659.48 134.571 657.603 132.017 655.407 129.82L675.396 149.809C677.597 152.008 679.478 154.565 681.039 157.48L661.039 137.48Z" fill="#292929"/>
<path d="M746.969 54.3759C746.969 49.9599 745.657 46.2799 743.033 43.3359L763.033 63.336C765.657 66.28 766.969 69.96 766.969 74.376L746.969 54.3759Z" fill="#292929"/>
<path d="M665.038 121.64V136.52L685.038 156.52V141.64L665.038 121.64Z" fill="#292929"/>
<path d="M631.951 170.984C626.959 170.984 622.799 169.384 619.471 166.184L639.471 186.184C642.799 189.384 646.959 190.984 651.951 190.984L631.951 170.984Z" fill="#292929"/>
<path d="M648.463 146.024L661.039 137.48L681.039 157.48L668.463 166.024L648.463 146.024Z" fill="#292929"/>
<path d="M607.663 176.648C614.511 183.112 622.607 186.28 631.951 186.152L651.951 206.152C642.607 206.28 634.511 203.112 627.663 196.648L607.663 176.648Z" fill="#292929"/>
<path d="M723.737 74.152C730.457 74.152 735.993 72.36 740.345 68.776L760.345 88.776C755.993 92.36 750.457 94.152 743.737 94.152L723.737 74.152Z" fill="#292929"/>
<path d="M740.345 68.776C744.761 65.192 746.969 60.3919 746.969 54.3759L766.969 74.376C766.969 80.392 764.761 85.192 760.345 88.776L740.345 68.776Z" fill="#292929"/>
<path d="M648.463 160.616C644.367 167.528 638.863 170.984 631.951 170.984L651.951 190.984C658.863 190.984 664.367 187.528 668.463 180.616L648.463 160.616Z" fill="#292929"/>
<path d="M665.038 136.52L684.046 136.52L704.046 156.52H685.038L665.038 136.52Z" fill="#292929"/>
<path d="M719.566 121.64H665.038L685.038 141.64H739.566L719.566 121.64Z" fill="#292929"/>
<path d="M769.968 24.52L769.968 73L789.968 93V44.52L769.968 24.52Z" fill="#292929"/>
<path d="M661.039 169.16L648.463 160.616L668.463 180.616L681.039 189.16L661.039 169.16Z" fill="#292929"/>
<path d="M786.48 24.52H805.488L825.488 44.52H806.48L786.48 24.52Z" fill="#292929"/>
<path d="M805.488 24.52V9.63995L825.488 29.64V44.52L805.488 24.52Z" fill="#292929"/>
<path d="M631.951 186.152C638.351 186.152 644.079 184.68 649.135 181.736L669.135 201.736C664.079 204.68 658.351 206.152 651.951 206.152L631.951 186.152Z" fill="#292929"/>
<path d="M649.135 181.736C654.191 178.728 658.159 174.536 661.039 169.16L681.039 189.16C678.159 194.536 674.191 198.728 669.135 201.736L649.135 181.736Z" fill="#292929"/>
<path d="M786.48 73V24.52L806.48 44.52V93L786.48 73Z" fill="#292929"/>
<path d="M684.046 136.52L684.046 185L704.046 205V156.52L684.046 136.52Z" fill="#292929"/>
<path d="M700.558 136.52H719.566L739.566 156.52H720.558L700.558 136.52Z" fill="#292929"/>
<path d="M719.566 136.52V121.64L739.566 141.64V156.52L719.566 136.52Z" fill="#292929"/>
<path d="M769.968 73H786.48L806.48 93H789.968L769.968 73Z" fill="#292929"/>
<path d="M743.364 121.64H726.852L746.852 141.64H763.364L743.364 121.64Z" fill="#292929"/>
<path d="M700.558 185V136.52L720.558 156.52V205L700.558 185Z" fill="#292929"/>
<path d="M684.046 185H700.558L720.558 205H704.046L684.046 185Z" fill="#292929"/>
<path d="M726.852 121.64V185L746.852 205V141.64L726.852 121.64Z" fill="#292929"/>
<path d="M768.584 121.64H749.864L769.864 141.64H788.584L768.584 121.64Z" fill="#292929"/>
<path d="M743.364 185V121.64L763.364 141.64V205L743.364 185Z" fill="#292929"/>
<path d="M781.352 152.744L768.584 121.64L788.584 141.64L801.352 172.744L781.352 152.744Z" fill="#292929"/>
<path d="M749.864 121.64L778.664 186.152L798.664 206.152L769.864 141.64L749.864 121.64Z" fill="#292929"/>
<path d="M726.852 185H743.364L763.364 205H746.852L726.852 185Z" fill="#292929"/>
<path d="M794.024 121.64L781.352 152.744L801.352 172.744L814.024 141.64L794.024 121.64Z" fill="#292929"/>
<path d="M812.744 121.64H794.024L814.024 141.64H832.744L812.744 121.64Z" fill="#292929"/>
<path d="M783.944 186.152L812.744 121.64L832.744 141.64L803.944 206.152L783.944 186.152Z" fill="#292929"/>
<path d="M863.257 121.64H819.289L839.289 141.64H883.257L863.257 121.64Z" fill="#292929"/>
<path d="M778.664 186.152H783.944L803.944 206.152H798.664L778.664 186.152Z" fill="#292929"/>
<path d="M819.289 121.64V185L839.289 205V141.64L819.289 121.64Z" fill="#292929"/>
<path d="M835.801 145.256V136.52L855.801 156.52V165.256L835.801 145.256Z" fill="#292929"/>
<path d="M835.801 136.52H863.257L883.257 156.52H855.801L835.801 136.52Z" fill="#292929"/>
<path d="M855.385 145.256L835.801 145.256L855.801 165.256H875.385L855.385 145.256Z" fill="#292929"/>
<path d="M863.257 136.52V121.64L883.257 141.64V156.52L863.257 136.52Z" fill="#292929"/>
<path d="M835.801 170.12V159.08L855.801 179.08V190.12L835.801 170.12Z" fill="#292929"/>
<path d="M835.801 159.08H855.385L875.385 179.08H855.801L835.801 159.08Z" fill="#292929"/>
<path d="M855.385 159.08V145.256L875.385 165.256V179.08L855.385 159.08Z" fill="#292929"/>
<path d="M864.409 170.12L835.801 170.12L855.801 190.12H884.409L864.409 170.12Z" fill="#292929"/>
<path d="M819.289 185L864.409 185L884.409 205H839.289L819.289 185Z" fill="#292929"/>
<path d="M864.409 185V170.12L884.409 190.12V205L864.409 185Z" fill="#292929"/>
</g>
<path d="M120.328 9.63997H136.84V74.152H131.56L97.1917 40.84V73H80.6797V8.48796H85.9597L120.328 41.32V9.63997Z" fill="url(#paint0_linear_55_7636)"/>
<path d="M146.228 41.32C146.036 32.296 149.332 24.52 156.116 17.992C162.964 11.464 171.028 8.29597 180.308 8.48796C189.588 8.29597 197.652 11.464 204.5 17.992C211.412 24.52 214.772 32.296 214.58 41.32C214.772 50.408 211.412 58.184 204.5 64.648C197.652 71.112 189.588 74.28 180.308 74.152C170.964 74.28 162.9 71.112 156.116 64.648C149.332 58.184 146.036 50.408 146.228 41.32ZM197.684 41.32C197.684 36.136 196.02 31.912 192.692 28.648C189.428 25.32 185.332 23.656 180.404 23.656C175.284 23.656 171.124 25.288 167.924 28.552C164.724 31.816 163.124 36.072 163.124 41.32C163.124 46.568 164.724 50.856 167.924 54.184C171.124 57.384 175.284 58.984 180.404 58.984C185.396 58.984 189.524 57.352 192.788 54.088C196.052 50.824 197.684 46.568 197.684 41.32Z" fill="url(#paint1_linear_55_7636)"/>
<path d="M236.718 73V24.52H217.71V9.63997H272.238V24.52H253.23V73H236.718Z" fill="url(#paint2_linear_55_7636)"/>
<path d="M351.661 9.63997L329.965 48.712V73H313.453V48.904L291.661 9.63997H309.901L321.709 31.72L333.517 9.63997H351.661Z" fill="url(#paint3_linear_55_7636)"/>
<path d="M352.009 41.32C351.817 32.296 355.113 24.52 361.897 17.992C368.745 11.464 376.809 8.29597 386.089 8.48796C395.369 8.29597 403.433 11.464 410.281 17.992C417.193 24.52 420.553 32.296 420.361 41.32C420.553 50.408 417.193 58.184 410.281 64.648C403.433 71.112 395.369 74.28 386.089 74.152C376.745 74.28 368.681 71.112 361.897 64.648C355.113 58.184 351.817 50.408 352.009 41.32ZM403.465 41.32C403.465 36.136 401.801 31.912 398.473 28.648C395.209 25.32 391.113 23.656 386.185 23.656C381.065 23.656 376.905 25.288 373.705 28.552C370.505 31.816 368.905 36.072 368.905 41.32C368.905 46.568 370.505 50.856 373.705 54.184C376.905 57.384 381.065 58.984 386.185 58.984C391.177 58.984 395.305 57.352 398.569 54.088C401.833 50.824 403.465 46.568 403.465 41.32Z" fill="url(#paint4_linear_55_7636)"/>
<path d="M429.421 46.12V9.63997H445.933V47.368C445.933 50.952 446.989 53.8 449.101 55.912C451.213 57.96 453.997 58.984 457.453 58.984C460.909 58.984 463.693 57.96 465.805 55.912C467.917 53.8 468.973 50.952 468.973 47.368V9.63997H485.485V46.12C485.485 54.376 482.829 61.128 477.517 66.376C472.205 71.56 465.517 74.152 457.453 74.152C449.261 74.152 442.541 71.592 437.293 66.472C432.045 61.288 429.421 54.504 429.421 46.12Z" fill="url(#paint5_linear_55_7636)"/>
<path d="M553.837 73H535.405L521.102 53.32H514.285V73H497.773V9.63997H522.637C529.741 9.63997 535.598 11.656 540.206 15.688C544.814 19.656 547.117 24.904 547.117 31.432C547.117 39.368 543.789 45.384 537.133 49.48L553.837 73ZM514.285 24.04V38.92H522.733C525.037 38.92 526.862 38.248 528.206 36.904C529.614 35.496 530.318 33.672 530.318 31.432C530.318 29.192 529.614 27.4 528.206 26.056C526.862 24.712 525.037 24.04 522.733 24.04H514.285Z" fill="url(#paint6_linear_55_7636)"/>
<path d="M638.281 54.184C638.281 59.624 636.233 64.136 632.137 67.72C628.105 71.24 623.017 73 616.873 73H587.305V9.63997H610.153C616.297 9.63997 621.385 11.4 625.417 14.92C629.513 18.376 631.561 22.856 631.561 28.36C631.561 32.648 630.281 36.2 627.721 39.016C634.761 41.896 638.281 46.952 638.281 54.184ZM609.097 23.56H603.145V34.696H609.097C611.081 34.696 612.617 34.184 613.705 33.16C614.857 32.136 615.433 30.792 615.433 29.128C615.433 27.464 614.857 26.12 613.705 25.096C612.617 24.072 611.081 23.56 609.097 23.56ZM615.817 59.08C620.041 59.08 622.153 57.224 622.153 53.512C622.153 49.8 620.041 47.944 615.817 47.944H603.145V59.08H615.817Z" fill="url(#paint7_linear_55_7636)"/>
<path d="M647.211 73V9.63997H691.179V24.52H663.723V33.256H683.307V47.08H663.723V58.12H692.331V73H647.211Z" fill="url(#paint8_linear_55_7636)"/>
<path d="M698.489 59.944L709.625 51.496C711.673 54.184 713.785 56.232 715.961 57.64C718.137 58.984 720.729 59.656 723.737 59.656C728.089 59.656 730.265 58.12 730.265 55.048C730.265 53.704 729.849 52.68 729.017 51.976C728.185 51.272 726.457 50.344 723.833 49.192L717.305 46.312C706.617 41.576 701.273 35.208 701.273 27.208C701.273 21.64 703.321 17.128 707.417 13.672C711.577 10.216 716.921 8.48796 723.449 8.48796C733.689 8.48796 740.921 12.744 745.145 21.256L734.105 29.704C732.505 27.336 730.905 25.64 729.305 24.616C727.705 23.528 725.817 22.984 723.641 22.984C719.865 22.984 717.977 24.328 717.977 27.016C717.977 28.168 718.361 29.128 719.129 29.896C719.961 30.6 721.401 31.368 723.449 32.2L730.745 35.272C736.377 37.64 740.473 40.328 743.033 43.336C745.657 46.28 746.969 49.96 746.969 54.376C746.969 60.392 744.761 65.192 740.345 68.776C735.993 72.36 730.457 74.152 723.737 74.152C718.105 74.152 713.049 72.904 708.569 70.408C704.153 67.848 700.793 64.36 698.489 59.944Z" fill="url(#paint9_linear_55_7636)"/>
<path d="M769.968 73V24.52H750.96V9.63997H805.488V24.52H786.48V73H769.968Z" fill="url(#paint10_linear_55_7636)"/>
<path d="M85.4966 121.64H103.929L77.8166 186.152H72.5366L56.4086 153.032L40.1846 186.152H34.9046L8.7926 121.64H27.2246L39.1286 152.072L53.7206 120.488H59.0006L73.5926 152.072L85.4966 121.64Z" fill="url(#paint11_linear_55_7636)"/>
<path d="M106.244 153.32C106.052 144.296 109.348 136.52 116.132 129.992C122.98 123.464 131.044 120.296 140.324 120.488C149.604 120.296 157.668 123.464 164.516 129.992C171.428 136.52 174.788 144.296 174.596 153.32C174.788 162.408 171.428 170.184 164.516 176.648C157.668 183.112 149.604 186.28 140.324 186.152C130.98 186.28 122.916 183.112 116.132 176.648C109.348 170.184 106.052 162.408 106.244 153.32ZM157.7 153.32C157.7 148.136 156.036 143.912 152.708 140.648C149.444 137.32 145.348 135.656 140.42 135.656C135.3 135.656 131.14 137.288 127.94 140.552C124.74 143.816 123.14 148.072 123.14 153.32C123.14 158.568 124.74 162.856 127.94 166.184C131.14 169.384 135.3 170.984 140.42 170.984C145.412 170.984 149.54 169.352 152.804 166.088C156.068 162.824 157.7 158.568 157.7 153.32Z" fill="url(#paint12_linear_55_7636)"/>
<path d="M240.103 185H221.671L207.367 165.32H200.551V185H184.039V121.64H208.903C216.007 121.64 221.863 123.656 226.471 127.688C231.079 131.656 233.383 136.904 233.383 143.432C233.383 151.368 230.055 157.384 223.399 161.48L240.103 185ZM200.551 136.04V150.92H208.999C211.303 150.92 213.127 150.248 214.471 148.904C215.879 147.496 216.583 145.672 216.583 143.432C216.583 141.192 215.879 139.4 214.471 138.056C213.127 136.712 211.303 136.04 208.999 136.04H200.551Z" fill="url(#paint13_linear_55_7636)"/>
<path d="M306.856 185H287.272L263.176 153.416V185H246.664V121.64H263.176V150.344L284.104 121.64H303.304L281.512 151.784L306.856 185Z" fill="url(#paint14_linear_55_7636)"/>
<path d="M313.561 201.992V171.08H332.281L326.521 201.992H313.561Z" fill="url(#paint15_linear_55_7636)"/>
<path d="M369.102 185V121.64H391.182C401.038 121.512 409.294 124.392 415.95 130.28C422.606 136.168 425.87 143.784 425.742 153.128C425.87 162.408 422.574 170.088 415.854 176.168C409.198 182.184 400.974 185.128 391.182 185H369.102ZM385.614 170.12H391.086C396.334 170.12 400.59 168.584 403.854 165.512C407.182 162.44 408.846 158.312 408.846 153.128C408.846 147.88 407.214 143.816 403.95 140.936C400.75 138.056 396.462 136.616 391.086 136.616H385.614V170.12Z" fill="url(#paint16_linear_55_7636)"/>
<path d="M435.195 185V121.64H479.163V136.52H451.707V145.256H471.291V159.08H451.707V170.12H480.315V185H435.195Z" fill="url(#paint17_linear_55_7636)"/>
<path d="M504.234 185V136.52H485.226V121.64H539.754V136.52H520.746V185H504.234Z" fill="url(#paint18_linear_55_7636)"/>
<path d="M547.039 185V121.64H591.007V136.52H563.551V145.256H583.135V159.08H563.551V170.12H592.159V185H547.039Z" fill="url(#paint19_linear_55_7636)"/>
<path d="M597.775 153.32C597.647 144.232 600.975 136.456 607.759 129.992C614.543 123.464 622.639 120.296 632.047 120.488C638.383 120.488 644.079 121.992 649.135 125C654.191 127.944 658.159 132.104 661.039 137.48L648.463 146.024C644.367 139.112 638.863 135.656 631.951 135.656C626.895 135.656 622.735 137.288 619.471 140.552C616.271 143.816 614.671 148.104 614.671 153.416C614.671 158.6 616.271 162.856 619.471 166.184C622.799 169.384 626.959 170.984 631.951 170.984C638.863 170.984 644.367 167.528 648.463 160.616L661.039 169.16C658.159 174.536 654.191 178.728 649.135 181.736C644.079 184.68 638.351 186.152 631.951 186.152C622.607 186.28 614.511 183.112 607.663 176.648C600.879 170.184 597.583 162.408 597.775 153.32Z" fill="url(#paint20_linear_55_7636)"/>
<path d="M684.046 185V136.52H665.038V121.64H719.566V136.52H700.558V185H684.046Z" fill="url(#paint21_linear_55_7636)"/>
<path d="M726.852 185V121.64H743.364V185H726.852Z" fill="url(#paint22_linear_55_7636)"/>
<path d="M794.024 121.64H812.744L783.944 186.152H778.664L749.864 121.64H768.584L781.352 152.744L794.024 121.64Z" fill="url(#paint23_linear_55_7636)"/>
<path d="M819.289 185V121.64H863.257V136.52H835.801V145.256H855.385V159.08H835.801V170.12H864.409V185H819.289Z" fill="url(#paint24_linear_55_7636)"/>
<defs>
<filter id="filter0_d_55_7636" x="0.792603" y="0.479736" width="915.617" height="253.512" filterUnits="userSpaceOnUse" color-interpolation-filters="sRGB">
<feFlood flood-opacity="0" result="BackgroundImageFix"/>
<feColorMatrix in="SourceAlpha" type="matrix" values="0 0 0 0 0 0 0 0 0 0 0 0 0 0 0 0 0 0 127 0" result="hardAlpha"/>
<feOffset dx="12" dy="12"/>
<feGaussianBlur stdDeviation="10"/>
<feComposite in2="hardAlpha" operator="out"/>
<feColorMatrix type="matrix" values="0 0 0 0 0 0 0 0 0 0 0 0 0 0 0 0 0 0 0.65 0"/>
<feBlend mode="normal" in2="BackgroundImageFix" result="effect1_dropShadow_55_7636"/>
<feBlend mode="normal" in="SourceGraphic" in2="effect1_dropShadow_55_7636" result="shape"/>
</filter>
<linearGradient id="paint0_linear_55_7636" x1="864.409" y1="-104.706" x2="-16.188" y2="-39.2748" gradientUnits="userSpaceOnUse">
<stop offset="0.217461" stop-color="#A0A0A0"/>
<stop offset="0.722947" stop-color="#ECECEC"/>
<stop offset="0.997769" stop-color="#A0A0A0"/>
</linearGradient>
<linearGradient id="paint1_linear_55_7636" x1="864.409" y1="-104.706" x2="-16.188" y2="-39.2748" gradientUnits="userSpaceOnUse">
<stop offset="0.217461" stop-color="#A0A0A0"/>
<stop offset="0.722947" stop-color="#ECECEC"/>
<stop offset="0.997769" stop-color="#A0A0A0"/>
</linearGradient>
<linearGradient id="paint2_linear_55_7636" x1="864.409" y1="-104.706" x2="-16.188" y2="-39.2748" gradientUnits="userSpaceOnUse">
<stop offset="0.217461" stop-color="#A0A0A0"/>
<stop offset="0.722947" stop-color="#ECECEC"/>
<stop offset="0.997769" stop-color="#A0A0A0"/>
</linearGradient>
<linearGradient id="paint3_linear_55_7636" x1="864.409" y1="-104.706" x2="-16.188" y2="-39.2748" gradientUnits="userSpaceOnUse">
<stop offset="0.217461" stop-color="#A0A0A0"/>
<stop offset="0.722947" stop-color="#ECECEC"/>
<stop offset="0.997769" stop-color="#A0A0A0"/>
</linearGradient>
<linearGradient id="paint4_linear_55_7636" x1="864.409" y1="-104.706" x2="-16.188" y2="-39.2748" gradientUnits="userSpaceOnUse">
<stop offset="0.217461" stop-color="#A0A0A0"/>
<stop offset="0.722947" stop-color="#ECECEC"/>
<stop offset="0.997769" stop-color="#A0A0A0"/>
</linearGradient>
<linearGradient id="paint5_linear_55_7636" x1="864.409" y1="-104.706" x2="-16.188" y2="-39.2748" gradientUnits="userSpaceOnUse">
<stop offset="0.217461" stop-color="#A0A0A0"/>
<stop offset="0.722947" stop-color="#ECECEC"/>
<stop offset="0.997769" stop-color="#A0A0A0"/>
</linearGradient>
<linearGradient id="paint6_linear_55_7636" x1="864.409" y1="-104.706" x2="-16.188" y2="-39.2748" gradientUnits="userSpaceOnUse">
<stop offset="0.217461" stop-color="#A0A0A0"/>
<stop offset="0.722947" stop-color="#ECECEC"/>
<stop offset="0.997769" stop-color="#A0A0A0"/>
</linearGradient>
<linearGradient id="paint7_linear_55_7636" x1="864.409" y1="-104.706" x2="-16.188" y2="-39.2748" gradientUnits="userSpaceOnUse">
<stop offset="0.217461" stop-color="#A0A0A0"/>
<stop offset="0.722947" stop-color="#ECECEC"/>
<stop offset="0.997769" stop-color="#A0A0A0"/>
</linearGradient>
<linearGradient id="paint8_linear_55_7636" x1="864.409" y1="-104.706" x2="-16.188" y2="-39.2748" gradientUnits="userSpaceOnUse">
<stop offset="0.217461" stop-color="#A0A0A0"/>
<stop offset="0.722947" stop-color="#ECECEC"/>
<stop offset="0.997769" stop-color="#A0A0A0"/>
</linearGradient>
<linearGradient id="paint9_linear_55_7636" x1="864.409" y1="-104.706" x2="-16.188" y2="-39.2748" gradientUnits="userSpaceOnUse">
<stop offset="0.217461" stop-color="#A0A0A0"/>
<stop offset="0.722947" stop-color="#ECECEC"/>
<stop offset="0.997769" stop-color="#A0A0A0"/>
</linearGradient>
<linearGradient id="paint10_linear_55_7636" x1="864.409" y1="-104.706" x2="-16.188" y2="-39.2748" gradientUnits="userSpaceOnUse">
<stop offset="0.217461" stop-color="#A0A0A0"/>
<stop offset="0.722947" stop-color="#ECECEC"/>
<stop offset="0.997769" stop-color="#A0A0A0"/>
</linearGradient>
<linearGradient id="paint11_linear_55_7636" x1="864.409" y1="-104.706" x2="-16.188" y2="-39.2748" gradientUnits="userSpaceOnUse">
<stop offset="0.217461" stop-color="#A0A0A0"/>
<stop offset="0.722947" stop-color="#ECECEC"/>
<stop offset="0.997769" stop-color="#A0A0A0"/>
</linearGradient>
<linearGradient id="paint12_linear_55_7636" x1="864.409" y1="-104.706" x2="-16.188" y2="-39.2748" gradientUnits="userSpaceOnUse">
<stop offset="0.217461" stop-color="#A0A0A0"/>
<stop offset="0.722947" stop-color="#ECECEC"/>
<stop offset="0.997769" stop-color="#A0A0A0"/>
</linearGradient>
<linearGradient id="paint13_linear_55_7636" x1="864.409" y1="-104.706" x2="-16.188" y2="-39.2748" gradientUnits="userSpaceOnUse">
<stop offset="0.217461" stop-color="#A0A0A0"/>
<stop offset="0.722947" stop-color="#ECECEC"/>
<stop offset="0.997769" stop-color="#A0A0A0"/>
</linearGradient>
<linearGradient id="paint14_linear_55_7636" x1="864.409" y1="-104.706" x2="-16.188" y2="-39.2748" gradientUnits="userSpaceOnUse">
<stop offset="0.217461" stop-color="#A0A0A0"/>
<stop offset="0.722947" stop-color="#ECECEC"/>
<stop offset="0.997769" stop-color="#A0A0A0"/>
</linearGradient>
<linearGradient id="paint15_linear_55_7636" x1="864.409" y1="-104.706" x2="-16.188" y2="-39.2748" gradientUnits="userSpaceOnUse">
<stop offset="0.217461" stop-color="#A0A0A0"/>
<stop offset="0.722947" stop-color="#ECECEC"/>
<stop offset="0.997769" stop-color="#A0A0A0"/>
</linearGradient>
<linearGradient id="paint16_linear_55_7636" x1="864.409" y1="-104.706" x2="-16.188" y2="-39.2748" gradientUnits="userSpaceOnUse">
<stop offset="0.217461" stop-color="#A0A0A0"/>
<stop offset="0.722947" stop-color="#ECECEC"/>
<stop offset="0.997769" stop-color="#A0A0A0"/>
</linearGradient>
<linearGradient id="paint17_linear_55_7636" x1="864.409" y1="-104.706" x2="-16.188" y2="-39.2748" gradientUnits="userSpaceOnUse">
<stop offset="0.217461" stop-color="#A0A0A0"/>
<stop offset="0.722947" stop-color="#ECECEC"/>
<stop offset="0.997769" stop-color="#A0A0A0"/>
</linearGradient>
<linearGradient id="paint18_linear_55_7636" x1="864.409" y1="-104.706" x2="-16.188" y2="-39.2748" gradientUnits="userSpaceOnUse">
<stop offset="0.217461" stop-color="#A0A0A0"/>
<stop offset="0.722947" stop-color="#ECECEC"/>
<stop offset="0.997769" stop-color="#A0A0A0"/>
</linearGradient>
<linearGradient id="paint19_linear_55_7636" x1="864.409" y1="-104.706" x2="-16.188" y2="-39.2748" gradientUnits="userSpaceOnUse">
<stop offset="0.217461" stop-color="#A0A0A0"/>
<stop offset="0.722947" stop-color="#ECECEC"/>
<stop offset="0.997769" stop-color="#A0A0A0"/>
</linearGradient>
<linearGradient id="paint20_linear_55_7636" x1="864.409" y1="-104.706" x2="-16.188" y2="-39.2748" gradientUnits="userSpaceOnUse">
<stop offset="0.217461" stop-color="#A0A0A0"/>
<stop offset="0.722947" stop-color="#ECECEC"/>
<stop offset="0.997769" stop-color="#A0A0A0"/>
</linearGradient>
<linearGradient id="paint21_linear_55_7636" x1="864.409" y1="-104.706" x2="-16.188" y2="-39.2748" gradientUnits="userSpaceOnUse">
<stop offset="0.217461" stop-color="#A0A0A0"/>
<stop offset="0.722947" stop-color="#ECECEC"/>
<stop offset="0.997769" stop-color="#A0A0A0"/>
</linearGradient>
<linearGradient id="paint22_linear_55_7636" x1="864.409" y1="-104.706" x2="-16.188" y2="-39.2748" gradientUnits="userSpaceOnUse">
<stop offset="0.217461" stop-color="#A0A0A0"/>
<stop offset="0.722947" stop-color="#ECECEC"/>
<stop offset="0.997769" stop-color="#A0A0A0"/>
</linearGradient>
<linearGradient id="paint23_linear_55_7636" x1="864.409" y1="-104.706" x2="-16.188" y2="-39.2748" gradientUnits="userSpaceOnUse">
<stop offset="0.217461" stop-color="#A0A0A0"/>
<stop offset="0.722947" stop-color="#ECECEC"/>
<stop offset="0.997769" stop-color="#A0A0A0"/>
</linearGradient>
<linearGradient id="paint24_linear_55_7636" x1="864.409" y1="-104.706" x2="-16.188" y2="-39.2748" gradientUnits="userSpaceOnUse">
<stop offset="0.217461" stop-color="#A0A0A0"/>
<stop offset="0.722947" stop-color="#ECECEC"/>
<stop offset="0.997769" stop-color="#A0A0A0"/>
</linearGradient>
</defs>
</svg>
